{
.appVersion = "3436";
.formatVersion = 3;
DisplayStrings = (
"mimmicri
ngcautilus
captain",
"нанбнвнгнғнһндненёнәнжнзнинйнінкнқнлнмнннңнонөнпнрнснтнунүнұнфнхнчнцншнщнъныньнэнюнян
n/Placeholder n/Placeholder n/Placeholder n/Placeholder n
н/Placeholder н/Placeholder н/Placeholder н/Placeholder н"
);
axes = (
{
name = Weight;
tag = wght;
}
);
classes = (
{
automatic = 1;
code = "A B C D E F G H I J K L M N O P Q R S T U V W X Y Z A-cy Be-cy Ve-cy Ge-cy Gestroke-cy Shha-cy De-cy Ie-cy Io-cy Schwa-cy Zhe-cy Ze-cy Ii-cy Iishort-cy I-cy Ka-cy Kadescender-cy Kadescender-cy.001 El-cy Em-cy En-cy Endescender-cy O-cy Obarred-cy Pe-cy Er-cy Es-cy Te-cy U-cy Ustraight-cy Ustraightstroke-cy Ef-cy Ha-cy Che-cy Tse-cy Sha-cy Shcha-cy Hardsign-cy Yeru-cy Softsign-cy Ereversed-cy Yu-cy Ya-cy";
name = Uppercase;
}
);
date = "2024-02-08 17:25:47 +0000";
familyName = "School Sans";
featurePrefixes = (
{
automatic = 1;
code = "languagesystem DFLT dflt;
";
name = Languagesystems;
}
);
features = (
{
automatic = 1;
code = "feature ordn;
feature case;
feature ss01;
";
tag = aalt;
},
{
automatic = 1;
code = "lookup ccmp_DFLT_1 {
	@CombiningTopAccents = [dieresiscomb dotaccentcomb];
	lookupflag UseMarkFilteringSet @CombiningTopAccents;
	sub i' @CombiningTopAccents by idotless;
} ccmp_DFLT_1;

lookup ccmp_Other_1 {
	lookupflag 0;
	@Markscomb = [brevecomb-cy dieresiscomb];
	@MarkscombCase = [brevecomb-cy.case dieresiscomb.case];
	sub @Markscomb @Markscomb' by @MarkscombCase;
	sub @Uppercase @Markscomb' by @MarkscombCase;
} ccmp_Other_1;

lookup ccmp_Other_2 {
	lookupflag 0;
	sub @Markscomb' @MarkscombCase by @MarkscombCase;
	sub @MarkscombCase @Markscomb' by @MarkscombCase;
} ccmp_Other_2;
";
tag = ccmp;
},
{
automatic = 1;
code = "sub N o period by numero;
";
tag = ordn;
},
{
automatic = 1;
code = "sub brevecomb-cy by brevecomb-cy.case;
sub dieresiscomb by dieresiscomb.case;
";
tag = case;
},
{
code = "sub a by a.001;
sub a-cy by a.001;
sub u by u.001;
sub l by l.001;
sub g by g.001;";

glyphs = (
{
glyphname = A;
kernLeft = A;
kernRight = A;
lastChange = "2026-01-14 12:47:55 +0000";
layers = (
{
anchors = (
{
name = top;
pos = (336,700);
}
);
guides = (
{
angle = 270;
pos = (336,0);
}
);
layerId = "257EBA85-25A6-4EFE-A653-BCCD9A912022";
shapes = (
{
closed = 1;
nodes = (
(520,238,l),
(520,290,l),
(149,290,l),
(149,238,l)
);
},
{
closed = 1;
nodes = (
(323,664,l),
(602,0,l),
(659,0,l),
(364,700,l),
(304,700,l),
(10,0,l),
(68,0,l),
(347,664,l)
);
}
);
width = 669;
},
{
anchors = (
{
name = top;
pos = (336,700);
}
);
guides = (
{
angle = 270;
pos = (336,0);
}
);
layerId = m002;
shapes = (
{
closed = 1;
nodes = (
(520,238,l),
(520,290,l),
(149,290,l),
(149,238,l)
);
},
{
closed = 1;
nodes = (
(323,664,l),
(602,0,l),
(659,0,l),
(364,700,l),
(304,700,l),
(10,0,l),
(68,0,l),
(347,664,l)
);
}
);
width = 669;
},
{
anchors = (
{
name = top;
pos = (336,700);
}
);
guides = (
{
angle = 270;
pos = (336,0);
}
);
layerId = m003;
shapes = (
{
closed = 1;
nodes = (
(520,238,l),
(520,290,l),
(149,290,l),
(149,238,l)
);
},
{
closed = 1;
nodes = (
(323,664,l),
(602,0,l),
(659,0,l),
(364,700,l),
(304,700,l),
(10,0,l),
(68,0,l),
(347,664,l)
);
}
);
width = 669;
}
);
metricLeft = "=V";
metricRight = "=V";
unicode = 65;
},
{
glyphname = B;
kernRight = P;
lastChange = "2026-01-14 12:47:55 +0000";
layers = (
{
layerId = "257EBA85-25A6-4EFE-A653-BCCD9A912022";
shapes = (
{
closed = 1;
nodes = (
(277,0,ls),
(411,0,o),
(525,53,o),
(525,203,cs),
(525,315,o),
(445,393,o),
(355,399,c),
(345,382,l),
(412,412,o),
(452,478,o),
(452,541,cs),
(452,629,o),
(398,700,o),
(245,700,cs),
(80,700,l),
(80,0,l)
);
},
{
closed = 1;
nodes = (
(137,358,l),
(299,358,ls),
(401,358,o),
(469,312,o),
(469,200,cs),
(469,76,o),
(383,52,o),
(284,52,cs),
(137,52,l)
);
},
{
closed = 1;
nodes = (
(137,648,l),
(251,648,ls),
(352,648,o),
(396,615,o),
(396,540,cs),
(396,471,o),
(361,410,o),
(252,410,cs),
(137,410,l)
);
}
);
width = 545;
},
{
layerId = m002;
shapes = (
{
closed = 1;
nodes = (
(277,0,ls),
(411,0,o),
(525,53,o),
(525,203,cs),
(525,315,o),
(445,393,o),
(355,399,c),
(345,382,l),
(412,412,o),
(452,478,o),
(452,541,cs),
(452,629,o),
(398,700,o),
(245,700,cs),
(80,700,l),
(80,0,l)
);
},
{
closed = 1;
nodes = (
(137,358,l),
(299,358,ls),
(401,358,o),
(469,312,o),
(469,200,cs),
(469,76,o),
(383,52,o),
(284,52,cs),
(137,52,l)
);
},
{
closed = 1;
nodes = (
(137,648,l),
(251,648,ls),
(352,648,o),
(396,615,o),
(396,540,cs),
(396,471,o),
(361,410,o),
(252,410,cs),
(137,410,l)
);
}
);
width = 545;
},
{
layerId = m003;
shapes = (
{
closed = 1;
nodes = (
(277,0,ls),
(411,0,o),
(525,53,o),
(525,203,cs),
(525,315,o),
(445,393,o),
(355,399,c),
(345,382,l),
(412,412,o),
(452,478,o),
(452,541,cs),
(452,629,o),
(398,700,o),
(245,700,cs),
(80,700,l),
(80,0,l)
);
},
{
closed = 1;
nodes = (
(137,358,l),
(299,358,ls),
(401,358,o),
(469,312,o),
(469,200,cs),
(469,76,o),
(383,52,o),
(284,52,cs),
(137,52,l)
);
},
{
closed = 1;
nodes = (
(137,648,l),
(251,648,ls),
(352,648,o),
(396,615,o),
(396,540,cs),
(396,471,o),
(361,410,o),
(252,410,cs),
(137,410,l)
);
}
);
width = 545;
}
);
metricLeft = "=N";
unicode = 66;
},
{
glyphname = C;
kernLeft = O;
kernRight = C;
lastChange = "2026-01-14 12:47:55 +0000";
layers = (
{
background = {
shapes = (
{
ref = "es-cy";
}
);
};
layerId = "257EBA85-25A6-4EFE-A653-BCCD9A912022";
shapes = (
{
closed = 1;
nodes = (
(607,119,l),
(545,65,o),
(471,36,o),
(383,36,cs),
(200,36,o),
(100,150,o),
(100,355,cs),
(100,559,o),
(216,663,o),
(369,663,cs),
(466,663,o),
(531,634,o),
(575,608,c),
(594,661,l),
(556,684,o),
(477,715,o),
(381,715,cs),
(171,715,o),
(42,585,o),
(42,355,cs),
(42,126,o),
(161,-16,o),
(387,-16,cs),
(462,-16,o),
(556,0,o),
(627,68,c)
);
}
);
width = 650;
},
{
associatedMasterId = "257EBA85-25A6-4EFE-A653-BCCD9A912022";
layerId = "69BDB4DC-6A65-43A2-A1BD-6581FDC28F32";
name = "19 Dec 25 at 16:27";
shapes = (
{
closed = 1;
nodes = (
(469,-16,o),
(559,7,o),
(630,75,c),
(630,146,l),
(558,70,o),
(481,36,o),
(383,36,cs),
(200,36,o),
(100,150,o),
(100,355,cs),
(100,559,o),
(210,663,o),
(377,663,cs),
(449,663,o),
(527,639,o),
(596,570,c),
(595,640,l),
(526,700,o),
(437,715,o),
(367,715,cs),
(171,715,o),
(42,585,o),
(42,355,cs),
(42,126,o),
(161,-16,o),
(387,-16,cs)
);
}
);
width = 650;
},
{
associatedMasterId = "257EBA85-25A6-4EFE-A653-BCCD9A912022";
layerId = "71DA0B25-0F62-482D-917F-67FBF6D773EF";
name = "14 Jan 26 at 01:34";
shapes = (
{
closed = 1;
nodes = (
(469,-16,o),
(559,7,o),
(630,75,c),
(624,139,l),
(552,63,o),
(481,36,o),
(383,36,cs),
(200,36,o),
(100,150,o),
(100,355,cs),
(100,559,o),
(216,663,o),
(369,663,cs),
(481,663,o),
(541,632,o),
(593,595,c),
(593,654,l),
(558,677,o),
(483,715,o),
(381,715,cs),
(171,715,o),
(42,585,o),
(42,355,cs),
(42,126,o),
(161,-16,o),
(387,-16,cs)
);
}
);
width = 650;
},
{
background = {
shapes = (
{
ref = "es-cy";
}
);
};
layerId = m002;
shapes = (
{
closed = 1;
nodes = (
(607,119,l),
(545,65,o),
(471,36,o),
(383,36,cs),
(200,36,o),
(100,150,o),
(100,355,cs),
(100,559,o),
(216,663,o),
(369,663,cs),
(466,663,o),
(531,634,o),
(575,608,c),
(594,661,l),
(556,684,o),
(477,715,o),
(381,715,cs),
(171,715,o),
(42,585,o),
(42,355,cs),
(42,126,o),
(161,-16,o),
(387,-16,cs),
(462,-16,o),
(556,0,o),
(627,68,c)
);
}
);
width = 650;
},
{
associatedMasterId = m002;
layerId = "B70454EE-65C6-4020-B48D-C086F189C203";
name = "19 Dec 25 at 16:27";
shapes = (
{
closed = 1;
nodes = (
(469,-16,o),
(559,7,o),
(630,75,c),
(630,146,l),
(558,70,o),
(481,36,o),
(383,36,cs),
(200,36,o),
(100,150,o),
(100,355,cs),
(100,559,o),
(210,663,o),
(377,663,cs),
(449,663,o),
(527,639,o),
(596,570,c),
(595,640,l),
(526,700,o),
(437,715,o),
(367,715,cs),
(171,715,o),
(42,585,o),
(42,355,cs),
(42,126,o),
(161,-16,o),
(387,-16,cs)
);
}
);
width = 650;
},
{
associatedMasterId = m002;
layerId = "418B5C0B-37C8-4AFC-A147-B345C7FE1170";
name = "14 Jan 26 at 01:34";
shapes = (
{
closed = 1;
nodes = (
(469,-16,o),
(559,7,o),
(630,75,c),
(624,139,l),
(552,63,o),
(481,36,o),
(383,36,cs),
(200,36,o),
(100,150,o),
(100,355,cs),
(100,559,o),
(216,663,o),
(369,663,cs),
(481,663,o),
(541,632,o),
(593,595,c),
(593,654,l),
(558,677,o),
(483,715,o),
(381,715,cs),
(171,715,o),
(42,585,o),
(42,355,cs),
(42,126,o),
(161,-16,o),
(387,-16,cs)
);
}
);
width = 650;
},
{
background = {
shapes = (
{
ref = "es-cy";
}
);
};
layerId = m003;
shapes = (
{
closed = 1;
nodes = (
(607,119,l),
(545,65,o),
(471,36,o),
(383,36,cs),
(200,36,o),
(100,150,o),
(100,355,cs),
(100,559,o),
(216,663,o),
(369,663,cs),
(466,663,o),
(531,634,o),
(575,608,c),
(594,661,l),
(556,684,o),
(477,715,o),
(381,715,cs),
(171,715,o),
(42,585,o),
(42,355,cs),
(42,126,o),
(161,-16,o),
(387,-16,cs),
(462,-16,o),
(556,0,o),
(627,68,c)
);
}
);
width = 650;
},
{
associatedMasterId = m003;
layerId = "641FB921-FADD-4B84-A868-C4B44143EE9D";
name = "19 Dec 25 at 16:27";
shapes = (
{
closed = 1;
nodes = (
(469,-16,o),
(559,7,o),
(630,75,c),
(630,146,l),
(558,70,o),
(481,36,o),
(383,36,cs),
(200,36,o),
(100,150,o),
(100,355,cs),
(100,559,o),
(210,663,o),
(377,663,cs),
(449,663,o),
(527,639,o),
(596,570,c),
(595,640,l),
(526,700,o),
(437,715,o),
(367,715,cs),
(171,715,o),
(42,585,o),
(42,355,cs),
(42,126,o),
(161,-16,o),
(387,-16,cs)
);
}
);
width = 650;
},
{
associatedMasterId = m003;
layerId = "3EAC9DF8-E3CE-4C55-8B56-77C32FC857A7";
name = "14 Jan 26 at 01:34";
shapes = (
{
closed = 1;
nodes = (
(469,-16,o),
(559,7,o),
(630,75,c),
(624,139,l),
(552,63,o),
(481,36,o),
(383,36,cs),
(200,36,o),
(100,150,o),
(100,355,cs),
(100,559,o),
(216,663,o),
(369,663,cs),
(481,663,o),
(541,632,o),
(593,595,c),
(593,654,l),
(558,677,o),
(483,715,o),
(381,715,cs),
(171,715,o),
(42,585,o),
(42,355,cs),
(42,126,o),
(161,-16,o),
(387,-16,cs)
);
}
);
width = 650;
}
);
metricLeft = "=O";
unicode = 67;
},
{
glyphname = D;
kernRight = D;
lastChange = "2026-01-14 12:47:55 +0000";
layers = (
{
background = {
shapes = (
{
pos = (37,0);
ref = C;
}
);
};
layerId = "257EBA85-25A6-4EFE-A653-BCCD9A912022";
shapes = (
{
closed = 1;
nodes = (
(338,0,ls),
(551,0,o),
(668,132,o),
(668,369,cs),
(668,592,o),
(544,700,o),
(331,700,cs),
(80,700,l),
(80,0,l)
);
},
{
closed = 1;
nodes = (
(137,688,l),
(96,648,l),
(331,648,ls),
(522,648,o),
(610,550,o),
(610,369,cs),
(610,171,o),
(525,52,o),
(338,52,cs),
(96,52,l),
(137,12,l)
);
}
);
width = 710;
},
{
background = {
shapes = (
{
pos = (37,0);
ref = C;
}
);
};
layerId = m002;
shapes = (
{
closed = 1;
nodes = (
(338,0,ls),
(551,0,o),
(668,132,o),
(668,369,cs),
(668,592,o),
(544,700,o),
(331,700,cs),
(80,700,l),
(80,0,l)
);
},
{
closed = 1;
nodes = (
(137,688,l),
(96,648,l),
(331,648,ls),
(522,648,o),
(610,550,o),
(610,369,cs),
(610,171,o),
(525,52,o),
(338,52,cs),
(96,52,l),
(137,12,l)
);
}
);
width = 710;
},
{
background = {
shapes = (
{
pos = (37,0);
ref = C;
}
);
};
layerId = m003;
shapes = (
{
closed = 1;
nodes = (
(338,0,ls),
(551,0,o),
(668,132,o),
(668,369,cs),
(668,592,o),
(544,700,o),
(331,700,cs),
(80,700,l),
(80,0,l)
);
},
{
closed = 1;
nodes = (
(137,688,l),
(96,648,l),
(331,648,ls),
(522,648,o),
(610,550,o),
(610,369,cs),
(610,171,o),
(525,52,o),
(338,52,cs),
(96,52,l),
(137,12,l)
);
}
);
width = 710;
}
);
metricLeft = "=|H";
metricRight = "=O";
unicode = 68;
},
{
glyphname = E;
kernRight = E;
lastChange = "2026-01-19 05:37:34 +0000";
layers = (
{
anchors = (
{
name = top;
pos = (274,700);
}
);
layerId = "257EBA85-25A6-4EFE-A653-BCCD9A912022";
shapes = (
{
closed = 1;
nodes = (
(488,0,l),
(488,52,l),
(137,52,l),
(137,648,l),
(468,648,l),
(468,700,l),
(80,700,l),
(80,0,l)
);
},
{
closed = 1;
nodes = (
(440,345,l),
(440,397,l),
(101,397,l),
(101,345,l)
);
}
);
width = 528;
},
{
anchors = (
{
name = top;
pos = (254,700);
}
);
layerId = m002;
shapes = (
{
closed = 1;
nodes = (
(478,0,l),
(478,200,l),
(296,200,l),
(296,500,l),
(458,500,l),
(458,700,l),
(60,700,l),
(60,0,l)
);
},
{
closed = 1;
nodes = (
(440,266,l),
(440,436,l),
(91,436,l),
(91,266,l)
);
}
);
width = 508;
},
{
anchors = (
{
name = top;
pos = (274,700);
}
);
background = {
shapes = (
{
ref = L;
}
);
};
layerId = m003;
shapes = (
{
closed = 1;
nodes = (
(488,0,l),
(488,124,l),
(212,124,l),
(212,576,l),
(468,576,l),
(468,700,l),
(80,700,l),
(80,0,l)
);
},
{
closed = 1;
nodes = (
(440,309,l),
(440,433,l),
(101,433,l),
(101,309,l)
);
}
);
width = 528;
}
);
metricLeft = "=H";
unicode = 69;
},
{
glyphname = F;
kernRight = F;
lastChange = "2026-01-19 05:38:11 +0000";
layers = (
{
layerId = "257EBA85-25A6-4EFE-A653-BCCD9A912022";
shapes = (
{
closed = 1;
nodes = (
(137,0,l),
(137,678,l),
(111,648,l),
(490,648,l),
(490,700,l),
(80,700,l),
(80,0,l)
);
},
{
closed = 1;
nodes = (
(434,339,l),
(434,391,l),
(101,391,l),
(101,339,l)
);
}
);
width = 530;
},
{
associatedMasterId = "257EBA85-25A6-4EFE-A653-BCCD9A912022";
layerId = "5378D244-177A-41C9-8B33-E61A7033120E";
name = "9 Dec 24 at 16:59";
shapes = (
{
closed = 1;
nodes = (
(141,0,l),
(141,678,l),
(130,662,l),
(583,662,l),
(583,700,l),
(99,700,l),
(99,0,l)
);
},
{
closed = 1;
nodes = (
(547,319,l),
(547,357,l),
(120,357,l),
(120,319,l)
);
}
);
width = 662;
},
{
layerId = m002;
shapes = (
{
closed = 1;
nodes = (
(266,0,l),
(266,678,l),
(61,500,l),
(440,500,l),
(440,700,l),
(30,700,l),
(30,0,l)
);
},
{
closed = 1;
nodes = (
(404,235,l),
(404,435,l),
(51,435,l),
(51,235,l)
);
}
);
width = 470;
},
{
associatedMasterId = m002;
layerId = "7C69AAD6-A491-42C2-996E-32D80913370E";
name = "9 Dec 24 at 16:59";
shapes = (
{
closed = 1;
nodes = (
(141,0,l),
(141,678,l),
(130,662,l),
(583,662,l),
(583,700,l),
(99,700,l),
(99,0,l)
);
},
{
closed = 1;
nodes = (
(547,319,l),
(547,357,l),
(120,357,l),
(120,319,l)
);
}
);
width = 662;
},
{
layerId = m003;
shapes = (
{
closed = 1;
nodes = (
(212,0,l),
(212,678,l),
(111,576,l),
(490,576,l),
(490,700,l),
(80,700,l),
(80,0,l)
);
},
{
closed = 1;
nodes = (
(434,303,l),
(434,427,l),
(101,427,l),
(101,303,l)
);
}
);
width = 530;
},
{
associatedMasterId = m003;
layerId = "8B4FB23A-10E0-4307-A1DD-C59D3187299C";
name = "9 Dec 24 at 16:59";
shapes = (
{
closed = 1;
nodes = (
(141,0,l),
(141,678,l),
(130,662,l),
(583,662,l),
(583,700,l),
(99,700,l),
(99,0,l)
);
},
{
closed = 1;
nodes = (
(547,319,l),
(547,357,l),
(120,357,l),
(120,319,l)
);
}
);
width = 662;
}
);
metricLeft = "=|H";
metricRight = "=E";
unicode = 70;
},
{
glyphname = G;
kernLeft = O;
lastChange = "2026-01-14 12:47:55 +0000";
layers = (
{
background = {
shapes = (
{
ref = C;
}
);
};
layerId = "257EBA85-25A6-4EFE-A653-BCCD9A912022";
shapes = (
{
closed = 1;
nodes = (
(587,660,l),
(549,683,o),
(477,715,o),
(381,715,cs),
(171,715,o),
(42,585,o),
(42,355,cs),
(42,136,o),
(187,-16,o),
(394,-16,cs),
(496,-16,o),
(577,15,o),
(632,75,c),
(632,362,l),
(385,362,l),
(385,310,l),
(599,310,l),
(576,343,l),
(576,94,l),
(539,61,o),
(481,36,o),
(394,36,cs),
(227,36,o),
(100,151,o),
(100,355,cs),
(100,559,o),
(216,663,o),
(369,663,cs),
(464,663,o),
(529,635,o),
(573,609,c)
);
}
);
width = 666;
},
{
associatedMasterId = "257EBA85-25A6-4EFE-A653-BCCD9A912022";
background = {
shapes = (
{
closed = 1;
nodes = (
(556,-16,o),
(675,126,o),
(675,355,cs),
(675,585,o),
(556,715,o),
(350,715,cs),
(278,715,o),
(165,699,o),
(89,629,c),
(89,575,l),
(167,659,o),
(272,677,o),
(346,677,cs),
(530,677,o),
(631,565,o),
(631,355,cs),
(631,144,o),
(530,22,o),
(362,22,cs),
(187,22,o),
(76,156,o),
(83,363,c),
(63,344,l),
(341,344,l),
(341,382,l),
(45,382,l),
(45,361,ls),
(45,125,o),
(167,-16,o),
(361,-16,cs)
);
}
);
};
layerId = "8A87A52E-2974-4662-A439-316BCA20BC01";
name = "9 Dec 24 at 14:58";
shapes = (
{
closed = 1;
nodes = (
(553,-16,o),
(675,125,o),
(675,361,cs),
(675,382,l),
(359,382,l),
(359,344,l),
(657,344,l),
(633,363,l),
(640,156,o),
(533,22,o),
(358,22,cs),
(190,22,o),
(87,144,o),
(87,355,cs),
(87,565,o),
(190,677,o),
(374,677,cs),
(448,677,o),
(543,659,o),
(621,575,c),
(621,629,l),
(545,699,o),
(442,715,o),
(370,715,cs),
(164,715,o),
(43,585,o),
(43,355,cs),
(43,126,o),
(164,-16,o),
(359,-16,cs)
);
}
);
width = 718;
},
{
associatedMasterId = "257EBA85-25A6-4EFE-A653-BCCD9A912022";
layerId = "C64816BC-47D2-45D5-8877-5D5782BC676E";
name = "26 Apr 25 at 00:16";
shapes = (
{
closed = 1;
nodes = (
(544,-16,o),
(655,124,o),
(655,361,cs),
(655,382,l),
(336,382,l),
(336,344,l),
(637,344,l),
(613,363,l),
(620,155,o),
(525,22,o),
(349,22,cs),
(179,22,o),
(87,146,o),
(87,355,cs),
(87,558,o),
(175,677,o),
(355,677,cs),
(457,677,o),
(540,639,o),
(598,581,c),
(598,633,l),
(544,680,o),
(455,715,o),
(355,715,cs),
(158,715,o),
(43,578,o),
(43,355,cs),
(43,136,o),
(152,-16,o),
(349,-16,cs)
);
}
);
width = 698;
},
{
associatedMasterId = "257EBA85-25A6-4EFE-A653-BCCD9A912022";
background = {
shapes = (
{
ref = C;
}
);
};
layerId = "989D2861-60EA-4AB6-A15F-BC569F4E40C1";
name = "19 Dec 25 at 16:28";
shapes = (
{
closed = 1;
nodes = (
(496,-16,o),
(577,15,o),
(632,75,c),
(632,362,l),
(385,362,l),
(385,310,l),
(599,310,l),
(576,343,l),
(576,108,l),
(533,61,o),
(481,36,o),
(394,36,cs),
(227,36,o),
(100,151,o),
(100,355,cs),
(100,553,o),
(214,663,o),
(390,663,cs),
(487,663,o),
(566,621,o),
(620,571,c),
(620,641,l),
(582,674,o),
(493,715,o),
(394,715,cs),
(187,715,o),
(42,578,o),
(42,355,cs),
(42,136,o),
(187,-16,o),
(394,-16,cs)
);
}
);
width = 666;
},
{
associatedMasterId = "257EBA85-25A6-4EFE-A653-BCCD9A912022";
background = {
shapes = (
{
ref = C;
}
);
};
layerId = "273CA8A5-28F3-44D2-A59E-3A5D550770CC";
name = "14 Jan 26 at 01:38";
shapes = (
{
closed = 1;
nodes = (
(496,-16,o),
(577,15,o),
(632,75,c),
(632,362,l),
(385,362,l),
(385,310,l),
(599,310,l),
(576,343,l),
(576,94,l),
(539,61,o),
(481,36,o),
(394,36,cs),
(227,36,o),
(100,151,o),
(100,355,cs),
(100,553,o),
(214,663,o),
(390,663,cs),
(487,663,o),
(561,623,o),
(615,587,c),
(615,641,l),
(577,668,o),
(493,715,o),
(394,715,cs),
(187,715,o),
(42,578,o),
(42,355,cs),
(42,136,o),
(187,-16,o),
(394,-16,cs)
);
}
);
width = 666;
},
{
background = {
shapes = (
{
ref = C;
}
);
};
layerId = m002;
shapes = (
{
closed = 1;
nodes = (
(587,660,l),
(549,683,o),
(477,715,o),
(381,715,cs),
(171,715,o),
(42,585,o),
(42,355,cs),
(42,136,o),
(187,-16,o),
(394,-16,cs),
(496,-16,o),
(577,15,o),
(632,75,c),
(632,362,l),
(385,362,l),
(385,310,l),
(599,310,l),
(576,343,l),
(576,94,l),
(539,61,o),
(481,36,o),
(394,36,cs),
(227,36,o),
(100,151,o),
(100,355,cs),
(100,559,o),
(216,663,o),
(369,663,cs),
(464,663,o),
(529,635,o),
(573,609,c)
);
}
);
width = 666;
},
{
associatedMasterId = m002;
background = {
shapes = (
{
closed = 1;
nodes = (
(556,-16,o),
(675,126,o),
(675,355,cs),
(675,585,o),
(556,715,o),
(350,715,cs),
(278,715,o),
(165,699,o),
(89,629,c),
(89,575,l),
(167,659,o),
(272,677,o),
(346,677,cs),
(530,677,o),
(631,565,o),
(631,355,cs),
(631,144,o),
(530,22,o),
(362,22,cs),
(187,22,o),
(76,156,o),
(83,363,c),
(63,344,l),
(341,344,l),
(341,382,l),
(45,382,l),
(45,361,ls),
(45,125,o),
(167,-16,o),
(361,-16,cs)
);
}
);
};
layerId = "0699F866-E867-4847-AEBD-3DD29851D683";
name = "9 Dec 24 at 14:58";
shapes = (
{
closed = 1;
nodes = (
(553,-16,o),
(675,125,o),
(675,361,cs),
(675,382,l),
(359,382,l),
(359,344,l),
(657,344,l),
(633,363,l),
(640,156,o),
(533,22,o),
(358,22,cs),
(190,22,o),
(87,144,o),
(87,355,cs),
(87,565,o),
(190,677,o),
(374,677,cs),
(448,677,o),
(543,659,o),
(621,575,c),
(621,629,l),
(545,699,o),
(442,715,o),
(370,715,cs),
(164,715,o),
(43,585,o),
(43,355,cs),
(43,126,o),
(164,-16,o),
(359,-16,cs)
);
}
);
width = 718;
},
{
associatedMasterId = m002;
layerId = "36CD5632-37EF-4EF7-BF93-2FF450FF8A71";
name = "26 Apr 25 at 00:16";
shapes = (
{
closed = 1;
nodes = (
(544,-16,o),
(655,124,o),
(655,361,cs),
(655,382,l),
(336,382,l),
(336,344,l),
(637,344,l),
(613,363,l),
(620,155,o),
(525,22,o),
(349,22,cs),
(179,22,o),
(87,146,o),
(87,355,cs),
(87,558,o),
(175,677,o),
(355,677,cs),
(457,677,o),
(540,639,o),
(598,581,c),
(598,633,l),
(544,680,o),
(455,715,o),
(355,715,cs),
(158,715,o),
(43,578,o),
(43,355,cs),
(43,136,o),
(152,-16,o),
(349,-16,cs)
);
}
);
width = 698;
},
{
associatedMasterId = m002;
background = {
shapes = (
{
ref = C;
}
);
};
layerId = "73B6487A-3107-4349-AA57-A9EBE418C8CE";
name = "19 Dec 25 at 16:28";
shapes = (
{
closed = 1;
nodes = (
(496,-16,o),
(577,15,o),
(632,75,c),
(632,362,l),
(385,362,l),
(385,310,l),
(599,310,l),
(576,343,l),
(576,108,l),
(533,61,o),
(481,36,o),
(394,36,cs),
(227,36,o),
(100,151,o),
(100,355,cs),
(100,553,o),
(214,663,o),
(390,663,cs),
(487,663,o),
(566,621,o),
(620,571,c),
(620,641,l),
(582,674,o),
(493,715,o),
(394,715,cs),
(187,715,o),
(42,578,o),
(42,355,cs),
(42,136,o),
(187,-16,o),
(394,-16,cs)
);
}
);
width = 666;
},
{
associatedMasterId = m002;
background = {
shapes = (
{
ref = C;
}
);
};
layerId = "2152BA30-3ABC-46B0-83F6-444C294BC68C";
name = "14 Jan 26 at 01:38";
shapes = (
{
closed = 1;
nodes = (
(496,-16,o),
(577,15,o),
(632,75,c),
(632,362,l),
(385,362,l),
(385,310,l),
(599,310,l),
(576,343,l),
(576,94,l),
(539,61,o),
(481,36,o),
(394,36,cs),
(227,36,o),
(100,151,o),
(100,355,cs),
(100,553,o),
(214,663,o),
(390,663,cs),
(487,663,o),
(561,623,o),
(615,587,c),
(615,641,l),
(577,668,o),
(493,715,o),
(394,715,cs),
(187,715,o),
(42,578,o),
(42,355,cs),
(42,136,o),
(187,-16,o),
(394,-16,cs)
);
}
);
width = 666;
},
{
background = {
shapes = (
{
ref = C;
}
);
};
layerId = m003;
shapes = (
{
closed = 1;
nodes = (
(587,660,l),
(549,683,o),
(477,715,o),
(381,715,cs),
(171,715,o),
(42,585,o),
(42,355,cs),
(42,136,o),
(187,-16,o),
(394,-16,cs),
(496,-16,o),
(577,15,o),
(632,75,c),
(632,362,l),
(385,362,l),
(385,310,l),
(599,310,l),
(576,343,l),
(576,94,l),
(539,61,o),
(481,36,o),
(394,36,cs),
(227,36,o),
(100,151,o),
(100,355,cs),
(100,559,o),
(216,663,o),
(369,663,cs),
(464,663,o),
(529,635,o),
(573,609,c)
);
}
);
width = 666;
},
{
associatedMasterId = m003;
background = {
shapes = (
{
closed = 1;
nodes = (
(556,-16,o),
(675,126,o),
(675,355,cs),
(675,585,o),
(556,715,o),
(350,715,cs),
(278,715,o),
(165,699,o),
(89,629,c),
(89,575,l),
(167,659,o),
(272,677,o),
(346,677,cs),
(530,677,o),
(631,565,o),
(631,355,cs),
(631,144,o),
(530,22,o),
(362,22,cs),
(187,22,o),
(76,156,o),
(83,363,c),
(63,344,l),
(341,344,l),
(341,382,l),
(45,382,l),
(45,361,ls),
(45,125,o),
(167,-16,o),
(361,-16,cs)
);
}
);
};
layerId = "855CA3C0-D0A4-4451-88CD-34B7071C0CFD";
name = "9 Dec 24 at 14:58";
shapes = (
{
closed = 1;
nodes = (
(553,-16,o),
(675,125,o),
(675,361,cs),
(675,382,l),
(359,382,l),
(359,344,l),
(657,344,l),
(633,363,l),
(640,156,o),
(533,22,o),
(358,22,cs),
(190,22,o),
(87,144,o),
(87,355,cs),
(87,565,o),
(190,677,o),
(374,677,cs),
(448,677,o),
(543,659,o),
(621,575,c),
(621,629,l),
(545,699,o),
(442,715,o),
(370,715,cs),
(164,715,o),
(43,585,o),
(43,355,cs),
(43,126,o),
(164,-16,o),
(359,-16,cs)
);
}
);
width = 718;
},
{
associatedMasterId = m003;
layerId = "8A2B1C9D-A7D3-4BF5-A3F5-9270EEAE9FBA";
name = "26 Apr 25 at 00:16";
shapes = (
{
closed = 1;
nodes = (
(544,-16,o),
(655,124,o),
(655,361,cs),
(655,382,l),
(336,382,l),
(336,344,l),
(637,344,l),
(613,363,l),
(620,155,o),
(525,22,o),
(349,22,cs),
(179,22,o),
(87,146,o),
(87,355,cs),
(87,558,o),
(175,677,o),
(355,677,cs),
(457,677,o),
(540,639,o),
(598,581,c),
(598,633,l),
(544,680,o),
(455,715,o),
(355,715,cs),
(158,715,o),
(43,578,o),
(43,355,cs),
(43,136,o),
(152,-16,o),
(349,-16,cs)
);
}
);
width = 698;
},
{
associatedMasterId = m003;
background = {
shapes = (
{
ref = C;
}
);
};
layerId = "FC55F3C3-CE14-409C-A132-ECA1347865B5";
name = "19 Dec 25 at 16:28";
shapes = (
{
closed = 1;
nodes = (
(496,-16,o),
(577,15,o),
(632,75,c),
(632,362,l),
(385,362,l),
(385,310,l),
(599,310,l),
(576,343,l),
(576,108,l),
(533,61,o),
(481,36,o),
(394,36,cs),
(227,36,o),
(100,151,o),
(100,355,cs),
(100,553,o),
(214,663,o),
(390,663,cs),
(487,663,o),
(566,621,o),
(620,571,c),
(620,641,l),
(582,674,o),
(493,715,o),
(394,715,cs),
(187,715,o),
(42,578,o),
(42,355,cs),
(42,136,o),
(187,-16,o),
(394,-16,cs)
);
}
);
width = 666;
},
{
associatedMasterId = m003;
background = {
shapes = (
{
ref = C;
}
);
};
layerId = "0009547B-258B-468D-98C9-316D5945E796";
name = "14 Jan 26 at 01:38";
shapes = (
{
closed = 1;
nodes = (
(496,-16,o),
(577,15,o),
(632,75,c),
(632,362,l),
(385,362,l),
(385,310,l),
(599,310,l),
(576,343,l),
(576,94,l),
(539,61,o),
(481,36,o),
(394,36,cs),
(227,36,o),
(100,151,o),
(100,355,cs),
(100,553,o),
(214,663,o),
(390,663,cs),
(487,663,o),
(561,623,o),
(615,587,c),
(615,641,l),
(577,668,o),
(493,715,o),
(394,715,cs),
(187,715,o),
(42,578,o),
(42,355,cs),
(42,136,o),
(187,-16,o),
(394,-16,cs)
);
}
);
width = 666;
}
);
metricLeft = "=O";
unicode = 71;
},
{
glyphname = H;
kernLeft = H;
kernRight = H;
lastChange = "2026-01-19 05:32:55 +0000";
layers = (
{
hints = (
{
horizontal = 1;
origin = (0,11);
target = up;
type = BottomGhost;
},
{
horizontal = 1;
origin = (0,2);
target = (0,8);
type = Stem;
},
{
horizontal = 1;
origin = (0,10);
target = down;
type = TopGhost;
},
{
origin = (0,11);
target = (0,9);
type = Stem;
},
{
origin = (0,5);
target = (0,7);
type = Stem;
}
);
layerId = "257EBA85-25A6-4EFE-A653-BCCD9A912022";
shapes = (
{
closed = 1;
nodes = (
(137,0,l),
(137,370,l),
(583,370,l),
(583,0,l),
(640,0,l),
(640,700,l),
(583,700,l),
(583,422,l),
(137,422,l),
(137,700,l),
(80,700,l),
(80,0,l)
);
}
);
width = 720;
},
{
hints = (
{
horizontal = 1;
origin = (0,11);
target = up;
type = BottomGhost;
},
{
horizontal = 1;
origin = (0,2);
target = (0,8);
type = Stem;
},
{
horizontal = 1;
origin = (0,10);
target = down;
type = TopGhost;
},
{
origin = (0,11);
target = (0,9);
type = Stem;
},
{
origin = (0,5);
target = (0,7);
type = Stem;
}
);
layerId = m002;
shapes = (
{
closed = 1;
nodes = (
(296,0,l),
(296,266,l),
(416,266,l),
(416,0,l),
(652,0,l),
(652,700,l),
(416,700,l),
(416,466,l),
(296,466,l),
(296,700,l),
(60,700,l),
(60,0,l)
);
}
);
width = 682;
},
{
hints = (
{
horizontal = 1;
origin = (0,11);
target = up;
type = BottomGhost;
},
{
horizontal = 1;
origin = (0,2);
target = (0,8);
type = Stem;
},
{
horizontal = 1;
origin = (0,10);
target = down;
type = TopGhost;
},
{
origin = (0,11);
target = (0,9);
type = Stem;
},
{
origin = (0,5);
target = (0,7);
type = Stem;
}
);
layerId = m003;
shapes = (
{
closed = 1;
nodes = (
(212,0,l),
(212,318,l),
(508,318,l),
(508,0,l),
(640,0,l),
(640,700,l),
(508,700,l),
(508,442,l),
(212,442,l),
(212,700,l),
(80,700,l),
(80,0,l)
);
}
);
width = 720;
}
);
unicode = 72;
},
{
glyphname = I;
lastChange = "2026-01-19 05:31:20 +0000";
layers = (
{
anchors = (
{
name = top;
pos = (110,700);
}
);
layerId = "257EBA85-25A6-4EFE-A653-BCCD9A912022";
shapes = (
{
closed = 1;
nodes = (
(137,0,l),
(137,700,l),
(80,700,l),
(80,0,l)
);
}
);
width = 217;
},
{
anchors = (
{
name = top;
pos = (198,700);
}
);
layerId = m002;
shapes = (
{
closed = 1;
nodes = (
(316,0,l),
(316,700,l),
(80,700,l),
(80,0,l)
);
}
);
width = 396;
},
{
anchors = (
{
name = top;
pos = (147,700);
}
);
layerId = m003;
shapes = (
{
closed = 1;
nodes = (
(212,0,l),
(212,700,l),
(80,700,l),
(80,0,l)
);
}
);
width = 292;
}
);
metricLeft = "=H";
metricRight = "=H";
unicode = 73;
},
{
glyphname = J;
lastChange = "2026-01-14 12:47:55 +0000";
layers = (
{
layerId = "257EBA85-25A6-4EFE-A653-BCCD9A912022";
shapes = (
{
closed = 1;
nodes = (
(69,-5,o),
(98,0,o),
(125,13,cs),
(180,38,o),
(210,104,o),
(210,250,cs),
(210,700,l),
(153,700,l),
(153,231,ls),
(153,149,o),
(140,75,o),
(84,57,cs),
(68,52,o),
(51,53,o),
(37,55,c),
(25,0,l)
);
}
);
width = 290;
},
{
associatedMasterId = "257EBA85-25A6-4EFE-A653-BCCD9A912022";
layerId = "0EA3E67F-193B-47DE-9547-B92BBAFCD061";
name = "9 Dec 24 at 17:05";
shapes = (
{
closed = 1;
nodes = (
(-61,-133,l),
(72,-143,o),
(180,-92,o),
(180,89,cs),
(180,700,l),
(138,700,l),
(138,89,ls),
(138,-95,o),
(18,-98,o),
(-51,-96,c),
(-30,-51,l),
(-30,-179,l)
);
}
);
width = 279;
},
{
layerId = m002;
shapes = (
{
closed = 1;
nodes = (
(69,-5,o),
(98,0,o),
(125,13,cs),
(180,38,o),
(210,104,o),
(210,250,cs),
(210,700,l),
(153,700,l),
(153,231,ls),
(153,149,o),
(140,75,o),
(84,57,cs),
(68,52,o),
(51,53,o),
(37,55,c),
(25,0,l)
);
}
);
width = 290;
},
{
associatedMasterId = m002;
layerId = "6599848F-26D9-4378-B078-6EE8F86678E3";
name = "9 Dec 24 at 17:05";
shapes = (
{
closed = 1;
nodes = (
(-61,-133,l),
(72,-143,o),
(180,-92,o),
(180,89,cs),
(180,700,l),
(138,700,l),
(138,89,ls),
(138,-95,o),
(18,-98,o),
(-51,-96,c),
(-30,-51,l),
(-30,-179,l)
);
}
);
width = 279;
},
{
layerId = m003;
shapes = (
{
closed = 1;
nodes = (
(69,-5,o),
(98,0,o),
(125,13,cs),
(180,38,o),
(210,104,o),
(210,250,cs),
(210,700,l),
(153,700,l),
(153,231,ls),
(153,149,o),
(140,75,o),
(84,57,cs),
(68,52,o),
(51,53,o),
(37,55,c),
(25,0,l)
);
}
);
width = 290;
},
{
associatedMasterId = m003;
layerId = "0A80D32B-2857-49A8-9458-5D53CF8CC45E";
name = "9 Dec 24 at 17:05";
shapes = (
{
closed = 1;
nodes = (
(-61,-133,l),
(72,-143,o),
(180,-92,o),
(180,89,cs),
(180,700,l),
(138,700,l),
(138,89,ls),
(138,-95,o),
(18,-98,o),
(-51,-96,c),
(-30,-51,l),
(-30,-179,l)
);
}
);
width = 279;
}
);
metricRight = "=H";
unicode = 74;
},
{
glyphname = K;
kernRight = K;
lastChange = "2026-01-14 12:47:55 +0000";
layers = (
{
layerId = "257EBA85-25A6-4EFE-A653-BCCD9A912022";
shapes = (
{
closed = 1;
nodes = (
(635,0,l),
(195,392,l),
(197,352,l),
(612,700,l),
(527,700,l),
(132,371,l),
(549,0,l)
);
},
{
closed = 1;
nodes = (
(137,0,l),
(137,700,l),
(80,700,l),
(80,0,l)
);
}
);
width = 679;
},
{
layerId = m002;
shapes = (
{
closed = 1;
nodes = (
(635,0,l),
(195,392,l),
(197,352,l),
(612,700,l),
(527,700,l),
(132,371,l),
(549,0,l)
);
},
{
closed = 1;
nodes = (
(137,0,l),
(137,700,l),
(80,700,l),
(80,0,l)
);
}
);
width = 679;
},
{
layerId = m003;
shapes = (
{
closed = 1;
nodes = (
(635,0,l),
(195,392,l),
(197,352,l),
(612,700,l),
(527,700,l),
(132,371,l),
(549,0,l)
);
},
{
closed = 1;
nodes = (
(137,0,l),
(137,700,l),
(80,700,l),
(80,0,l)
);
}
);
width = 679;
}
);
metricLeft = "=H";
metricRight = "=X";
unicode = 75;
},
{
glyphname = L;
kernRight = L;
lastChange = "2026-01-19 05:39:07 +0000";
layers = (
{
background = {
shapes = (
{
pos = (-10,0);
ref = F;
}
);
};
layerId = "257EBA85-25A6-4EFE-A653-BCCD9A912022";
shapes = (
{
closed = 1;
nodes = (
(490,0,l),
(490,52,l),
(107,52,l),
(137,24,l),
(137,700,l),
(80,700,l),
(80,0,l)
);
}
);
width = 515;
},
{
associatedMasterId = "257EBA85-25A6-4EFE-A653-BCCD9A912022";
layerId = "DB0EC58F-1FD2-49F6-9E9C-99EF144D62F0";
name = "10 Dec 24 at 17:29";
shapes = (
{
closed = 1;
nodes = (
(564,0,l),
(564,38,l),
(126,38,l),
(141,24,l),
(141,700,l),
(99,700,l),
(99,0,l)
);
}
);
width = 594;
},
{
background = {
shapes = (
{
pos = (1,0);
ref = E;
}
);
};
layerId = m002;
shapes = (
{
closed = 1;
nodes = (
(480,0,l),
(480,200,l),
(87,200,l),
(296,24,l),
(296,700,l),
(60,700,l),
(60,0,l)
);
}
);
width = 555;
},
{
associatedMasterId = m002;
layerId = "FD05DE56-DBC8-41C7-B8C6-1D0592152F2E";
name = "10 Dec 24 at 17:29";
shapes = (
{
closed = 1;
nodes = (
(564,0,l),
(564,38,l),
(126,38,l),
(141,24,l),
(141,700,l),
(99,700,l),
(99,0,l)
);
}
);
width = 594;
},
{
background = {
shapes = (
{
pos = (-10,0);
ref = F;
}
);
};
layerId = m003;
shapes = (
{
closed = 1;
nodes = (
(490,0,l),
(490,124,l),
(107,124,l),
(212,24,l),
(212,700,l),
(80,700,l),
(80,0,l)
);
}
);
width = 515;
},
{
associatedMasterId = m003;
layerId = "D4C38364-4B06-4A2B-A7F9-191AD77FACFA";
name = "10 Dec 24 at 17:29";
shapes = (
{
closed = 1;
nodes = (
(564,0,l),
(564,38,l),
(126,38,l),
(141,24,l),
(141,700,l),
(99,700,l),
(99,0,l)
);
}
);
width = 594;
}
);
metricLeft = "=H";
unicode = 76;
},
{
glyphname = M;
lastChange = "2026-01-14 12:47:55 +0000";
layers = (
{
background = {
shapes = (
{
pos = (25,0);
ref = H;
}
);
};
guides = (
{
pos = (446,193);
showMeasurement = 1;
}
);
layerId = "257EBA85-25A6-4EFE-A653-BCCD9A912022";
shapes = (
{
closed = 1;
nodes = (
(137,0,l),
(137,681,l),
(104,652,l),
(403,297,l),
(409,297,l),
(696,645,l),
(667,674,l),
(667,0,l),
(724,0,l),
(724,700,l),
(677,700,l),
(387,348,l),
(425,349,l),
(129,700,l),
(80,700,l),
(80,0,l)
);
}
);
width = 804;
},
{
associatedMasterId = "257EBA85-25A6-4EFE-A653-BCCD9A912022";
layerId = "D6847DAA-DE01-4995-B907-41285B28EF23";
name = "16 Oct 24 at 23:23";
shapes = (
{
closed = 1;
nodes = (
(141,0,l),
(141,689,l),
(127,691,l),
(405,300,l),
(684,696,l),
(667,688,l),
(667,0,l),
(709,0,l),
(709,700,l),
(644,700,l),
(399,356,l),
(414,359,l),
(172,700,l),
(99,700,l),
(99,0,l)
);
}
);
width = 808;
},
{
associatedMasterId = "257EBA85-25A6-4EFE-A653-BCCD9A912022";
layerId = "B81168DC-79C8-4D79-8085-3E0AF272561F";
name = "10 Dec 24 at 17:29";
shapes = (
{
closed = 1;
nodes = (
(141,0,l),
(141,699,l),
(124,696,l),
(411,0,l),
(437,0,l),
(724,696,l),
(707,699,l),
(707,0,l),
(749,0,l),
(749,700,l),
(684,700,l),
(419,56,l),
(430,56,l),
(167,700,l),
(99,700,l),
(99,0,l)
);
}
);
width = 848;
},
{
associatedMasterId = "257EBA85-25A6-4EFE-A653-BCCD9A912022";
background = {
shapes = (
{
pos = (20,0);
ref = W;
}
);
};
layerId = "5830EEBA-3AAA-41DF-A53C-490D1E82DDA3";
name = "25 Apr 25 at 23:35";
shapes = (
{
closed = 1;
nodes = (
(141,0,l),
(141,699,l),
(124,696,l),
(431,0,l),
(457,0,l),
(764,696,l),
(747,699,l),
(747,0,l),
(789,0,l),
(789,700,l),
(724,700,l),
(439,56,l),
(450,56,l),
(167,700,l),
(99,700,l),
(99,0,l)
);
}
);
width = 888;
},
{
background = {
shapes = (
{
pos = (25,0);
ref = H;
}
);
};
guides = (
{
pos = (446,193);
showMeasurement = 1;
}
);
layerId = m002;
shapes = (
{
closed = 1;
nodes = (
(137,0,l),
(137,681,l),
(104,652,l),
(403,297,l),
(409,297,l),
(696,645,l),
(667,674,l),
(667,0,l),
(724,0,l),
(724,700,l),
(677,700,l),
(387,348,l),
(425,349,l),
(129,700,l),
(80,700,l),
(80,0,l)
);
}
);
width = 804;
},
{
associatedMasterId = m002;
layerId = "00CD7F4C-C011-494E-9446-E43D5DDF9693";
name = "16 Oct 24 at 23:23";
shapes = (
{
closed = 1;
nodes = (
(141,0,l),
(141,689,l),
(127,691,l),
(405,300,l),
(684,696,l),
(667,688,l),
(667,0,l),
(709,0,l),
(709,700,l),
(644,700,l),
(399,356,l),
(414,359,l),
(172,700,l),
(99,700,l),
(99,0,l)
);
}
);
width = 808;
},
{
associatedMasterId = m002;
layerId = "F27AAA50-48AD-42EC-B653-1D4E9E972DD6";
name = "10 Dec 24 at 17:29";
shapes = (
{
closed = 1;
nodes = (
(141,0,l),
(141,699,l),
(124,696,l),
(411,0,l),
(437,0,l),
(724,696,l),
(707,699,l),
(707,0,l),
(749,0,l),
(749,700,l),
(684,700,l),
(419,56,l),
(430,56,l),
(167,700,l),
(99,700,l),
(99,0,l)
);
}
);
width = 848;
},
{
associatedMasterId = m002;
background = {
shapes = (
{
pos = (20,0);
ref = W;
}
);
};
layerId = "07B7A6DB-E2BF-48B0-AC1E-9FB66CE7B5A8";
name = "25 Apr 25 at 23:35";
shapes = (
{
closed = 1;
nodes = (
(141,0,l),
(141,699,l),
(124,696,l),
(431,0,l),
(457,0,l),
(764,696,l),
(747,699,l),
(747,0,l),
(789,0,l),
(789,700,l),
(724,700,l),
(439,56,l),
(450,56,l),
(167,700,l),
(99,700,l),
(99,0,l)
);
}
);
width = 888;
},
{
background = {
shapes = (
{
pos = (25,0);
ref = H;
}
);
};
guides = (
{
pos = (446,193);
showMeasurement = 1;
}
);
layerId = m003;
shapes = (
{
closed = 1;
nodes = (
(137,0,l),
(137,681,l),
(104,652,l),
(403,297,l),
(409,297,l),
(696,645,l),
(667,674,l),
(667,0,l),
(724,0,l),
(724,700,l),
(677,700,l),
(387,348,l),
(425,349,l),
(129,700,l),
(80,700,l),
(80,0,l)
);
}
);
width = 804;
},
{
associatedMasterId = m003;
layerId = "CAEA5BF8-339D-4EE3-AEDE-89C69303AB98";
name = "16 Oct 24 at 23:23";
shapes = (
{
closed = 1;
nodes = (
(141,0,l),
(141,689,l),
(127,691,l),
(405,300,l),
(684,696,l),
(667,688,l),
(667,0,l),
(709,0,l),
(709,700,l),
(644,700,l),
(399,356,l),
(414,359,l),
(172,700,l),
(99,700,l),
(99,0,l)
);
}
);
width = 808;
},
{
associatedMasterId = m003;
layerId = "BBEF776A-ECC1-4916-9942-CBCB2D9543F3";
name = "10 Dec 24 at 17:29";
shapes = (
{
closed = 1;
nodes = (
(141,0,l),
(141,699,l),
(124,696,l),
(411,0,l),
(437,0,l),
(724,696,l),
(707,699,l),
(707,0,l),
(749,0,l),
(749,700,l),
(684,700,l),
(419,56,l),
(430,56,l),
(167,700,l),
(99,700,l),
(99,0,l)
);
}
);
width = 848;
},
{
associatedMasterId = m003;
background = {
shapes = (
{
pos = (20,0);
ref = W;
}
);
};
layerId = "FF8AAA9A-C563-4E34-B372-F163F22AE328";
name = "25 Apr 25 at 23:35";
shapes = (
{
closed = 1;
nodes = (
(141,0,l),
(141,699,l),
(124,696,l),
(431,0,l),
(457,0,l),
(764,696,l),
(747,699,l),
(747,0,l),
(789,0,l),
(789,700,l),
(724,700,l),
(439,56,l),
(450,56,l),
(167,700,l),
(99,700,l),
(99,0,l)
);
}
);
width = 888;
}
);
metricLeft = "=H";
metricRight = "=H";
unicode = 77;
},
{
glyphname = N;
lastChange = "2026-01-14 12:47:55 +0000";
layers = (
{
layerId = "257EBA85-25A6-4EFE-A653-BCCD9A912022";
shapes = (
{
closed = 1;
nodes = (
(137,0,l),
(137,682,l),
(115,634,l),
(639,-16,l),
(696,-16,l),
(696,700,l),
(639,700,l),
(639,24,l),
(662,50,l),
(137,700,l),
(80,700,l),
(80,0,l)
);
}
);
width = 776;
},
{
associatedMasterId = "257EBA85-25A6-4EFE-A653-BCCD9A912022";
layerId = "D5C31ACD-26DC-4200-9C9D-EE75B48833C9";
name = "10 Dec 24 at 17:29";
shapes = (
{
closed = 1;
nodes = (
(141,0,l),
(141,662,l),
(120,660,l),
(612,0,l),
(659,0,l),
(659,700,l),
(617,700,l),
(617,38,l),
(638,38,l),
(145,700,l),
(99,700,l),
(99,0,l)
);
}
);
width = 758;
},
{
layerId = m002;
shapes = (
{
closed = 1;
nodes = (
(137,0,l),
(137,682,l),
(115,634,l),
(639,-16,l),
(696,-16,l),
(696,700,l),
(639,700,l),
(639,24,l),
(662,50,l),
(137,700,l),
(80,700,l),
(80,0,l)
);
}
);
width = 776;
},
{
associatedMasterId = m002;
layerId = "44E8B16B-E8FF-4BB3-AF37-39D1B8065F18";
name = "10 Dec 24 at 17:29";
shapes = (
{
closed = 1;
nodes = (
(141,0,l),
(141,662,l),
(120,660,l),
(612,0,l),
(659,0,l),
(659,700,l),
(617,700,l),
(617,38,l),
(638,38,l),
(145,700,l),
(99,700,l),
(99,0,l)
);
}
);
width = 758;
},
{
layerId = m003;
shapes = (
{
closed = 1;
nodes = (
(137,0,l),
(137,682,l),
(115,634,l),
(639,-16,l),
(696,-16,l),
(696,700,l),
(639,700,l),
(639,24,l),
(662,50,l),
(137,700,l),
(80,700,l),
(80,0,l)
);
}
);
width = 776;
},
{
associatedMasterId = m003;
layerId = "D96F0279-FBC4-47BF-A7E8-1DC7A32EC6DD";
name = "10 Dec 24 at 17:29";
shapes = (
{
closed = 1;
nodes = (
(141,0,l),
(141,662,l),
(120,660,l),
(612,0,l),
(659,0,l),
(659,700,l),
(617,700,l),
(617,38,l),
(638,38,l),
(145,700,l),
(99,700,l),
(99,0,l)
);
}
);
width = 758;
}
);
metricLeft = "=H";
metricRight = "=H";
unicode = 78;
},
{
glyphname = O;
kernLeft = O;
kernRight = O;
lastChange = "2026-01-19 08:31:44 +0000";
layers = (
{
anchors = (
{
name = top;
pos = (382,700);
}
);
layerId = "257EBA85-25A6-4EFE-A653-BCCD9A912022";
shapes = (
{
closed = 1;
nodes = (
(591,-16,o),
(722,127,o),
(722,355,cs),
(722,576,o),
(591,715,o),
(382,715,cs),
(173,715,o),
(42,576,o),
(42,355,cs),
(42,127,o),
(173,-16,o),
(382,-16,cs)
);
},
{
closed = 1;
nodes = (
(209,36,o),
(100,159,o),
(100,355,cs),
(100,544,o),
(209,663,o),
(382,663,cs),
(555,663,o),
(664,544,o),
(664,355,cs),
(664,159,o),
(555,36,o),
(382,36,cs)
);
}
);
width = 764;
},
{
anchors = (
{
name = top;
pos = (370,700);
}
);
layerId = m002;
shapes = (
{
closed = 1;
nodes = (
(582,-16,o),
(700,117,o),
(700,355,cs),
(700,586,o),
(582,715,o),
(370,715,cs),
(158,715,o),
(40,586,o),
(40,355,cs),
(40,117,o),
(158,-16,o),
(370,-16,cs)
);
},
{
closed = 1;
nodes = (
(311,184,o),
(278,245,o),
(278,355,cs),
(278,458,o),
(311,515,o),
(370,515,cs),
(429,515,o),
(462,458,o),
(462,355,cs),
(462,245,o),
(429,184,o),
(370,184,cs)
);
}
);
width = 740;
},
{
anchors = (
{
name = top;
pos = (382,700);
}
);
layerId = m003;
shapes = (
{
closed = 1;
nodes = (
(591,-16,o),
(722,127,o),
(722,355,cs),
(722,576,o),
(591,715,o),
(382,715,cs),
(173,715,o),
(42,576,o),
(42,355,cs),
(42,127,o),
(173,-16,o),
(382,-16,cs)
);
},
{
closed = 1;
nodes = (
(255,108,o),
(175,204,o),
(175,355,cs),
(175,499,o),
(255,591,o),
(382,591,cs),
(509,591,o),
(589,499,o),
(589,355,cs),
(589,204,o),
(509,108,o),
(382,108,cs)
);
}
);
width = 764;
}
);
unicode = 79;
},
{
glyphname = P;
kernRight = P;
lastChange = "2026-01-14 12:47:55 +0000";
layers = (
{
layerId = "257EBA85-25A6-4EFE-A653-BCCD9A912022";
shapes = (
{
closed = 1;
nodes = (
(137,0,l),
(137,293,l),
(257,293,ls),
(411,293,o),
(500,377,o),
(500,506,cs),
(500,642,o),
(401,700,o),
(266,700,cs),
(80,700,l),
(80,0,l)
);
},
{
closed = 1;
nodes = (
(137,648,l),
(267,648,ls),
(379,648,o),
(442,611,o),
(442,504,cs),
(442,405,o),
(389,345,o),
(260,345,cs),
(137,345,l)
);
}
);
width = 542;
},
{
associatedMasterId = "257EBA85-25A6-4EFE-A653-BCCD9A912022";
layerId = "D06FE613-E9F6-4B2C-B354-03ED59DF05EC";
name = "22 Oct 25 at 14:31";
shapes = (
{
closed = 1;
nodes = (
(92,0,l),
(92,276,l),
(223,276,ls),
(377,276,o),
(466,369,o),
(466,498,cs),
(466,634,o),
(367,700,o),
(232,700,cs),
(50,700,l),
(50,0,l)
);
},
{
closed = 1;
nodes = (
(92,662,l),
(233,662,ls),
(345,662,o),
(422,608,o),
(422,496,cs),
(422,391,o),
(355,314,o),
(226,314,cs),
(92,314,l)
);
}
);
width = 509;
},
{
layerId = m002;
shapes = (
{
closed = 1;
nodes = (
(137,0,l),
(137,293,l),
(257,293,ls),
(411,293,o),
(500,377,o),
(500,506,cs),
(500,642,o),
(401,700,o),
(266,700,cs),
(80,700,l),
(80,0,l)
);
},
{
closed = 1;
nodes = (
(137,648,l),
(267,648,ls),
(379,648,o),
(442,611,o),
(442,504,cs),
(442,405,o),
(389,345,o),
(260,345,cs),
(137,345,l)
);
}
);
width = 542;
},
{
associatedMasterId = m002;
layerId = "2B229860-34BF-45F6-BF39-B223B3DF4B45";
name = "22 Oct 25 at 14:31";
shapes = (
{
closed = 1;
nodes = (
(92,0,l),
(92,276,l),
(223,276,ls),
(377,276,o),
(466,369,o),
(466,498,cs),
(466,634,o),
(367,700,o),
(232,700,cs),
(50,700,l),
(50,0,l)
);
},
{
closed = 1;
nodes = (
(92,662,l),
(233,662,ls),
(345,662,o),
(422,608,o),
(422,496,cs),
(422,391,o),
(355,314,o),
(226,314,cs),
(92,314,l)
);
}
);
width = 509;
},
{
layerId = m003;
shapes = (
{
closed = 1;
nodes = (
(137,0,l),
(137,293,l),
(257,293,ls),
(411,293,o),
(500,377,o),
(500,506,cs),
(500,642,o),
(401,700,o),
(266,700,cs),
(80,700,l),
(80,0,l)
);
},
{
closed = 1;
nodes = (
(137,648,l),
(267,648,ls),
(379,648,o),
(442,611,o),
(442,504,cs),
(442,405,o),
(389,345,o),
(260,345,cs),
(137,345,l)
);
}
);
width = 542;
},
{
associatedMasterId = m003;
layerId = "78DF853F-05C7-4713-87C9-8F56EAB78920";
name = "22 Oct 25 at 14:31";
shapes = (
{
closed = 1;
nodes = (
(92,0,l),
(92,276,l),
(223,276,ls),
(377,276,o),
(466,369,o),
(466,498,cs),
(466,634,o),
(367,700,o),
(232,700,cs),
(50,700,l),
(50,0,l)
);
},
{
closed = 1;
nodes = (
(92,662,l),
(233,662,ls),
(345,662,o),
(422,608,o),
(422,496,cs),
(422,391,o),
(355,314,o),
(226,314,cs),
(92,314,l)
);
}
);
width = 509;
}
);
metricLeft = "=N";
metricRight = "=O";
unicode = 80;
},
{
glyphname = Q;
kernLeft = O;
kernRight = O;
lastChange = "2026-01-14 12:47:55 +0000";
layers = (
{
anchors = (
{
name = top;
pos = (382,700);
}
);
layerId = "257EBA85-25A6-4EFE-A653-BCCD9A912022";
shapes = (
{
closed = 1;
nodes = (
(670,-52,l),
(364,22,l),
(324,-10,l),
(654,-105,l)
);
},
{
closed = 1;
nodes = (
(591,-16,o),
(722,127,o),
(722,355,cs),
(722,576,o),
(591,715,o),
(382,715,cs),
(173,715,o),
(42,576,o),
(42,355,cs),
(42,127,o),
(173,-16,o),
(382,-16,cs)
);
},
{
closed = 1;
nodes = (
(209,36,o),
(100,159,o),
(100,355,cs),
(100,544,o),
(209,663,o),
(382,663,cs),
(555,663,o),
(664,544,o),
(664,355,cs),
(664,159,o),
(555,36,o),
(382,36,cs)
);
}
);
width = 764;
},
{
associatedMasterId = "257EBA85-25A6-4EFE-A653-BCCD9A912022";
layerId = "E0B1BA08-FD57-493C-92AC-EB9E3B12FD4F";
name = "12 Dec 24 at 12:35";
shapes = (
{
closed = 1;
nodes = (
(545,-16,o),
(657,126,o),
(657,355,cs),
(657,584,o),
(545,715,o),
(350,715,cs),
(155,715,o),
(43,584,o),
(43,355,cs),
(43,126,o),
(155,-16,o),
(350,-16,cs)
);
},
{
closed = 1;
nodes = (
(448,-155,l),
(359,-2,l),
(311,-2,l),
(400,-155,l)
);
},
{
closed = 1;
nodes = (
(181,22,o),
(87,144,o),
(87,355,cs),
(87,566,o),
(181,677,o),
(350,677,cs),
(519,677,o),
(613,566,o),
(613,355,cs),
(613,144,o),
(519,22,o),
(350,22,cs)
);
}
);
width = 700;
},
{
anchors = (
{
name = top;
pos = (382,700);
}
);
layerId = m002;
shapes = (
{
closed = 1;
nodes = (
(670,-52,l),
(364,22,l),
(324,-10,l),
(654,-105,l)
);
},
{
closed = 1;
nodes = (
(591,-16,o),
(722,127,o),
(722,355,cs),
(722,576,o),
(591,715,o),
(382,715,cs),
(173,715,o),
(42,576,o),
(42,355,cs),
(42,127,o),
(173,-16,o),
(382,-16,cs)
);
},
{
closed = 1;
nodes = (
(209,36,o),
(100,159,o),
(100,355,cs),
(100,544,o),
(209,663,o),
(382,663,cs),
(555,663,o),
(664,544,o),
(664,355,cs),
(664,159,o),
(555,36,o),
(382,36,cs)
);
}
);
width = 764;
},
{
associatedMasterId = m002;
layerId = "0D4875F4-9D57-4337-A206-1632575D7BEE";
name = "12 Dec 24 at 12:35";
shapes = (
{
closed = 1;
nodes = (
(545,-16,o),
(657,126,o),
(657,355,cs),
(657,584,o),
(545,715,o),
(350,715,cs),
(155,715,o),
(43,584,o),
(43,355,cs),
(43,126,o),
(155,-16,o),
(350,-16,cs)
);
},
{
closed = 1;
nodes = (
(448,-155,l),
(359,-2,l),
(311,-2,l),
(400,-155,l)
);
},
{
closed = 1;
nodes = (
(181,22,o),
(87,144,o),
(87,355,cs),
(87,566,o),
(181,677,o),
(350,677,cs),
(519,677,o),
(613,566,o),
(613,355,cs),
(613,144,o),
(519,22,o),
(350,22,cs)
);
}
);
width = 700;
},
{
anchors = (
{
name = top;
pos = (382,700);
}
);
layerId = m003;
shapes = (
{
closed = 1;
nodes = (
(670,-52,l),
(364,22,l),
(324,-10,l),
(654,-105,l)
);
},
{
closed = 1;
nodes = (
(591,-16,o),
(722,127,o),
(722,355,cs),
(722,576,o),
(591,715,o),
(382,715,cs),
(173,715,o),
(42,576,o),
(42,355,cs),
(42,127,o),
(173,-16,o),
(382,-16,cs)
);
},
{
closed = 1;
nodes = (
(209,36,o),
(100,159,o),
(100,355,cs),
(100,544,o),
(209,663,o),
(382,663,cs),
(555,663,o),
(664,544,o),
(664,355,cs),
(664,159,o),
(555,36,o),
(382,36,cs)
);
}
);
width = 764;
},
{
associatedMasterId = m003;
layerId = "21870053-948D-4C24-B435-B4CB13661894";
name = "12 Dec 24 at 12:35";
shapes = (
{
closed = 1;
nodes = (
(545,-16,o),
(657,126,o),
(657,355,cs),
(657,584,o),
(545,715,o),
(350,715,cs),
(155,715,o),
(43,584,o),
(43,355,cs),
(43,126,o),
(155,-16,o),
(350,-16,cs)
);
},
{
closed = 1;
nodes = (
(448,-155,l),
(359,-2,l),
(311,-2,l),
(400,-155,l)
);
},
{
closed = 1;
nodes = (
(181,22,o),
(87,144,o),
(87,355,cs),
(87,566,o),
(181,677,o),
(350,677,cs),
(519,677,o),
(613,566,o),
(613,355,cs),
(613,144,o),
(519,22,o),
(350,22,cs)
);
}
);
width = 700;
}
);
metricLeft = "=O";
metricRight = "=O";
unicode = 81;
},
{
glyphname = R;
kernRight = P;
lastChange = "2026-01-14 12:47:55 +0000";
layers = (
{
layerId = "257EBA85-25A6-4EFE-A653-BCCD9A912022";
shapes = (
{
closed = 1;
nodes = (
(137,0,l),
(137,313,l),
(227,313,ls),
(371,313,o),
(470,369,o),
(470,502,cs),
(470,634,o),
(371,700,o),
(236,700,cs),
(80,700,l),
(80,0,l)
);
},
{
closed = 1;
nodes = (
(546,0,l),
(283,337,l),
(231,322,l),
(482,0,l)
);
},
{
closed = 1;
nodes = (
(137,648,l),
(237,648,ls),
(349,648,o),
(412,608,o),
(412,499,cs),
(412,391,o),
(340,365,o),
(230,365,cs),
(137,365,l)
);
}
);
width = 571;
},
{
layerId = m002;
shapes = (
{
closed = 1;
nodes = (
(137,0,l),
(137,313,l),
(227,313,ls),
(371,313,o),
(470,369,o),
(470,502,cs),
(470,634,o),
(371,700,o),
(236,700,cs),
(80,700,l),
(80,0,l)
);
},
{
closed = 1;
nodes = (
(546,0,l),
(283,337,l),
(231,322,l),
(482,0,l)
);
},
{
closed = 1;
nodes = (
(137,648,l),
(237,648,ls),
(349,648,o),
(412,608,o),
(412,499,cs),
(412,391,o),
(340,365,o),
(230,365,cs),
(137,365,l)
);
}
);
width = 571;
},
{
layerId = m003;
shapes = (
{
closed = 1;
nodes = (
(137,0,l),
(137,313,l),
(227,313,ls),
(371,313,o),
(470,369,o),
(470,502,cs),
(470,634,o),
(371,700,o),
(236,700,cs),
(80,700,l),
(80,0,l)
);
},
{
closed = 1;
nodes = (
(546,0,l),
(283,337,l),
(231,322,l),
(482,0,l)
);
},
{
closed = 1;
nodes = (
(137,648,l),
(237,648,ls),
(349,648,o),
(412,608,o),
(412,499,cs),
(412,391,o),
(340,365,o),
(230,365,cs),
(137,365,l)
);
}
);
width = 571;
}
);
metricLeft = "=H";
unicode = 82;
},
{
glyphname = S;
lastChange = "2026-01-14 12:47:55 +0000";
layers = (
{
background = {
shapes = (
{
ref = s;
}
);
};
layerId = "257EBA85-25A6-4EFE-A653-BCCD9A912022";
shapes = (
{
closed = 1;
nodes = (
(361,675,l),
(324,699,o),
(278,715,o),
(211,715,cs),
(124,715,o),
(41,659,o),
(41,548,cs),
(41,350,o),
(328,361,o),
(328,177,cs),
(328,96,o),
(285,37,o),
(193,37,cs),
(129,37,o),
(77,58,o),
(42,82,c),
(19,25,l),
(61,-1,o),
(114,-16,o),
(188,-16,cs),
(320,-16,o),
(386,80,o),
(386,182,cs),
(386,404,o),
(99,389,o),
(99,552,cs),
(99,633,o),
(141,665,o),
(208,665,cs),
(267,665,o),
(312,646,o),
(347,622,c)
);
}
);
width = 394;
},
{
associatedMasterId = "257EBA85-25A6-4EFE-A653-BCCD9A912022";
layerId = "257E3907-24BF-494B-9085-C8E94ECA6B36";
name = "12 Dec 24 at 12:36";
shapes = (
{
closed = 1;
nodes = (
(446,-16,o),
(517,90,o),
(517,192,cs),
(517,434,o),
(120,369,o),
(120,552,cs),
(120,633,o),
(197,677,o),
(294,677,cs),
(379,677,o),
(460,643,o),
(504,601,c),
(504,654,l),
(463,689,o),
(376,715,o),
(297,715,cs),
(180,715,o),
(78,659,o),
(78,548,cs),
(78,330,o),
(475,400,o),
(475,187,cs),
(475,106,o),
(418,22,o),
(263,22,cs),
(161,22,o),
(92,58,o),
(43,97,c),
(43,43,l),
(91,10,o),
(165,-16,o),
(258,-16,cs)
);
}
);
width = 567;
},
{
associatedMasterId = "257EBA85-25A6-4EFE-A653-BCCD9A912022";
layerId = "0ABE15A3-34E6-4E17-A35C-E80260B9A7C9";
name = "22 Oct 25 at 14:35";
shapes = (
{
closed = 1;
nodes = (
(446,-16,o),
(517,90,o),
(517,192,cs),
(517,434,o),
(106,369,o),
(106,552,cs),
(106,633,o),
(197,677,o),
(294,677,cs),
(379,677,o),
(460,643,o),
(504,601,c),
(504,654,l),
(463,689,o),
(376,715,o),
(297,715,cs),
(180,715,o),
(64,659,o),
(64,548,cs),
(64,330,o),
(475,400,o),
(475,187,cs),
(475,106,o),
(418,22,o),
(263,22,cs),
(161,22,o),
(92,58,o),
(43,97,c),
(43,43,l),
(91,10,o),
(165,-16,o),
(258,-16,cs)
);
}
);
width = 567;
},
{
background = {
shapes = (
{
ref = s;
}
);
};
layerId = m002;
shapes = (
{
closed = 1;
nodes = (
(361,675,l),
(324,699,o),
(278,715,o),
(211,715,cs),
(124,715,o),
(41,659,o),
(41,548,cs),
(41,350,o),
(328,361,o),
(328,177,cs),
(328,96,o),
(285,37,o),
(193,37,cs),
(129,37,o),
(77,58,o),
(42,82,c),
(19,25,l),
(61,-1,o),
(114,-16,o),
(188,-16,cs),
(320,-16,o),
(386,80,o),
(386,182,cs),
(386,404,o),
(99,389,o),
(99,552,cs),
(99,633,o),
(141,665,o),
(208,665,cs),
(267,665,o),
(312,646,o),
(347,622,c)
);
}
);
width = 394;
},
{
associatedMasterId = m002;
layerId = "B5F19091-2F76-4420-B72A-EA918B38902B";
name = "12 Dec 24 at 12:36";
shapes = (
{
closed = 1;
nodes = (
(446,-16,o),
(517,90,o),
(517,192,cs),
(517,434,o),
(120,369,o),
(120,552,cs),
(120,633,o),
(197,677,o),
(294,677,cs),
(379,677,o),
(460,643,o),
(504,601,c),
(504,654,l),
(463,689,o),
(376,715,o),
(297,715,cs),
(180,715,o),
(78,659,o),
(78,548,cs),
(78,330,o),
(475,400,o),
(475,187,cs),
(475,106,o),
(418,22,o),
(263,22,cs),
(161,22,o),
(92,58,o),
(43,97,c),
(43,43,l),
(91,10,o),
(165,-16,o),
(258,-16,cs)
);
}
);
width = 567;
},
{
associatedMasterId = m002;
layerId = "685CD98F-685D-4C19-81EF-E40CB1C14BE6";
name = "22 Oct 25 at 14:35";
shapes = (
{
closed = 1;
nodes = (
(446,-16,o),
(517,90,o),
(517,192,cs),
(517,434,o),
(106,369,o),
(106,552,cs),
(106,633,o),
(197,677,o),
(294,677,cs),
(379,677,o),
(460,643,o),
(504,601,c),
(504,654,l),
(463,689,o),
(376,715,o),
(297,715,cs),
(180,715,o),
(64,659,o),
(64,548,cs),
(64,330,o),
(475,400,o),
(475,187,cs),
(475,106,o),
(418,22,o),
(263,22,cs),
(161,22,o),
(92,58,o),
(43,97,c),
(43,43,l),
(91,10,o),
(165,-16,o),
(258,-16,cs)
);
}
);
width = 567;
},
{
background = {
shapes = (
{
ref = s;
}
);
};
layerId = m003;
shapes = (
{
closed = 1;
nodes = (
(361,675,l),
(324,699,o),
(278,715,o),
(211,715,cs),
(124,715,o),
(41,659,o),
(41,548,cs),
(41,350,o),
(328,361,o),
(328,177,cs),
(328,96,o),
(285,37,o),
(193,37,cs),
(129,37,o),
(77,58,o),
(42,82,c),
(19,25,l),
(61,-1,o),
(114,-16,o),
(188,-16,cs),
(320,-16,o),
(386,80,o),
(386,182,cs),
(386,404,o),
(99,389,o),
(99,552,cs),
(99,633,o),
(141,665,o),
(208,665,cs),
(267,665,o),
(312,646,o),
(347,622,c)
);
}
);
width = 394;
},
{
associatedMasterId = m003;
layerId = "FD2A92CE-51D3-416B-ABC8-E3E2F36CD328";
name = "12 Dec 24 at 12:36";
shapes = (
{
closed = 1;
nodes = (
(446,-16,o),
(517,90,o),
(517,192,cs),
(517,434,o),
(120,369,o),
(120,552,cs),
(120,633,o),
(197,677,o),
(294,677,cs),
(379,677,o),
(460,643,o),
(504,601,c),
(504,654,l),
(463,689,o),
(376,715,o),
(297,715,cs),
(180,715,o),
(78,659,o),
(78,548,cs),
(78,330,o),
(475,400,o),
(475,187,cs),
(475,106,o),
(418,22,o),
(263,22,cs),
(161,22,o),
(92,58,o),
(43,97,c),
(43,43,l),
(91,10,o),
(165,-16,o),
(258,-16,cs)
);
}
);
width = 567;
},
{
associatedMasterId = m003;
layerId = "0A38A861-9BC4-4EAC-BFC6-FF4F3AA33389";
name = "22 Oct 25 at 14:35";
shapes = (
{
closed = 1;
nodes = (
(446,-16,o),
(517,90,o),
(517,192,cs),
(517,434,o),
(106,369,o),
(106,552,cs),
(106,633,o),
(197,677,o),
(294,677,cs),
(379,677,o),
(460,643,o),
(504,601,c),
(504,654,l),
(463,689,o),
(376,715,o),
(297,715,cs),
(180,715,o),
(64,659,o),
(64,548,cs),
(64,330,o),
(475,400,o),
(475,187,cs),
(475,106,o),
(418,22,o),
(263,22,cs),
(161,22,o),
(92,58,o),
(43,97,c),
(43,43,l),
(91,10,o),
(165,-16,o),
(258,-16,cs)
);
}
);
width = 567;
}
);
unicode = 83;
},
{
glyphname = T;
kernLeft = T;
kernRight = T;
lastChange = "2026-01-19 05:30:10 +0000";
layers = (
{
layerId = "257EBA85-25A6-4EFE-A653-BCCD9A912022";
shapes = (
{
closed = 1;
nodes = (
(343,0,l),
(343,681,l),
(286,681,l),
(286,0,l)
);
},
{
closed = 1;
nodes = (
(595,648,l),
(595,700,l),
(35,700,l),
(35,648,l)
);
}
);
width = 630;
},
{
layerId = m002;
shapes = (
{
closed = 1;
nodes = (
(432,0,l),
(432,681,l),
(196,681,l),
(196,0,l)
);
},
{
closed = 1;
nodes = (
(615,500,l),
(615,700,l),
(15,700,l),
(15,500,l)
);
}
);
width = 630;
},
{
layerId = m003;
shapes = (
{
closed = 1;
nodes = (
(381,0,l),
(381,681,l),
(249,681,l),
(249,0,l)
);
},
{
closed = 1;
nodes = (
(595,576,l),
(595,700,l),
(35,700,l),
(35,576,l)
);
}
);
width = 630;
}
);
metricLeft = "=|";
unicode = 84;
},
{
glyphname = U;
kernLeft = O;
kernRight = U;
lastChange = "2026-01-14 12:47:55 +0000";
layers = (
{
anchors = (
{
name = top;
pos = (350,700);
}
);
background = {
shapes = (
{
pos = (30,0);
ref = H;
}
);
};
layerId = "257EBA85-25A6-4EFE-A653-BCCD9A912022";
shapes = (
{
closed = 1;
nodes = (
(562,-16,o),
(640,113,o),
(640,278,cs),
(640,700,l),
(583,700,l),
(583,278,ls),
(583,133,o),
(511,36,o),
(360,36,cs),
(209,36,o),
(137,133,o),
(137,278,cs),
(137,700,l),
(80,700,l),
(80,278,ls),
(80,113,o),
(161,-16,o),
(361,-16,cs)
);
}
);
width = 720;
},
{
anchors = (
{
name = top;
pos = (350,700);
}
);
background = {
shapes = (
{
pos = (30,0);
ref = H;
}
);
};
layerId = m002;
shapes = (
{
closed = 1;
nodes = (
(562,-16,o),
(640,113,o),
(640,278,cs),
(640,700,l),
(583,700,l),
(583,278,ls),
(583,133,o),
(511,36,o),
(360,36,cs),
(209,36,o),
(137,133,o),
(137,278,cs),
(137,700,l),
(80,700,l),
(80,278,ls),
(80,113,o),
(161,-16,o),
(361,-16,cs)
);
}
);
width = 720;
},
{
anchors = (
{
name = top;
pos = (350,700);
}
);
background = {
shapes = (
{
pos = (30,0);
ref = H;
}
);
};
layerId = m003;
shapes = (
{
closed = 1;
nodes = (
(562,-16,o),
(640,113,o),
(640,278,cs),
(640,700,l),
(583,700,l),
(583,278,ls),
(583,133,o),
(511,36,o),
(360,36,cs),
(209,36,o),
(137,133,o),
(137,278,cs),
(137,700,l),
(80,700,l),
(80,278,ls),
(80,113,o),
(161,-16,o),
(361,-16,cs)
);
}
);
width = 720;
}
);
metricLeft = "=H";
metricRight = "=H";
unicode = 85;
},
{
glyphname = V;
kernLeft = V;
kernRight = V;
lastChange = "2026-01-14 12:47:55 +0000";
layers = (
{
layerId = "257EBA85-25A6-4EFE-A653-BCCD9A912022";
shapes = (
{
closed = 1;
nodes = (
(340,73,l),
(71,700,l),
(10,700,l),
(315,-10,l),
(331,-10,l),
(622,700,l),
(569,700,l),
(311,73,l)
);
}
);
width = 632;
},
{
associatedMasterId = "257EBA85-25A6-4EFE-A653-BCCD9A912022";
background = {
shapes = (
{
attr = {
strokeHeight = 38;
strokeWidth = 42;
};
closed = 1;
nodes = (
(524,3,o),
(628,135,o),
(628,363,cs),
(628,575,o),
(524,696,o),
(342,696,cs),
(160,696,o),
(56,575,o),
(56,363,cs),
(56,135,o),
(160,3,o),
(342,3,cs)
);
}
);
};
layerId = "BED7211F-735F-4F4B-AA55-91F0B428FFDB";
name = "14 Dec 23, 22:53";
shapes = (
{
attr = {
lineCapEnd = 4;
lineCapStart = 4;
strokeHeight = 38;
strokeWidth = 42;
};
closed = 0;
nodes = (
(65,699,l),
(320,19,l),
(360,19,l),
(615,700,l)
);
}
);
width = 687;
},
{
layerId = m002;
shapes = (
{
closed = 1;
nodes = (
(340,73,l),
(71,700,l),
(10,700,l),
(315,-10,l),
(331,-10,l),
(622,700,l),
(569,700,l),
(311,73,l)
);
}
);
width = 632;
},
{
associatedMasterId = m002;
background = {
shapes = (
{
attr = {
strokeHeight = 38;
strokeWidth = 42;
};
closed = 1;
nodes = (
(524,3,o),
(628,135,o),
(628,363,cs),
(628,575,o),
(524,696,o),
(342,696,cs),
(160,696,o),
(56,575,o),
(56,363,cs),
(56,135,o),
(160,3,o),
(342,3,cs)
);
}
);
};
layerId = "DA455A9A-D69A-458A-A743-1A4ABE9EC40C";
name = "14 Dec 23, 22:53";
shapes = (
{
attr = {
lineCapEnd = 4;
lineCapStart = 4;
strokeHeight = 38;
strokeWidth = 42;
};
closed = 0;
nodes = (
(65,699,l),
(320,19,l),
(360,19,l),
(615,700,l)
);
}
);
width = 687;
},
{
layerId = m003;
shapes = (
{
closed = 1;
nodes = (
(340,73,l),
(71,700,l),
(10,700,l),
(315,-10,l),
(331,-10,l),
(622,700,l),
(569,700,l),
(311,73,l)
);
}
);
width = 632;
},
{
associatedMasterId = m003;
background = {
shapes = (
{
attr = {
strokeHeight = 38;
strokeWidth = 42;
};
closed = 1;
nodes = (
(524,3,o),
(628,135,o),
(628,363,cs),
(628,575,o),
(524,696,o),
(342,696,cs),
(160,696,o),
(56,575,o),
(56,363,cs),
(56,135,o),
(160,3,o),
(342,3,cs)
);
}
);
};
layerId = "A265D2C3-2910-46FD-9822-5E2F46478F1C";
name = "14 Dec 23, 22:53";
shapes = (
{
attr = {
lineCapEnd = 4;
lineCapStart = 4;
strokeHeight = 38;
strokeWidth = 42;
};
closed = 0;
nodes = (
(65,699,l),
(320,19,l),
(360,19,l),
(615,700,l)
);
}
);
width = 687;
}
);
unicode = 86;
},
{
glyphname = W;
kernLeft = V;
kernRight = V;
lastChange = "2026-01-14 12:47:55 +0000";
layers = (
{
anchors = (
{
name = top;
pos = (450,700);
}
);
guides = (
{
pos = (567,630);
showMeasurement = 1;
}
);
layerId = "257EBA85-25A6-4EFE-A653-BCCD9A912022";
shapes = (
{
closed = 1;
nodes = (
(468,633,l),
(443,605,l),
(660,-4,l),
(676,-4,l),
(896,700,l),
(846,700,l),
(658,96,l),
(688,79,l),
(466,700,l),
(440,700,l),
(216,60,l),
(259,84,l),
(67,700,l),
(10,700,l),
(230,-4,l),
(246,-4,l)
);
}
);
width = 906;
},
{
anchors = (
{
name = top;
pos = (450,700);
}
);
guides = (
{
pos = (567,630);
showMeasurement = 1;
}
);
layerId = m002;
shapes = (
{
closed = 1;
nodes = (
(468,633,l),
(443,605,l),
(660,-4,l),
(676,-4,l),
(896,700,l),
(846,700,l),
(658,96,l),
(688,79,l),
(466,700,l),
(440,700,l),
(216,60,l),
(259,84,l),
(67,700,l),
(10,700,l),
(230,-4,l),
(246,-4,l)
);
}
);
width = 906;
},
{
anchors = (
{
name = top;
pos = (450,700);
}
);
guides = (
{
pos = (567,630);
showMeasurement = 1;
}
);
layerId = m003;
shapes = (
{
closed = 1;
nodes = (
(468,633,l),
(443,605,l),
(660,-4,l),
(676,-4,l),
(896,700,l),
(846,700,l),
(658,96,l),
(688,79,l),
(466,700,l),
(440,700,l),
(216,60,l),
(259,84,l),
(67,700,l),
(10,700,l),
(230,-4,l),
(246,-4,l)
);
}
);
width = 906;
}
);
metricLeft = "=V";
metricRight = "=V";
unicode = 87;
},
{
glyphname = X;
kernLeft = X;
kernRight = X;
lastChange = "2026-01-14 12:47:55 +0000";
layers = (
{
layerId = "257EBA85-25A6-4EFE-A653-BCCD9A912022";
shapes = (
{
closed = 1;
nodes = (
(660,0,l),
(382,369,l),
(644,700,l),
(579,700,l),
(350,409,l),
(131,700,l),
(58,700,l),
(316,369,l),
(30,0,l),
(95,0,l),
(347,329,l),
(588,0,l)
);
}
);
width = 704;
},
{
associatedMasterId = "257EBA85-25A6-4EFE-A653-BCCD9A912022";
layerId = "7347253D-160D-427C-8D88-7BF1513F64C8";
name = "12 Dec 24 at 16:53";
shapes = (
{
closed = 1;
nodes = (
(602,0,l),
(85,700,l),
(30,700,l),
(548,0,l)
);
},
{
closed = 1;
nodes = (
(70,0,l),
(332,335,l),
(307,365,l),
(22,0,l)
);
},
{
closed = 1;
nodes = (
(617,700,l),
(569,700,l),
(307,365,l),
(332,335,l)
);
}
);
width = 642;
},
{
layerId = m002;
shapes = (
{
closed = 1;
nodes = (
(660,0,l),
(382,369,l),
(644,700,l),
(579,700,l),
(350,409,l),
(131,700,l),
(58,700,l),
(316,369,l),
(30,0,l),
(95,0,l),
(347,329,l),
(588,0,l)
);
}
);
width = 704;
},
{
associatedMasterId = m002;
layerId = "ACD43BAF-374B-4304-B822-3ED8D603D38E";
name = "12 Dec 24 at 16:53";
shapes = (
{
closed = 1;
nodes = (
(602,0,l),
(85,700,l),
(30,700,l),
(548,0,l)
);
},
{
closed = 1;
nodes = (
(70,0,l),
(332,335,l),
(307,365,l),
(22,0,l)
);
},
{
closed = 1;
nodes = (
(617,700,l),
(569,700,l),
(307,365,l),
(332,335,l)
);
}
);
width = 642;
},
{
layerId = m003;
shapes = (
{
closed = 1;
nodes = (
(660,0,l),
(382,369,l),
(644,700,l),
(579,700,l),
(350,409,l),
(131,700,l),
(58,700,l),
(316,369,l),
(30,0,l),
(95,0,l),
(347,329,l),
(588,0,l)
);
}
);
width = 704;
},
{
associatedMasterId = m003;
layerId = "259F24FF-494F-4437-93F5-F5EDDBCA64B3";
name = "12 Dec 24 at 16:53";
shapes = (
{
closed = 1;
nodes = (
(602,0,l),
(85,700,l),
(30,700,l),
(548,0,l)
);
},
{
closed = 1;
nodes = (
(70,0,l),
(332,335,l),
(307,365,l),
(22,0,l)
);
},
{
closed = 1;
nodes = (
(617,700,l),
(569,700,l),
(307,365,l),
(332,335,l)
);
}
);
width = 642;
}
);
unicode = 88;
},
{
glyphname = Y;
kernLeft = V;
kernRight = V;
lastChange = "2026-01-14 12:47:55 +0000";
layers = (
{
anchors = (
{
name = top;
pos = (326,700);
}
);
layerId = "257EBA85-25A6-4EFE-A653-BCCD9A912022";
shapes = (
{
closed = 1;
nodes = (
(352,0,l),
(352,289,l),
(627,700,l),
(569,700,l),
(304,319,l),
(343,321,l),
(76,700,l),
(10,700,l),
(295,289,l),
(295,0,l)
);
}
);
width = 637;
},
{
anchors = (
{
name = top;
pos = (293,700);
}
);
associatedMasterId = "257EBA85-25A6-4EFE-A653-BCCD9A912022";
background = {
shapes = (
{
closed = 1;
nodes = (
(227,94,o),
(195,40,o),
(131,40,cs),
(105,40,l),
(105,0,l),
(120,0,ls),
(206,0,o),
(242,41,o),
(304,161,cs),
(582,700,l),
(539,700,l),
(281,196,l),
(313,191,l),
(26,700,l),
(-22,700,l),
(272,179,l)
);
}
);
};
layerId = "C6108D9F-704D-473C-96E7-370C86D349D5";
name = "12 Dec 24 at 16:54";
shapes = (
{
closed = 1;
nodes = (
(309,0,l),
(309,209,l),
(560,700,l),
(517,700,l),
(282,239,l),
(299,239,l),
(63,700,l),
(16,700,l),
(267,209,l),
(267,0,l)
);
}
);
width = 580;
},
{
anchors = (
{
name = top;
pos = (326,700);
}
);
layerId = m002;
shapes = (
{
closed = 1;
nodes = (
(352,0,l),
(352,289,l),
(627,700,l),
(569,700,l),
(304,319,l),
(343,321,l),
(76,700,l),
(10,700,l),
(295,289,l),
(295,0,l)
);
}
);
width = 637;
},
{
anchors = (
{
name = top;
pos = (293,700);
}
);
associatedMasterId = m002;
background = {
shapes = (
{
closed = 1;
nodes = (
(227,94,o),
(195,40,o),
(131,40,cs),
(105,40,l),
(105,0,l),
(120,0,ls),
(206,0,o),
(242,41,o),
(304,161,cs),
(582,700,l),
(539,700,l),
(281,196,l),
(313,191,l),
(26,700,l),
(-22,700,l),
(272,179,l)
);
}
);
};
layerId = "6F43EB22-6F8F-418A-A2D8-ABD33452F1C8";
name = "12 Dec 24 at 16:54";
shapes = (
{
closed = 1;
nodes = (
(309,0,l),
(309,209,l),
(560,700,l),
(517,700,l),
(282,239,l),
(299,239,l),
(63,700,l),
(16,700,l),
(267,209,l),
(267,0,l)
);
}
);
width = 580;
},
{
anchors = (
{
name = top;
pos = (326,700);
}
);
layerId = m003;
shapes = (
{
closed = 1;
nodes = (
(352,0,l),
(352,289,l),
(627,700,l),
(569,700,l),
(304,319,l),
(343,321,l),
(76,700,l),
(10,700,l),
(295,289,l),
(295,0,l)
);
}
);
width = 637;
},
{
anchors = (
{
name = top;
pos = (293,700);
}
);
associatedMasterId = m003;
background = {
shapes = (
{
closed = 1;
nodes = (
(227,94,o),
(195,40,o),
(131,40,cs),
(105,40,l),
(105,0,l),
(120,0,ls),
(206,0,o),
(242,41,o),
(304,161,cs),
(582,700,l),
(539,700,l),
(281,196,l),
(313,191,l),
(26,700,l),
(-22,700,l),
(272,179,l)
);
}
);
};
layerId = "D8DEA85B-25AF-40FC-982D-A3C17CD2EBCE";
name = "12 Dec 24 at 16:54";
shapes = (
{
closed = 1;
nodes = (
(309,0,l),
(309,209,l),
(560,700,l),
(517,700,l),
(282,239,l),
(299,239,l),
(63,700,l),
(16,700,l),
(267,209,l),
(267,0,l)
);
}
);
width = 580;
}
);
metricLeft = "=V";
metricRight = "=V";
unicode = 89;
},
{
glyphname = Z;
kernLeft = Z;
kernRight = Z;
lastChange = "2026-01-14 12:47:55 +0000";
layers = (
{
layerId = "257EBA85-25A6-4EFE-A653-BCCD9A912022";
shapes = (
{
closed = 1;
nodes = (
(651,0,l),
(651,52,l),
(138,52,l),
(159,27,l),
(670,688,l),
(670,700,l),
(111,700,l),
(111,648,l),
(620,648,l),
(590,675,l),
(80,14,l),
(80,0,l)
);
}
);
width = 750;
},
{
layerId = m002;
shapes = (
{
closed = 1;
nodes = (
(651,0,l),
(651,52,l),
(138,52,l),
(159,27,l),
(670,688,l),
(670,700,l),
(111,700,l),
(111,648,l),
(620,648,l),
(590,675,l),
(80,14,l),
(80,0,l)
);
}
);
width = 750;
},
{
layerId = m003;
shapes = (
{
closed = 1;
nodes = (
(651,0,l),
(651,52,l),
(138,52,l),
(159,27,l),
(670,688,l),
(670,700,l),
(111,700,l),
(111,648,l),
(620,648,l),
(590,675,l),
(80,14,l),
(80,0,l)
);
}
);
width = 750;
}
);
metricLeft = "=H";
metricRight = "=H";
unicode = 90;
},
{
glyphname = a;
kernLeft = a;
kernRight = n;
lastChange = "2026-01-15 10:57:48 +0000";
layers = (
{
anchors = (
{
name = top;
pos = (247,516);
}
);
layerId = "257EBA85-25A6-4EFE-A653-BCCD9A912022";
shapes = (
{
closed = 1;
nodes = (
(441,0,l),
(441,295,ls),
(441,439,o),
(377,516,o),
(247,516,cs),
(174,516,o),
(117,493,o),
(68,464,c),
(89,418,l),
(131,445,o),
(176,470,o),
(239,470,cs),
(339,470,o),
(389,409,o),
(389,287,cs),
(389,102,l),
(393,0,l)
);
},
{
closed = 1;
nodes = (
(303,-16,o),
(379,17,o),
(422,128,c),
(390,175,l),
(390,85,o),
(293,30,o),
(208,30,cs),
(127,30,o),
(87,71,o),
(87,144,cs),
(87,212,o),
(123,266,o),
(242,266,cs),
(294,266,o),
(357,256,o),
(414,238,c),
(421,283,l),
(345,305,o),
(295,312,o),
(252,312,cs),
(97,312,o),
(33,238,o),
(33,148,cs),
(33,51,o),
(105,-16,o),
(204,-16,cs)
);
}
);
width = 500;
},
{
associatedMasterId = "257EBA85-25A6-4EFE-A653-BCCD9A912022";
background = {
shapes = (
{
attr = {
strokeHeight = 38;
strokeWidth = 40;
};
closed = 0;
nodes = (
(45,500,l),
(45,0,l)
);
},
{
attr = {
strokeHeight = 38;
strokeWidth = 40;
};
closed = 0;
nodes = (
(45,134,l),
(45,433,o),
(155,497,o),
(254,497,cs),
(332,497,o),
(409,454,o),
(410,345,cs),
(412,0,l)
);
}
);
};
layerId = "EDDA1CEC-C64A-42A8-9B16-BFF9D7F66D24";
name = norm;
shapes = (
{
closed = 1;
nodes = (
(432,0,l),
(431,295,ls),
(431,439,o),
(387,516,o),
(256,516,cs),
(184,516,o),
(96,492,o),
(47,450,c),
(47,402,l),
(95,451,o),
(183,478,o),
(255,478,cs),
(359,478,o),
(391,423,o),
(391,297,cs),
(391,168,l),
(391,155,l),
(392,0,l)
);
},
{
closed = 1;
nodes = (
(293,-16,o),
(369,50,o),
(412,161,c),
(393,175,l),
(353,77,o),
(283,22,o),
(194,22,cs),
(117,22,o),
(70,71,o),
(70,144,cs),
(70,212,o),
(110,266,o),
(232,266,cs),
(284,266,o),
(347,256,o),
(404,238,c),
(411,277,l),
(352,295,o),
(285,304,o),
(233,304,cs),
(92,304,o),
(30,238,o),
(30,146,cs),
(30,51,o),
(95,-16,o),
(191,-16,cs)
);
}
);
width = 507;
},
{
anchors = (
{
name = top;
pos = (247,516);
}
);
associatedMasterId = "257EBA85-25A6-4EFE-A653-BCCD9A912022";
layerId = "76414A9E-077F-41BE-9618-26015EB4B525";
name = "14 Jan 26 at 11:24";
shapes = (
{
closed = 1;
nodes = (
(441,0,l),
(441,295,ls),
(441,439,o),
(377,516,o),
(247,516,cs),
(174,516,o),
(126,497,o),
(77,468,c),
(77,412,l),
(80,412,l),
(124,441,o),
(171,470,o),
(239,470,cs),
(339,470,o),
(389,409,o),
(389,287,cs),
(389,102,l),
(393,0,l)
);
},
{
closed = 1;
nodes = (
(303,-16,o),
(379,36,o),
(422,147,c),
(403,175,l),
(363,77,o),
(293,30,o),
(208,30,cs),
(127,30,o),
(87,71,o),
(87,144,cs),
(87,212,o),
(123,266,o),
(242,266,cs),
(294,266,o),
(357,256,o),
(414,238,c),
(421,283,l),
(345,305,o),
(295,312,o),
(252,312,cs),
(97,312,o),
(33,238,o),
(33,148,cs),
(33,51,o),
(105,-16,o),
(204,-16,cs)
);
}
);
width = 500;
},
{
anchors = (
{
name = top;
pos = (276,516);
}
);
layerId = m002;
shapes = (
{
closed = 1;
nodes = (
(572,0,l),
(572,295,ls),
(572,439,o),
(467,516,o),
(316,516,cs),
(223,516,o),
(144,496,o),
(94,478,c),
(124,342,l),
(159,365,o),
(207,374,o),
(246,374,cs),
(306,374,o),
(338,340,o),
(338,287,cs),
(338,102,l),
(372,0,l)
);
},
{
closed = 1;
nodes = (
(306,-16,o),
(342,34,o),
(359,62,c),
(338,146,l),
(335,116,o),
(302,104,o),
(272,104,cs),
(242,104,o),
(225,121,o),
(225,139,cs),
(225,173,o),
(257,181,o),
(281,181,cs),
(306,181,o),
(331,173,o),
(343,162,c),
(355,275,l),
(322,291,o),
(280,316,o),
(201,316,cs),
(82,316,o),
(20,238,o),
(20,148,cs),
(20,23,o),
(108,-16,o),
(207,-16,cs)
);
}
);
width = 608;
},
{
associatedMasterId = m002;
background = {
shapes = (
{
attr = {
strokeHeight = 38;
strokeWidth = 40;
};
closed = 0;
nodes = (
(45,500,l),
(45,0,l)
);
},
{
attr = {
strokeHeight = 38;
strokeWidth = 40;
};
closed = 0;
nodes = (
(45,134,l),
(45,433,o),
(155,497,o),
(254,497,cs),
(332,497,o),
(409,454,o),
(410,345,cs),
(412,0,l)
);
}
);
};
layerId = "1A05F3D9-59C7-4DED-B19D-532106FB9594";
name = norm;
shapes = (
{
closed = 1;
nodes = (
(432,0,l),
(431,295,ls),
(431,439,o),
(387,516,o),
(256,516,cs),
(184,516,o),
(96,492,o),
(47,450,c),
(47,402,l),
(95,451,o),
(183,478,o),
(255,478,cs),
(359,478,o),
(391,423,o),
(391,297,cs),
(391,168,l),
(391,155,l),
(392,0,l)
);
},
{
closed = 1;
nodes = (
(293,-16,o),
(369,50,o),
(412,161,c),
(393,175,l),
(353,77,o),
(283,22,o),
(194,22,cs),
(117,22,o),
(70,71,o),
(70,144,cs),
(70,212,o),
(110,266,o),
(232,266,cs),
(284,266,o),
(347,256,o),
(404,238,c),
(411,277,l),
(352,295,o),
(285,304,o),
(233,304,cs),
(92,304,o),
(30,238,o),
(30,146,cs),
(30,51,o),
(95,-16,o),
(191,-16,cs)
);
}
);
width = 507;
},
{
anchors = (
{
name = top;
pos = (247,516);
}
);
associatedMasterId = m002;
layerId = "27A7E314-CC61-45CC-8A78-2E1349098AD4";
name = "14 Jan 26 at 11:24";
shapes = (
{
closed = 1;
nodes = (
(441,0,l),
(441,295,ls),
(441,439,o),
(377,516,o),
(247,516,cs),
(174,516,o),
(126,497,o),
(77,468,c),
(77,412,l),
(80,412,l),
(124,441,o),
(171,470,o),
(239,470,cs),
(339,470,o),
(389,409,o),
(389,287,cs),
(389,102,l),
(393,0,l)
);
},
{
closed = 1;
nodes = (
(303,-16,o),
(379,36,o),
(422,147,c),
(403,175,l),
(363,77,o),
(293,30,o),
(208,30,cs),
(127,30,o),
(87,71,o),
(87,144,cs),
(87,212,o),
(123,266,o),
(242,266,cs),
(294,266,o),
(357,256,o),
(414,238,c),
(421,283,l),
(345,305,o),
(295,312,o),
(252,312,cs),
(97,312,o),
(33,238,o),
(33,148,cs),
(33,51,o),
(105,-16,o),
(204,-16,cs)
);
}
);
width = 500;
},
{
anchors = (
{
name = top;
pos = (267,516);
}
);
layerId = m003;
shapes = (
{
closed = 1;
nodes = (
(473,0,l),
(473,304,ls),
(473,464,o),
(370,516,o),
(270,516,cs),
(198,516,o),
(129,499,o),
(80,472,c),
(101,357,l),
(143,384,o),
(201,400,o),
(243,400,cs),
(320,400,o),
(342,357,o),
(342,246,cs),
(342,102,l),
(371,0,l)
);
},
{
closed = 1;
nodes = (
(320,-16,o),
(397,55,o),
(409,123,c),
(342,176,l),
(342,120,o),
(279,112,o),
(241,112,cs),
(192,112,o),
(152,123,o),
(152,158,cs),
(152,195,o),
(191,208,o),
(244,208,cs),
(299,208,o),
(328,197,o),
(372,183,c),
(408,293,l),
(332,315,o),
(282,322,o),
(239,322,cs),
(84,322,o),
(20,238,o),
(20,148,cs),
(20,51,o),
(92,-16,o),
(191,-16,cs)
);
}
);
width = 513;
},
{
associatedMasterId = m003;
background = {
shapes = (
{
attr = {
strokeHeight = 38;
strokeWidth = 40;
};
closed = 0;
nodes = (
(45,500,l),
(45,0,l)
);
},
{
attr = {
strokeHeight = 38;
strokeWidth = 40;
};
closed = 0;
nodes = (
(45,134,l),
(45,433,o),
(155,497,o),
(254,497,cs),
(332,497,o),
(409,454,o),
(410,345,cs),
(412,0,l)
);
}
);
};
layerId = "EFF19D68-6752-4CA2-B9B9-1064C6F1CD7E";
name = norm;
shapes = (
{
closed = 1;
nodes = (
(432,0,l),
(431,295,ls),
(431,439,o),
(387,516,o),
(256,516,cs),
(184,516,o),
(96,492,o),
(47,450,c),
(47,402,l),
(95,451,o),
(183,478,o),
(255,478,cs),
(359,478,o),
(391,423,o),
(391,297,cs),
(391,168,l),
(391,155,l),
(392,0,l)
);
},
{
closed = 1;
nodes = (
(293,-16,o),
(369,50,o),
(412,161,c),
(393,175,l),
(353,77,o),
(283,22,o),
(194,22,cs),
(117,22,o),
(70,71,o),
(70,144,cs),
(70,212,o),
(110,266,o),
(232,266,cs),
(284,266,o),
(347,256,o),
(404,238,c),
(411,277,l),
(352,295,o),
(285,304,o),
(233,304,cs),
(92,304,o),
(30,238,o),
(30,146,cs),
(30,51,o),
(95,-16,o),
(191,-16,cs)
);
}
);
width = 507;
},
{
anchors = (
{
name = top;
pos = (247,516);
}
);
associatedMasterId = m003;
layerId = "0B66431F-FF8D-45EF-A2A3-DE776EA13A7E";
name = "14 Jan 26 at 11:24";
shapes = (
{
closed = 1;
nodes = (
(441,0,l),
(441,295,ls),
(441,439,o),
(377,516,o),
(247,516,cs),
(174,516,o),
(126,497,o),
(77,468,c),
(77,412,l),
(80,412,l),
(124,441,o),
(171,470,o),
(239,470,cs),
(339,470,o),
(389,409,o),
(389,287,cs),
(389,102,l),
(393,0,l)
);
},
{
closed = 1;
nodes = (
(303,-16,o),
(379,36,o),
(422,147,c),
(403,175,l),
(363,77,o),
(293,30,o),
(208,30,cs),
(127,30,o),
(87,71,o),
(87,144,cs),
(87,212,o),
(123,266,o),
(242,266,cs),
(294,266,o),
(357,256,o),
(414,238,c),
(421,283,l),
(345,305,o),
(295,312,o),
(252,312,cs),
(97,312,o),
(33,238,o),
(33,148,cs),
(33,51,o),
(105,-16,o),
(204,-16,cs)
);
}
);
width = 500;
}
);
metricRight = "=n";
unicode = 97;
},
{
glyphname = a.001;
kernRight = n;
lastChange = "2026-01-19 08:35:51 +0000";
layers = (
{
layerId = "257EBA85-25A6-4EFE-A653-BCCD9A912022";
shapes = (
{
closed = 1;
nodes = (
(418,-16,o),
(509,88,o),
(509,265,cs),
(509,420,o),
(423,516,o),
(281,516,cs),
(149,516,o),
(40,420,o),
(40,244,cs),
(40,88,o),
(130,-16,o),
(263,-16,cs)
);
},
{
closed = 1;
nodes = (
(156,30,o),
(94,106,o),
(94,243,cs),
(94,401,o),
(175,470,o),
(283,470,cs),
(401,470,o),
(465,401,o),
(465,266,cs),
(465,106,o),
(392,30,o),
(263,30,cs)
);
},
{
closed = 1;
nodes = (
(565,-5,o),
(591,0,o),
(610,13,c),
(600,52,l),
(590,47,o),
(573,41,o),
(551,41,cs),
(517,41,o),
(517,82,o),
(517,121,cs),
(517,500,l),
(465,500,l),
(465,88,ls),
(465,48,o),
(476,-5,o),
(551,-5,cs)
);
}
);
width = 620;
},
{
associatedMasterId = "257EBA85-25A6-4EFE-A653-BCCD9A912022";
background = {
shapes = (
{
attr = {
strokeHeight = 38;
strokeWidth = 40;
};
closed = 0;
nodes = (
(45,500,l),
(45,0,l)
);
},
{
attr = {
strokeHeight = 38;
strokeWidth = 40;
};
closed = 0;
nodes = (
(45,134,l),
(45,433,o),
(155,497,o),
(254,497,cs),
(332,497,o),
(409,454,o),
(410,345,cs),
(412,0,l)
);
}
);
};
layerId = "EDDA1CEC-C64A-42A8-9B16-BFF9D7F66D24";
name = norm;
shapes = (
{
closed = 1;
nodes = (
(432,0,l),
(431,295,ls),
(431,439,o),
(387,516,o),
(256,516,cs),
(184,516,o),
(96,492,o),
(47,450,c),
(47,402,l),
(95,451,o),
(183,478,o),
(255,478,cs),
(359,478,o),
(391,423,o),
(391,297,cs),
(391,168,l),
(391,155,l),
(392,0,l)
);
},
{
closed = 1;
nodes = (
(293,-16,o),
(369,50,o),
(412,161,c),
(393,175,l),
(353,77,o),
(283,22,o),
(194,22,cs),
(117,22,o),
(70,71,o),
(70,144,cs),
(70,212,o),
(110,266,o),
(232,266,cs),
(284,266,o),
(347,256,o),
(404,238,c),
(411,277,l),
(352,295,o),
(285,304,o),
(233,304,cs),
(92,304,o),
(30,238,o),
(30,146,cs),
(30,51,o),
(95,-16,o),
(191,-16,cs)
);
}
);
width = 507;
},
{
layerId = m002;
shapes = (
{
closed = 1;
nodes = (
(335,-16,o),
(395,124,o),
(395,258,cs),
(395,382,o),
(323,516,o),
(206,516,cs),
(93,516,o),
(7,437,o),
(7,258,cs),
(7,39,o),
(107,-16,o),
(200,-16,cs)
);
},
{
closed = 1;
nodes = (
(253,184,o),
(243,218,o),
(243,252,cs),
(243,284,o),
(255,316,o),
(289,316,cs),
(323,316,o),
(330,284,o),
(330,252,cs),
(330,218,o),
(321,184,o),
(284,184,cs)
);
},
{
closed = 1;
nodes = (
(549,-15,o),
(628,0,o),
(680,22,c),
(652,167,l),
(636,159,o),
(624,155,o),
(604,155,cs),
(565,155,o),
(555,184,o),
(555,229,cs),
(555,500,l),
(331,500,l),
(331,184,ls),
(331,63,o),
(358,-15,o),
(490,-15,cs)
);
}
);
width = 720;
},
{
associatedMasterId = m002;
background = {
shapes = (
{
attr = {
strokeHeight = 38;
strokeWidth = 40;
};
closed = 0;
nodes = (
(45,500,l),
(45,0,l)
);
},
{
attr = {
strokeHeight = 38;
strokeWidth = 40;
};
closed = 0;
nodes = (
(45,134,l),
(45,433,o),
(155,497,o),
(254,497,cs),
(332,497,o),
(409,454,o),
(410,345,cs),
(412,0,l)
);
}
);
};
layerId = "D45B38AE-D85B-42AA-91B4-1D468D74367B";
name = norm;
shapes = (
{
closed = 1;
nodes = (
(432,0,l),
(431,295,ls),
(431,439,o),
(387,516,o),
(256,516,cs),
(184,516,o),
(96,492,o),
(47,450,c),
(47,402,l),
(95,451,o),
(183,478,o),
(255,478,cs),
(359,478,o),
(391,423,o),
(391,297,cs),
(391,168,l),
(391,155,l),
(392,0,l)
);
},
{
closed = 1;
nodes = (
(293,-16,o),
(369,50,o),
(412,161,c),
(393,175,l),
(353,77,o),
(283,22,o),
(194,22,cs),
(117,22,o),
(70,71,o),
(70,144,cs),
(70,212,o),
(110,266,o),
(232,266,cs),
(284,266,o),
(347,256,o),
(404,238,c),
(411,277,l),
(352,295,o),
(285,304,o),
(233,304,cs),
(92,304,o),
(30,238,o),
(30,146,cs),
(30,51,o),
(95,-16,o),
(191,-16,cs)
);
}
);
width = 507;
},
{
layerId = m003;
shapes = (
{
closed = 1;
nodes = (
(383,4,o),
(458,149,o),
(458,260,cs),
(458,379,o),
(392,516,o),
(270,516,cs),
(138,516,o),
(30,420,o),
(30,260,cs),
(30,108,o),
(126,4,o),
(238,4,cs)
);
},
{
closed = 1;
nodes = (
(206,128,o),
(162,183,o),
(162,257,cs),
(162,341,o),
(217,392,o),
(281,392,cs),
(354,392,o),
(392,341,o),
(392,257,cs),
(392,183,o),
(342,128,o),
(270,128,cs)
);
},
{
closed = 1;
nodes = (
(590,-5,o),
(616,8,o),
(632,17,c),
(616,111,l),
(603,104,o),
(592,98,o),
(573,98,cs),
(527,98,o),
(522,153,o),
(522,200,cs),
(522,500,l),
(392,500,l),
(392,182,ls),
(392,40,o),
(468,-5,o),
(538,-5,cs)
);
}
);
width = 642;
},
{
associatedMasterId = m003;
background = {
shapes = (
{
attr = {
strokeHeight = 38;
strokeWidth = 40;
};
closed = 0;
nodes = (
(45,500,l),
(45,0,l)
);
},
{
attr = {
strokeHeight = 38;
strokeWidth = 40;
};
closed = 0;
nodes = (
(45,134,l),
(45,433,o),
(155,497,o),
(254,497,cs),
(332,497,o),
(409,454,o),
(410,345,cs),
(412,0,l)
);
}
);
};
layerId = "EC140568-D42D-4C49-B2F8-0845CB864A82";
name = norm;
shapes = (
{
closed = 1;
nodes = (
(432,0,l),
(431,295,ls),
(431,439,o),
(387,516,o),
(256,516,cs),
(184,516,o),
(96,492,o),
(47,450,c),
(47,402,l),
(95,451,o),
(183,478,o),
(255,478,cs),
(359,478,o),
(391,423,o),
(391,297,cs),
(391,168,l),
(391,155,l),
(392,0,l)
);
},
{
closed = 1;
nodes = (
(293,-16,o),
(369,50,o),
(412,161,c),
(393,175,l),
(353,77,o),
(283,22,o),
(194,22,cs),
(117,22,o),
(70,71,o),
(70,144,cs),
(70,212,o),
(110,266,o),
(232,266,cs),
(284,266,o),
(347,256,o),
(404,238,c),
(411,277,l),
(352,295,o),
(285,304,o),
(233,304,cs),
(92,304,o),
(30,238,o),
(30,146,cs),
(30,51,o),
(95,-16,o),
(191,-16,cs)
);
}
);
width = 507;
}
);
metricLeft = "=o";
},
{
glyphname = b;
lastChange = "2026-01-15 10:57:48 +0000";
layers = (
{
background = {
shapes = (
{
ref = n;
}
);
};
layerId = "257EBA85-25A6-4EFE-A653-BCCD9A912022";
shapes = (
{
closed = 1;
nodes = (
(449,-16,o),
(557,88,o),
(557,264,cs),
(557,420,o),
(466,516,o),
(334,516,cs),
(202,516,o),
(104,420,o),
(104,240,cs),
(104,88,o),
(183,-16,o),
(316,-16,cs)
);
},
{
closed = 1;
nodes = (
(132,0,l),
(132,151,l),
(132,730,l),
(80,730,l),
(80,0,l)
);
},
{
closed = 1;
nodes = (
(209,30,o),
(132,106,o),
(132,243,cs),
(132,401,o),
(226,470,o),
(334,470,cs),
(442,470,o),
(503,401,o),
(503,266,cs),
(503,106,o),
(423,30,o),
(316,30,cs)
);
}
);
width = 597;
},
{
associatedMasterId = "257EBA85-25A6-4EFE-A653-BCCD9A912022";
layerId = "7FBE815C-9AFA-4CEA-B435-A0F0A0DB4A5F";
name = old;
shapes = (
{
closed = 1;
nodes = (
(425,-16,o),
(527,94,o),
(527,282,c),
(527,417,o),
(466,516,o),
(322,516,c),
(157,516,o),
(97,383,o),
(97,224,c),
(97,93,o),
(140,-16,o),
(283,-16,c)
);
},
{
closed = 1;
nodes = (
(119,0,l),
(119,800,l),
(79,800,l),
(79,0,l)
);
},
{
closed = 1;
nodes = (
(167,22,o),
(119,99,o),
(119,224,c),
(119,378,o),
(190,478,o),
(322,478,c),
(438,478,o),
(486,402,o),
(486,282,c),
(486,114,o),
(410,22,o),
(283,22,c)
);
}
);
width = 581;
},
{
associatedMasterId = "257EBA85-25A6-4EFE-A653-BCCD9A912022";
layerId = "8D649CA9-FE4D-4B69-87BB-0F483C941C76";
name = "24 Jan 24 at 03:08";
shapes = (
{
closed = 1;
nodes = (
(119,0,l),
(116,127,l),
(110,119,l),
(135,34,o),
(191,-16,o),
(287,-16,cs),
(427,-16,o),
(514,91,o),
(514,260,cs),
(514,418,o),
(439,516,o),
(296,516,cs),
(199,516,o),
(135,470,o),
(107,391,c),
(119,374,l),
(119,800,l),
(79,800,l),
(79,0,l)
);
},
{
closed = 1;
nodes = (
(119,354,l),
(140,435,o),
(199,478,o),
(293,478,cs),
(411,478,o),
(473,409,o),
(473,260,cs),
(473,112,o),
(410,22,o),
(293,22,cs),
(202,22,o),
(143,73,o),
(119,167,c)
);
}
);
width = 568;
},
{
background = {
shapes = (
{
pos = (18,0);
ref = n;
}
);
};
layerId = m002;
shapes = (
{
closed = 1;
nodes = (
(507,-16,o),
(607,39,o),
(607,258,cs),
(607,437,o),
(521,516,o),
(408,516,cs),
(291,516,o),
(219,382,o),
(219,258,cs),
(219,124,o),
(279,-16,o),
(414,-16,cs)
);
},
{
closed = 1;
nodes = (
(244,0,l),
(284,121,l),
(284,730,l),
(50,730,l),
(50,0,l)
);
},
{
closed = 1;
nodes = (
(293,184,o),
(284,218,o),
(284,252,cs),
(284,284,o),
(291,316,o),
(325,316,cs),
(359,316,o),
(371,284,o),
(371,252,cs),
(371,218,o),
(361,184,o),
(330,184,cs)
);
}
);
width = 614;
},
{
associatedMasterId = m002;
layerId = "E9C1D888-7C22-48A6-B3D9-840F5A27FE99";
name = old;
shapes = (
{
closed = 1;
nodes = (
(425,-16,o),
(527,94,o),
(527,282,c),
(527,417,o),
(466,516,o),
(322,516,c),
(157,516,o),
(97,383,o),
(97,224,c),
(97,93,o),
(140,-16,o),
(283,-16,c)
);
},
{
closed = 1;
nodes = (
(119,0,l),
(119,800,l),
(79,800,l),
(79,0,l)
);
},
{
closed = 1;
nodes = (
(167,22,o),
(119,99,o),
(119,224,c),
(119,378,o),
(190,478,o),
(322,478,c),
(438,478,o),
(486,402,o),
(486,282,c),
(486,114,o),
(410,22,o),
(283,22,c)
);
}
);
width = 581;
},
{
associatedMasterId = m002;
layerId = "6E45479E-8669-44DC-957B-255377CB19AA";
name = "24 Jan 24 at 03:08";
shapes = (
{
closed = 1;
nodes = (
(119,0,l),
(116,127,l),
(110,119,l),
(135,34,o),
(191,-16,o),
(287,-16,cs),
(427,-16,o),
(514,91,o),
(514,260,cs),
(514,418,o),
(439,516,o),
(296,516,cs),
(199,516,o),
(135,470,o),
(107,391,c),
(119,374,l),
(119,800,l),
(79,800,l),
(79,0,l)
);
},
{
closed = 1;
nodes = (
(119,354,l),
(140,435,o),
(199,478,o),
(293,478,cs),
(411,478,o),
(473,409,o),
(473,260,cs),
(473,112,o),
(410,22,o),
(293,22,cs),
(202,22,o),
(143,73,o),
(119,167,c)
);
}
);
width = 568;
},
{
background = {
shapes = (
{
pos = (-26,0);
ref = n;
}
);
};
layerId = m003;
shapes = (
{
closed = 1;
nodes = (
(446,4,o),
(542,108,o),
(542,260,cs),
(542,420,o),
(447,516,o),
(325,516,cs),
(193,516,o),
(114,379,o),
(114,260,cs),
(114,149,o),
(189,4,o),
(324,4,cs)
);
},
{
closed = 1;
nodes = (
(160,0,l),
(180,151,l),
(180,730,l),
(50,730,l),
(50,0,l)
);
},
{
closed = 1;
nodes = (
(230,128,o),
(180,183,o),
(180,257,cs),
(180,341,o),
(228,392,o),
(301,392,cs),
(365,392,o),
(410,341,o),
(410,257,cs),
(410,183,o),
(366,128,o),
(302,128,cs)
);
}
);
width = 572;
},
{
associatedMasterId = m003;
layerId = "D357442C-B1B8-42DF-AE1D-0D5910C4A86F";
name = old;
shapes = (
{
closed = 1;
nodes = (
(425,-16,o),
(527,94,o),
(527,282,c),
(527,417,o),
(466,516,o),
(322,516,c),
(157,516,o),
(97,383,o),
(97,224,c),
(97,93,o),
(140,-16,o),
(283,-16,c)
);
},
{
closed = 1;
nodes = (
(119,0,l),
(119,800,l),
(79,800,l),
(79,0,l)
);
},
{
closed = 1;
nodes = (
(167,22,o),
(119,99,o),
(119,224,c),
(119,378,o),
(190,478,o),
(322,478,c),
(438,478,o),
(486,402,o),
(486,282,c),
(486,114,o),
(410,22,o),
(283,22,c)
);
}
);
width = 581;
},
{
associatedMasterId = m003;
layerId = "4B2E69BA-0DD3-43BC-952A-4E969199CA3D";
name = "24 Jan 24 at 03:08";
shapes = (
{
closed = 1;
nodes = (
(119,0,l),
(116,127,l),
(110,119,l),
(135,34,o),
(191,-16,o),
(287,-16,cs),
(427,-16,o),
(514,91,o),
(514,260,cs),
(514,418,o),
(439,516,o),
(296,516,cs),
(199,516,o),
(135,470,o),
(107,391,c),
(119,374,l),
(119,800,l),
(79,800,l),
(79,0,l)
);
},
{
closed = 1;
nodes = (
(119,354,l),
(140,435,o),
(199,478,o),
(293,478,cs),
(411,478,o),
(473,409,o),
(473,260,cs),
(473,112,o),
(410,22,o),
(293,22,cs),
(202,22,o),
(143,73,o),
(119,167,c)
);
}
);
width = 568;
}
);
metricLeft = "=n";
metricRight = "=o";
unicode = 98;
},
{
glyphname = c;
kernLeft = o;
lastChange = "2026-01-15 10:57:48 +0000";
layers = (
{
layerId = "257EBA85-25A6-4EFE-A653-BCCD9A912022";
shapes = (
{
closed = 1;
nodes = (
(328,-16,o),
(387,-4,o),
(426,24,c),
(412,69,l),
(377,46,o),
(325,30,o),
(276,30,cs),
(179,30,o),
(97,115,o),
(97,254,cs),
(97,392,o),
(178,470,o),
(278,470,cs),
(325,470,o),
(366,460,o),
(396,442,c),
(411,485,l),
(375,505,o),
(328,516,o),
(274,516,cs),
(143,516,o),
(40,418,o),
(40,254,cs),
(40,90,o),
(142,-16,o),
(272,-16,cs)
);
}
);
width = 458;
},
{
associatedMasterId = "257EBA85-25A6-4EFE-A653-BCCD9A912022";
layerId = "11CF0954-3F99-4B14-962C-D9BC8CA0E5D7";
name = "14 Jan 26 at 11:25";
shapes = (
{
closed = 1;
nodes = (
(328,-16,o),
(379,-6,o),
(418,22,c),
(418,74,l),
(415,74,l),
(379,47,o),
(331,30,o),
(276,30,cs),
(179,30,o),
(97,115,o),
(97,254,cs),
(97,392,o),
(178,470,o),
(278,470,cs),
(331,470,o),
(375,457,o),
(407,436,c),
(410,436,l),
(410,484,l),
(374,504,o),
(328,516,o),
(274,516,cs),
(143,516,o),
(40,418,o),
(40,254,cs),
(40,90,o),
(142,-16,o),
(272,-16,cs)
);
}
);
width = 458;
},
{
layerId = m002;
shapes = (
{
closed = 1;
nodes = (
(333,-16,o),
(393,6,o),
(432,37,c),
(376,201,l),
(361,192,o),
(339,181,o),
(312,181,cs),
(257,181,o),
(243,220,o),
(243,254,cs),
(243,304,o),
(262,339,o),
(314,339,cs),
(336,339,o),
(354,331,o),
(363,326,c),
(406,476,l),
(370,496,o),
(319,516,o),
(257,516,cs),
(110,516,o),
(7,418,o),
(7,254,cs),
(7,90,o),
(109,-16,o),
(257,-16,cs)
);
}
);
width = 452;
},
{
associatedMasterId = m002;
layerId = "EFFB7D58-AAAC-4C1A-8679-8E901A3E784C";
name = "14 Jan 26 at 11:25";
shapes = (
{
closed = 1;
nodes = (
(328,-16,o),
(379,-6,o),
(418,22,c),
(418,74,l),
(415,74,l),
(379,47,o),
(331,30,o),
(276,30,cs),
(179,30,o),
(97,115,o),
(97,254,cs),
(97,392,o),
(178,470,o),
(278,470,cs),
(331,470,o),
(375,457,o),
(407,436,c),
(410,436,l),
(410,484,l),
(374,504,o),
(328,516,o),
(274,516,cs),
(143,516,o),
(40,418,o),
(40,254,cs),
(40,90,o),
(142,-16,o),
(272,-16,cs)
);
}
);
width = 458;
},
{
layerId = m003;
shapes = (
{
closed = 1;
nodes = (
(319,-16,o),
(378,-4,o),
(417,24,c),
(403,138,l),
(376,121,o),
(336,109,o),
(299,109,cs),
(225,109,o),
(162,147,o),
(162,253,cs),
(162,345,o),
(224,404,o),
(302,404,cs),
(336,404,o),
(368,396,o),
(391,383,c),
(402,485,l),
(366,505,o),
(330,516,o),
(280,516,cs),
(156,516,o),
(30,418,o),
(30,254,cs),
(30,90,o),
(144,-16,o),
(263,-16,cs)
);
}
);
width = 437;
},
{
associatedMasterId = m003;
layerId = "3ADD0A0E-D1AA-4D61-A61B-210B7401A7A7";
name = "14 Jan 26 at 11:25";
shapes = (
{
closed = 1;
nodes = (
(328,-16,o),
(379,-6,o),
(418,22,c),
(418,74,l),
(415,74,l),
(379,47,o),
(331,30,o),
(276,30,cs),
(179,30,o),
(97,115,o),
(97,254,cs),
(97,392,o),
(178,470,o),
(278,470,cs),
(331,470,o),
(375,457,o),
(407,436,c),
(410,436,l),
(410,484,l),
(374,504,o),
(328,516,o),
(274,516,cs),
(143,516,o),
(40,418,o),
(40,254,cs),
(40,90,o),
(142,-16,o),
(272,-16,cs)
);
}
);
width = 458;
}
);
metricLeft = "=o";
unicode = 99;
},
{
glyphname = d;
kernLeft = o;
lastChange = "2026-01-15 10:57:48 +0000";
layers = (
{
layerId = "257EBA85-25A6-4EFE-A653-BCCD9A912022";
shapes = (
{
closed = 1;
nodes = (
(406,-16,o),
(495,88,o),
(495,265,cs),
(495,420,o),
(423,516,o),
(281,516,cs),
(149,516,o),
(40,420,o),
(40,244,cs),
(40,88,o),
(130,-16,o),
(263,-16,cs)
);
},
{
closed = 1;
nodes = (
(156,30,o),
(94,106,o),
(94,243,cs),
(94,401,o),
(175,470,o),
(283,470,cs),
(401,470,o),
(465,401,o),
(465,266,cs),
(465,106,o),
(380,30,o),
(263,30,cs)
);
},
{
closed = 1;
nodes = (
(517,0,l),
(517,730,l),
(465,730,l),
(465,126,l),
(466,0,l)
);
}
);
width = 597;
},
{
associatedMasterId = "257EBA85-25A6-4EFE-A653-BCCD9A912022";
layerId = "E4DB8C57-60A9-4FD6-B99B-7BA2AC81C279";
name = old;
shapes = (
{
closed = 1;
nodes = (
(503,800,l),
(463,800,l),
(463,0,l),
(503,0,l)
);
},
{
closed = 1;
nodes = (
(417,478,o),
(462,391,o),
(462,276,c),
(462,124,o),
(381,22,o),
(264,22,c),
(148,22,o),
(95,115,o),
(95,234,c),
(95,402,o),
(172,478,o),
(291,478,c)
);
},
{
closed = 1;
nodes = (
(150,516,o),
(54,422,o),
(54,234,c),
(54,99,o),
(120,-16,o),
(264,-16,c),
(407,-16,o),
(485,106,o),
(485,276,c),
(485,407,o),
(444,516,o),
(291,516,c)
);
}
);
width = 593;
},
{
layerId = m002;
shapes = (
{
closed = 1;
nodes = (
(335,-16,o),
(395,124,o),
(395,258,cs),
(395,382,o),
(323,516,o),
(206,516,cs),
(93,516,o),
(7,437,o),
(7,258,cs),
(7,39,o),
(107,-16,o),
(200,-16,cs)
);
},
{
closed = 1;
nodes = (
(253,184,o),
(243,218,o),
(243,252,cs),
(243,284,o),
(255,316,o),
(289,316,cs),
(323,316,o),
(330,284,o),
(330,252,cs),
(330,218,o),
(321,184,o),
(284,184,cs)
);
},
{
closed = 1;
nodes = (
(565,0,l),
(565,730,l),
(331,730,l),
(331,126,l),
(332,0,l)
);
}
);
width = 615;
},
{
associatedMasterId = m002;
layerId = "6729C032-899D-4055-AD66-D4A2289A64E4";
name = old;
shapes = (
{
closed = 1;
nodes = (
(503,800,l),
(463,800,l),
(463,0,l),
(503,0,l)
);
},
{
closed = 1;
nodes = (
(417,478,o),
(462,391,o),
(462,276,c),
(462,124,o),
(381,22,o),
(264,22,c),
(148,22,o),
(95,115,o),
(95,234,c),
(95,402,o),
(172,478,o),
(291,478,c)
);
},
{
closed = 1;
nodes = (
(150,516,o),
(54,422,o),
(54,234,c),
(54,99,o),
(120,-16,o),
(264,-16,c),
(407,-16,o),
(485,106,o),
(485,276,c),
(485,407,o),
(444,516,o),
(291,516,c)
);
}
);
width = 593;
},
{
layerId = m003;
shapes = (
{
closed = 1;
nodes = (
(383,4,o),
(458,149,o),
(458,260,cs),
(458,379,o),
(392,516,o),
(270,516,cs),
(138,516,o),
(30,420,o),
(30,260,cs),
(30,108,o),
(126,4,o),
(238,4,cs)
);
},
{
closed = 1;
nodes = (
(206,128,o),
(162,183,o),
(162,257,cs),
(162,341,o),
(217,392,o),
(281,392,cs),
(354,392,o),
(392,341,o),
(392,257,cs),
(392,183,o),
(342,128,o),
(270,128,cs)
);
},
{
closed = 1;
nodes = (
(522,0,l),
(522,730,l),
(392,730,l),
(392,126,l),
(403,0,l)
);
}
);
width = 572;
},
{
associatedMasterId = m003;
layerId = "2BAE6CE9-3469-4B59-A196-22CF4546D669";
name = old;
shapes = (
{
closed = 1;
nodes = (
(503,800,l),
(463,800,l),
(463,0,l),
(503,0,l)
);
},
{
closed = 1;
nodes = (
(417,478,o),
(462,391,o),
(462,276,c),
(462,124,o),
(381,22,o),
(264,22,c),
(148,22,o),
(95,115,o),
(95,234,c),
(95,402,o),
(172,478,o),
(291,478,c)
);
},
{
closed = 1;
nodes = (
(150,516,o),
(54,422,o),
(54,234,c),
(54,99,o),
(120,-16,o),
(264,-16,c),
(407,-16,o),
(485,106,o),
(485,276,c),
(485,407,o),
(444,516,o),
(291,516,c)
);
}
);
width = 593;
}
);
metricLeft = "=|b";
metricRight = "=|n";
unicode = 100;
},
{
glyphname = e;
kernLeft = o;
lastChange = "2026-01-15 10:57:48 +0000";
layers = (
{
anchors = (
{
name = top;
pos = (274,516);
}
);
background = {
shapes = (
{
ref = "es-cy";
}
);
};
layerId = "257EBA85-25A6-4EFE-A653-BCCD9A912022";
shapes = (
{
closed = 1;
nodes = (
(335,-16,o),
(394,-8,o),
(447,26,c),
(433,74,l),
(386,46,o),
(331,30,o),
(274,30,cs),
(165,30,o),
(94,90,o),
(94,244,cs),
(94,405,o),
(162,470,o),
(273,470,cs),
(407,470,o),
(422,377,o),
(422,301,cs),
(422,282,o),
(420,268,o),
(417,256,c),
(458,291,l),
(65,291,l),
(63,245,l),
(471,245,l),
(474,256,o),
(476,274,o),
(476,295,cs),
(476,375,o),
(446,516,o),
(274,516,cs),
(136,516,o),
(40,422,o),
(40,244,cs),
(40,90,o),
(121,-16,o),
(271,-16,cs)
);
}
);
width = 516;
},
{
anchors = (
{
name = top;
pos = (280,516);
}
);
background = {
shapes = (
{
pos = (6,0);
ref = "es-cy";
}
);
};
layerId = m002;
shapes = (
{
closed = 1;
nodes = (
(352,-16,o),
(400,-8,o),
(453,26,c),
(415,159,l),
(396,145,o),
(352,134,o),
(312,134,cs),
(240,134,o),
(219,184,o),
(219,231,cs),
(219,293,o),
(236,316,o),
(272,316,cs),
(313,316,o),
(320,286,o),
(317,265,cs),
(316,259,o),
(314,254,o),
(312,249,c),
(346,257,l),
(32,257,l),
(30,184,l),
(507,184,l),
(516,209,o),
(522,259,o),
(522,295,cs),
(522,375,o),
(439,516,o),
(267,516,cs),
(129,516,o),
(7,422,o),
(7,244,cs),
(7,90,o),
(105,-16,o),
(288,-16,cs)
);
}
);
width = 529;
},
{
anchors = (
{
name = top;
pos = (275,516);
}
);
background = {
shapes = (
{
pos = (1,0);
ref = "es-cy";
}
);
};
layerId = m003;
shapes = (
{
closed = 1;
nodes = (
(346,-16,o),
(417,0,o),
(458,26,c),
(408,140,l),
(371,116,o),
(329,108,o),
(275,108,cs),
(192,108,o),
(162,162,o),
(162,247,cs),
(162,348,o),
(199,392,o),
(270,392,cs),
(353,392,o),
(357,320,o),
(357,278,cs),
(357,268,o),
(356,260,o),
(355,253,c),
(469,301,l),
(56,301,l),
(54,201,l),
(472,201,l),
(484,226,o),
(487,274,o),
(487,295,cs),
(487,375,o),
(457,516,o),
(275,516,cs),
(127,516,o),
(30,422,o),
(30,244,cs),
(30,90,o),
(112,-16,o),
(272,-16,cs)
);
}
);
width = 517;
}
);
metricLeft = "=o";
metricRight = "=o";
unicode = 101;
},
{
glyphname = f;
lastChange = "2026-01-15 10:57:48 +0000";
layers = (
{
layerId = "257EBA85-25A6-4EFE-A653-BCCD9A912022";
shapes = (
{
closed = 1;
nodes = (
(152,0,l),
(152,521,ls),
(152,633,o),
(164,700,o),
(249,700,cs),
(271,700,o),
(290,694,o),
(305,688,c),
(314,730,l),
(295,739,o),
(269,746,o),
(238,746,cs),
(140,746,o),
(100,675,o),
(100,551,cs),
(100,0,l)
);
},
{
closed = 1;
nodes = (
(295,454,l),
(295,500,l),
(182,500,l),
(30,500,l),
(30,454,l)
);
}
);
width = 334;
},
{
layerId = m002;
shapes = (
{
closed = 1;
nodes = (
(298,0,l),
(298,513,ls),
(298,576,o),
(303,621,o),
(351,621,cs),
(374,621,o),
(392,612,o),
(404,605,c),
(425,694,l),
(396,718,o),
(341,746,o),
(249,746,cs),
(101,746,o),
(64,630,o),
(64,506,cs),
(64,0,l)
);
},
{
closed = 1;
nodes = (
(390,350,l),
(390,480,l),
(297,500,l),
(10,500,l),
(10,350,l)
);
}
);
width = 405;
},
{
layerId = m003;
shapes = (
{
closed = 1;
nodes = (
(212,0,l),
(212,544,ls),
(212,606,o),
(227,646,o),
(280,646,cs),
(299,646,o),
(313,640,o),
(322,633,c),
(337,722,l),
(323,730,o),
(291,746,o),
(243,746,cs),
(140,746,o),
(82,675,o),
(82,551,cs),
(82,0,l)
);
},
{
closed = 1;
nodes = (
(295,376,l),
(295,490,l),
(182,500,l),
(30,500,l),
(30,376,l)
);
}
);
width = 361;
}
);
unicode = 102;
},
{
glyphname = g;
kernLeft = o;
lastChange = "2026-01-15 10:57:48 +0000";
layers = (
{
layerId = "257EBA85-25A6-4EFE-A653-BCCD9A912022";
shapes = (
{
closed = 1;
nodes = (
(464,-216,o),
(517,-96,o),
(517,100,cs),
(517,500,l),
(465,500,l),
(465,66,ls),
(465,-71,o),
(415,-170,o),
(283,-170,cs),
(233,-170,o),
(174,-160,o),
(120,-136,c),
(103,-185,l),
(148,-209,o),
(241,-216,o),
(270,-216,cs)
);
},
{
closed = 1;
nodes = (
(406,-16,o),
(499,88,o),
(499,260,cs),
(499,420,o),
(425,516,o),
(283,516,cs),
(151,516,o),
(40,420,o),
(40,260,cs),
(40,88,o),
(130,-16,o),
(263,-16,cs)
);
},
{
closed = 1;
nodes = (
(167,30,o),
(94,111,o),
(94,260,cs),
(94,396,o),
(185,470,o),
(289,470,cs),
(403,470,o),
(465,396,o),
(465,260,cs),
(465,111,o),
(383,30,o),
(270,30,cs)
);
}
);
width = 597;
},
{
associatedMasterId = "257EBA85-25A6-4EFE-A653-BCCD9A912022";
layerId = "7B494412-5097-4389-9375-CB8CEDAAD499";
name = old;
shapes = (
{
closed = 1;
nodes = (
(407,478,o),
(462,391,o),
(462,276,c),
(462,124,o),
(385,22,o),
(268,22,c),
(152,22,o),
(95,115,o),
(95,234,c),
(95,402,o),
(172,478,o),
(291,478,c)
);
},
{
closed = 1;
nodes = (
(150,516,o),
(54,422,o),
(54,234,c),
(54,99,o),
(124,-16,o),
(268,-16,c),
(411,-16,o),
(482,106,o),
(482,276,c),
(482,407,o),
(435,516,o),
(291,516,c)
);
},
{
closed = 1;
nodes = (
(128,-191,l),
(171,-205,o),
(236,-216,o),
(283,-216,c),
(434,-216,o),
(502,-111,o),
(502,55,c),
(502,500,l),
(462,500,l),
(462,55,l),
(462,-95,o),
(407,-178,o),
(283,-178,c),
(233,-178,o),
(167,-167,o),
(128,-150,c)
);
}
);
width = 592;
},
{
associatedMasterId = "257EBA85-25A6-4EFE-A653-BCCD9A912022";
layerId = "C5F146A4-19B3-4A72-9204-1BF28178D037";
name = "14 Jan 26 at 03:12";
shapes = (
{
closed = 1;
nodes = (
(465,500,l),
(465,66,ls),
(465,-71,o),
(415,-170,o),
(283,-170,cs),
(229,-170,o),
(163,-159,o),
(106,-130,c),
(103,-130,l),
(103,-185,l),
(148,-209,o),
(241,-216,o),
(270,-216,cs),
(464,-216,o),
(517,-96,o),
(517,100,cs),
(517,500,l)
);
},
{
closed = 1;
nodes = (
(406,-16,o),
(499,88,o),
(499,260,cs),
(499,420,o),
(425,516,o),
(283,516,cs),
(151,516,o),
(40,420,o),
(40,260,cs),
(40,88,o),
(130,-16,o),
(263,-16,cs)
);
},
{
closed = 1;
nodes = (
(167,30,o),
(94,111,o),
(94,260,cs),
(94,396,o),
(185,470,o),
(289,470,cs),
(403,470,o),
(465,396,o),
(465,260,cs),
(465,111,o),
(383,30,o),
(270,30,cs)
);
}
);
width = 597;
},
{
layerId = m002;
shapes = (
{
closed = 1;
nodes = (
(451,-216,o),
(564,-72,o),
(564,124,cs),
(564,500,l),
(330,500,l),
(330,66,ls),
(330,-7,o),
(278,-52,o),
(228,-52,cs),
(178,-52,o),
(132,-42,o),
(95,-19,c),
(48,-185,l),
(96,-208,o),
(152,-216,o),
(228,-216,cs)
);
},
{
closed = 1;
nodes = (
(335,30,o),
(395,124,o),
(395,258,cs),
(395,382,o),
(323,516,o),
(206,516,cs),
(93,516,o),
(7,437,o),
(7,258,cs),
(7,79,o),
(107,30,o),
(200,30,cs)
);
},
{
closed = 1;
nodes = (
(252,184,o),
(243,218,o),
(243,252,cs),
(243,284,o),
(257,316,o),
(289,316,cs),
(321,316,o),
(330,284,o),
(330,252,cs),
(330,218,o),
(321,184,o),
(284,184,cs)
);
}
);
width = 614;
},
{
associatedMasterId = m002;
layerId = "AE0A0668-F29F-46C4-A51B-DCC99CCEDD29";
name = old;
shapes = (
{
closed = 1;
nodes = (
(407,478,o),
(462,391,o),
(462,276,c),
(462,124,o),
(385,22,o),
(268,22,c),
(152,22,o),
(95,115,o),
(95,234,c),
(95,402,o),
(172,478,o),
(291,478,c)
);
},
{
closed = 1;
nodes = (
(150,516,o),
(54,422,o),
(54,234,c),
(54,99,o),
(124,-16,o),
(268,-16,c),
(411,-16,o),
(482,106,o),
(482,276,c),
(482,407,o),
(435,516,o),
(291,516,c)
);
},
{
closed = 1;
nodes = (
(128,-191,l),
(171,-205,o),
(236,-216,o),
(283,-216,c),
(434,-216,o),
(502,-111,o),
(502,55,c),
(502,500,l),
(462,500,l),
(462,55,l),
(462,-95,o),
(407,-178,o),
(283,-178,c),
(233,-178,o),
(167,-167,o),
(128,-150,c)
);
}
);
width = 592;
},
{
associatedMasterId = m002;
layerId = "64B0F7CE-4CA7-4DC4-A41E-F2B0F3C171C1";
name = "14 Jan 26 at 03:12";
shapes = (
{
closed = 1;
nodes = (
(465,500,l),
(465,66,ls),
(465,-71,o),
(415,-170,o),
(283,-170,cs),
(229,-170,o),
(163,-159,o),
(106,-130,c),
(103,-130,l),
(103,-185,l),
(148,-209,o),
(241,-216,o),
(270,-216,cs),
(464,-216,o),
(517,-96,o),
(517,100,cs),
(517,500,l)
);
},
{
closed = 1;
nodes = (
(406,-16,o),
(499,88,o),
(499,260,cs),
(499,420,o),
(425,516,o),
(283,516,cs),
(151,516,o),
(40,420,o),
(40,260,cs),
(40,88,o),
(130,-16,o),
(263,-16,cs)
);
},
{
closed = 1;
nodes = (
(167,30,o),
(94,111,o),
(94,260,cs),
(94,396,o),
(185,470,o),
(289,470,cs),
(403,470,o),
(465,396,o),
(465,260,cs),
(465,111,o),
(383,30,o),
(270,30,cs)
);
}
);
width = 597;
},
{
layerId = m003;
shapes = (
{
closed = 1;
nodes = (
(428,-216,o),
(522,-96,o),
(522,100,cs),
(522,500,l),
(392,500,l),
(392,83,ls),
(392,-31,o),
(366,-93,o),
(275,-93,cs),
(244,-93,o),
(189,-87,o),
(146,-60,c),
(79,-164,l),
(143,-213,o),
(227,-216,o),
(264,-216,cs)
);
},
{
closed = 1;
nodes = (
(383,4,o),
(458,149,o),
(458,260,cs),
(458,379,o),
(392,516,o),
(270,516,cs),
(138,516,o),
(30,420,o),
(30,260,cs),
(30,108,o),
(126,4,o),
(238,4,cs)
);
},
{
closed = 1;
nodes = (
(206,128,o),
(162,183,o),
(162,257,cs),
(162,341,o),
(217,392,o),
(281,392,cs),
(354,392,o),
(392,341,o),
(392,257,cs),
(392,183,o),
(342,128,o),
(270,128,cs)
);
}
);
width = 572;
},
{
associatedMasterId = m003;
layerId = "B92CCE78-3881-40FA-8F7B-DC56B280DEC5";
name = old;
shapes = (
{
closed = 1;
nodes = (
(407,478,o),
(462,391,o),
(462,276,c),
(462,124,o),
(385,22,o),
(268,22,c),
(152,22,o),
(95,115,o),
(95,234,c),
(95,402,o),
(172,478,o),
(291,478,c)
);
},
{
closed = 1;
nodes = (
(150,516,o),
(54,422,o),
(54,234,c),
(54,99,o),
(124,-16,o),
(268,-16,c),
(411,-16,o),
(482,106,o),
(482,276,c),
(482,407,o),
(435,516,o),
(291,516,c)
);
},
{
closed = 1;
nodes = (
(128,-191,l),
(171,-205,o),
(236,-216,o),
(283,-216,c),
(434,-216,o),
(502,-111,o),
(502,55,c),
(502,500,l),
(462,500,l),
(462,55,l),
(462,-95,o),
(407,-178,o),
(283,-178,c),
(233,-178,o),
(167,-167,o),
(128,-150,c)
);
}
);
width = 592;
},
{
associatedMasterId = m003;
layerId = "26D8CB38-A4CA-4A05-9585-6D5A3A7C9130";
name = "14 Jan 26 at 03:12";
shapes = (
{
closed = 1;
nodes = (
(465,500,l),
(465,66,ls),
(465,-71,o),
(415,-170,o),
(283,-170,cs),
(229,-170,o),
(163,-159,o),
(106,-130,c),
(103,-130,l),
(103,-185,l),
(148,-209,o),
(241,-216,o),
(270,-216,cs),
(464,-216,o),
(517,-96,o),
(517,100,cs),
(517,500,l)
);
},
{
closed = 1;
nodes = (
(406,-16,o),
(499,88,o),
(499,260,cs),
(499,420,o),
(425,516,o),
(283,516,cs),
(151,516,o),
(40,420,o),
(40,260,cs),
(40,88,o),
(130,-16,o),
(263,-16,cs)
);
},
{
closed = 1;
nodes = (
(167,30,o),
(94,111,o),
(94,260,cs),
(94,396,o),
(185,470,o),
(289,470,cs),
(403,470,o),
(465,396,o),
(465,260,cs),
(465,111,o),
(383,30,o),
(270,30,cs)
);
}
);
width = 597;
}
);
metricLeft = "=o";
metricRight = "=|n";
unicode = 103;
},
{
glyphname = g.001;
kernLeft = o;
lastChange = "2026-01-19 08:42:15 +0000";
layers = (
{
anchors = (
{
name = top;
pos = (268,500);
}
);
layerId = "257EBA85-25A6-4EFE-A653-BCCD9A912022";
shapes = (
{
closed = 1;
nodes = (
(373,-215,o),
(510,-181,o),
(510,-43,cs),
(510,49,o),
(447,95,o),
(299,95,cs),
(256,95,o),
(164,88,o),
(164,126,cs),
(164,153,o),
(193,175,o),
(228,168,c),
(182,200,l),
(159,192,o),
(109,173,o),
(109,128,cs),
(109,44,o),
(209,43,o),
(283,43,cs),
(430,43,o),
(458,4,o),
(458,-49,cs),
(458,-152,o),
(372,-169,o),
(278,-169,cs),
(190,-169,o),
(94,-146,o),
(94,-66,cs),
(94,-22,o),
(114,0,o),
(137,17,c),
(96,43,l),
(65,19,o),
(43,-10,o),
(43,-69,cs),
(43,-188,o),
(178,-215,o),
(277,-215,cs)
);
},
{
closed = 1;
nodes = (
(402,166,o),
(496,228,o),
(496,341,cs),
(496,454,o),
(402,516,o),
(268,516,cs),
(134,516,o),
(40,454,o),
(40,341,cs),
(40,228,o),
(134,166,o),
(268,166,cs)
);
},
{
closed = 1;
nodes = (
(166,211,o),
(91,254,o),
(91,341,cs),
(91,427,o),
(166,470,o),
(268,470,cs),
(370,470,o),
(444,427,o),
(444,341,cs),
(444,254,o),
(370,211,o),
(268,211,cs)
);
},
{
closed = 1;
nodes = (
(529,516,l),
(475,503,o),
(421,509,o),
(268,516,c),
(385,478,l),
(444,464,o),
(486,463,o),
(523,469,c)
);
}
);
width = 562;
},
{
associatedMasterId = "257EBA85-25A6-4EFE-A653-BCCD9A912022";
layerId = "7B494412-5097-4389-9375-CB8CEDAAD499";
name = old;
shapes = (
{
closed = 1;
nodes = (
(407,478,o),
(462,391,o),
(462,276,c),
(462,124,o),
(385,22,o),
(268,22,c),
(152,22,o),
(95,115,o),
(95,234,c),
(95,402,o),
(172,478,o),
(291,478,c)
);
},
{
closed = 1;
nodes = (
(150,516,o),
(54,422,o),
(54,234,c),
(54,99,o),
(124,-16,o),
(268,-16,c),
(411,-16,o),
(482,106,o),
(482,276,c),
(482,407,o),
(435,516,o),
(291,516,c)
);
},
{
closed = 1;
nodes = (
(128,-191,l),
(171,-205,o),
(236,-216,o),
(283,-216,c),
(434,-216,o),
(502,-111,o),
(502,55,c),
(502,500,l),
(462,500,l),
(462,55,l),
(462,-95,o),
(407,-178,o),
(283,-178,c),
(233,-178,o),
(167,-167,o),
(128,-150,c)
);
}
);
width = 592;
},
{
anchors = (
{
name = top;
pos = (268,500);
}
);
associatedMasterId = "257EBA85-25A6-4EFE-A653-BCCD9A912022";
layerId = "AE78FE44-5D8D-44AD-9328-DEC421730517";
name = "14 Jan 26 at 03:12";
shapes = (
{
closed = 1;
nodes = (
(402,166,o),
(496,228,o),
(496,341,cs),
(496,454,o),
(402,516,o),
(268,516,cs),
(134,516,o),
(40,454,o),
(40,341,cs),
(40,228,o),
(134,166,o),
(268,166,cs)
);
},
{
closed = 1;
nodes = (
(166,211,o),
(91,254,o),
(91,341,cs),
(91,427,o),
(166,470,o),
(268,470,cs),
(370,470,o),
(444,427,o),
(444,341,cs),
(444,254,o),
(370,211,o),
(268,211,cs)
);
},
{
closed = 1;
nodes = (
(529,516,l),
(475,503,o),
(421,509,o),
(268,516,c),
(385,478,l),
(444,464,o),
(486,463,o),
(523,469,c)
);
},
{
closed = 1;
nodes = (
(96,43,l),
(65,19,o),
(43,-10,o),
(43,-69,cs),
(43,-188,o),
(178,-215,o),
(277,-215,cs),
(373,-215,o),
(510,-181,o),
(510,-43,cs),
(510,49,o),
(447,95,o),
(299,95,cs),
(256,95,o),
(164,88,o),
(164,126,cs),
(164,153,o),
(193,175,o),
(228,168,c),
(182,200,l),
(159,192,o),
(109,173,o),
(109,128,cs),
(109,44,o),
(209,43,o),
(283,43,cs),
(430,43,o),
(458,4,o),
(458,-49,cs),
(458,-152,o),
(372,-169,o),
(278,-169,cs),
(190,-169,o),
(94,-146,o),
(94,-66,cs),
(94,-22,o),
(114,0,o),
(137,17,c)
);
}
);
width = 562;
},
{
anchors = (
{
name = top;
pos = (277,500);
}
);
layerId = m002;
shapes = (
{
closed = 1;
nodes = (
(396,-215,o),
(519,-181,o),
(519,-56,cs),
(519,33,o),
(453,64,o),
(378,78,cs),
(321,89,o),
(265,95,o),
(265,126,cs),
(265,143,o),
(271,151,o),
(286,158,c),
(191,200,l),
(168,192,o),
(108,159,o),
(108,86,cs),
(108,18,o),
(202,-8,o),
(292,-24,cs),
(335,-31,o),
(367,-41,o),
(367,-60,cs),
(367,-85,o),
(323,-91,o),
(286,-91,cs),
(249,-91,o),
(215,-80,o),
(215,-56,cs),
(215,-47,o),
(220,-38,o),
(227,-31,c),
(95,25,l),
(64,1,o),
(52,-24,o),
(52,-66,cs),
(52,-183,o),
(187,-215,o),
(286,-215,cs)
);
},
{
closed = 1;
nodes = (
(436,102,o),
(547,175,o),
(547,309,cs),
(547,443,o),
(436,516,o),
(277,516,cs),
(118,516,o),
(7,443,o),
(7,309,cs),
(7,175,o),
(118,102,o),
(277,102,cs)
);
},
{
closed = 1;
nodes = (
(230,261,o),
(196,281,o),
(196,321,cs),
(196,360,o),
(230,380,o),
(277,380,cs),
(323,380,o),
(357,360,o),
(357,321,cs),
(357,281,o),
(323,261,o),
(277,261,cs)
);
},
{
closed = 1;
nodes = (
(554,516,l),
(500,503,o),
(430,509,o),
(277,516,c),
(479,438,l),
(513,413,o),
(513,413,o),
(545,401,c)
);
}
);
width = 571;
},
{
associatedMasterId = m002;
layerId = "8AED7150-3F21-4085-AC95-E7CE7A21EE90";
name = old;
shapes = (
{
closed = 1;
nodes = (
(407,478,o),
(462,391,o),
(462,276,c),
(462,124,o),
(385,22,o),
(268,22,c),
(152,22,o),
(95,115,o),
(95,234,c),
(95,402,o),
(172,478,o),
(291,478,c)
);
},
{
closed = 1;
nodes = (
(150,516,o),
(54,422,o),
(54,234,c),
(54,99,o),
(124,-16,o),
(268,-16,c),
(411,-16,o),
(482,106,o),
(482,276,c),
(482,407,o),
(435,516,o),
(291,516,c)
);
},
{
closed = 1;
nodes = (
(128,-191,l),
(171,-205,o),
(236,-216,o),
(283,-216,c),
(434,-216,o),
(502,-111,o),
(502,55,c),
(502,500,l),
(462,500,l),
(462,55,l),
(462,-95,o),
(407,-178,o),
(283,-178,c),
(233,-178,o),
(167,-167,o),
(128,-150,c)
);
}
);
width = 592;
},
{
anchors = (
{
name = top;
pos = (268,500);
}
);
associatedMasterId = m002;
layerId = "7C25AEA6-0A9E-4329-988F-738AAB272A8E";
name = "14 Jan 26 at 03:12";
shapes = (
{
closed = 1;
nodes = (
(402,166,o),
(496,228,o),
(496,341,cs),
(496,454,o),
(402,516,o),
(268,516,cs),
(134,516,o),
(40,454,o),
(40,341,cs),
(40,228,o),
(134,166,o),
(268,166,cs)
);
},
{
closed = 1;
nodes = (
(166,211,o),
(91,254,o),
(91,341,cs),
(91,427,o),
(166,470,o),
(268,470,cs),
(370,470,o),
(444,427,o),
(444,341,cs),
(444,254,o),
(370,211,o),
(268,211,cs)
);
},
{
closed = 1;
nodes = (
(529,516,l),
(475,503,o),
(421,509,o),
(268,516,c),
(385,478,l),
(444,464,o),
(486,463,o),
(523,469,c)
);
},
{
closed = 1;
nodes = (
(96,43,l),
(65,19,o),
(43,-10,o),
(43,-69,cs),
(43,-188,o),
(178,-215,o),
(277,-215,cs),
(373,-215,o),
(510,-181,o),
(510,-43,cs),
(510,49,o),
(447,95,o),
(299,95,cs),
(256,95,o),
(164,88,o),
(164,126,cs),
(164,153,o),
(193,175,o),
(228,168,c),
(182,200,l),
(159,192,o),
(109,173,o),
(109,128,cs),
(109,44,o),
(209,43,o),
(283,43,cs),
(430,43,o),
(458,4,o),
(458,-49,cs),
(458,-152,o),
(372,-169,o),
(278,-169,cs),
(190,-169,o),
(94,-146,o),
(94,-66,cs),
(94,-22,o),
(114,0,o),
(137,17,c)
);
}
);
width = 562;
},
{
anchors = (
{
name = top;
pos = (258,500);
}
);
layerId = m003;
shapes = (
{
closed = 1;
nodes = (
(363,-215,o),
(500,-181,o),
(500,-43,cs),
(500,49,o),
(437,95,o),
(289,95,cs),
(246,95,o),
(154,88,o),
(154,126,cs),
(154,153,o),
(183,175,o),
(218,168,c),
(172,200,l),
(149,192,o),
(99,173,o),
(99,128,cs),
(99,44,o),
(199,43,o),
(273,43,cs),
(420,43,o),
(448,4,o),
(448,-49,cs),
(448,-152,o),
(362,-169,o),
(268,-169,cs),
(180,-169,o),
(84,-146,o),
(84,-66,cs),
(84,-22,o),
(104,0,o),
(127,17,c),
(86,43,l),
(55,19,o),
(33,-10,o),
(33,-69,cs),
(33,-188,o),
(168,-215,o),
(267,-215,cs)
);
},
{
closed = 1;
nodes = (
(392,166,o),
(486,228,o),
(486,341,cs),
(486,454,o),
(392,516,o),
(258,516,cs),
(124,516,o),
(30,454,o),
(30,341,cs),
(30,228,o),
(124,166,o),
(258,166,cs)
);
},
{
closed = 1;
nodes = (
(156,211,o),
(81,254,o),
(81,341,cs),
(81,427,o),
(156,470,o),
(258,470,cs),
(360,470,o),
(434,427,o),
(434,341,cs),
(434,254,o),
(360,211,o),
(258,211,cs)
);
},
{
closed = 1;
nodes = (
(519,516,l),
(465,503,o),
(411,509,o),
(258,516,c),
(375,478,l),
(434,464,o),
(476,463,o),
(513,469,c)
);
}
);
width = 552;
},
{
associatedMasterId = m003;
layerId = "9959B8E7-C2D5-40BA-8E8F-94BEB44FC72A";
name = old;
shapes = (
{
closed = 1;
nodes = (
(407,478,o),
(462,391,o),
(462,276,c),
(462,124,o),
(385,22,o),
(268,22,c),
(152,22,o),
(95,115,o),
(95,234,c),
(95,402,o),
(172,478,o),
(291,478,c)
);
},
{
closed = 1;
nodes = (
(150,516,o),
(54,422,o),
(54,234,c),
(54,99,o),
(124,-16,o),
(268,-16,c),
(411,-16,o),
(482,106,o),
(482,276,c),
(482,407,o),
(435,516,o),
(291,516,c)
);
},
{
closed = 1;
nodes = (
(128,-191,l),
(171,-205,o),
(236,-216,o),
(283,-216,c),
(434,-216,o),
(502,-111,o),
(502,55,c),
(502,500,l),
(462,500,l),
(462,55,l),
(462,-95,o),
(407,-178,o),
(283,-178,c),
(233,-178,o),
(167,-167,o),
(128,-150,c)
);
}
);
width = 592;
},
{
anchors = (
{
name = top;
pos = (268,500);
}
);
associatedMasterId = m003;
layerId = "3B8798DB-8654-43EE-ABBE-A9916E808DC5";
name = "14 Jan 26 at 03:12";
shapes = (
{
closed = 1;
nodes = (
(402,166,o),
(496,228,o),
(496,341,cs),
(496,454,o),
(402,516,o),
(268,516,cs),
(134,516,o),
(40,454,o),
(40,341,cs),
(40,228,o),
(134,166,o),
(268,166,cs)
);
},
{
closed = 1;
nodes = (
(166,211,o),
(91,254,o),
(91,341,cs),
(91,427,o),
(166,470,o),
(268,470,cs),
(370,470,o),
(444,427,o),
(444,341,cs),
(444,254,o),
(370,211,o),
(268,211,cs)
);
},
{
closed = 1;
nodes = (
(529,516,l),
(475,503,o),
(421,509,o),
(268,516,c),
(385,478,l),
(444,464,o),
(486,463,o),
(523,469,c)
);
},
{
closed = 1;
nodes = (
(96,43,l),
(65,19,o),
(43,-10,o),
(43,-69,cs),
(43,-188,o),
(178,-215,o),
(277,-215,cs),
(373,-215,o),
(510,-181,o),
(510,-43,cs),
(510,49,o),
(447,95,o),
(299,95,cs),
(256,95,o),
(164,88,o),
(164,126,cs),
(164,153,o),
(193,175,o),
(228,168,c),
(182,200,l),
(159,192,o),
(109,173,o),
(109,128,cs),
(109,44,o),
(209,43,o),
(283,43,cs),
(430,43,o),
(458,4,o),
(458,-49,cs),
(458,-152,o),
(372,-169,o),
(278,-169,cs),
(190,-169,o),
(94,-146,o),
(94,-66,cs),
(94,-22,o),
(114,0,o),
(137,17,c)
);
}
);
width = 562;
}
);
metricLeft = "=o";
},
{
glyphname = h;
kernLeft = h;
kernRight = n;
lastChange = "2026-01-15 10:57:48 +0000";
layers = (
{
layerId = "257EBA85-25A6-4EFE-A653-BCCD9A912022";
shapes = (
{
closed = 1;
nodes = (
(509,0,l),
(509,335,ls),
(509,467,o),
(408,516,o),
(322,516,cs),
(221,516,o),
(97,455,o),
(97,234,c),
(132,234,l),
(132,424,o),
(239,470,o),
(321,470,cs),
(376,470,o),
(456,456,o),
(457,335,cs),
(459,0,l)
);
},
{
closed = 1;
nodes = (
(132,0,l),
(132,730,l),
(80,730,l),
(80,0,l)
);
}
);
width = 568;
},
{
associatedMasterId = "257EBA85-25A6-4EFE-A653-BCCD9A912022";
layerId = "0D9D08A3-8C31-4C7B-9CD9-901E2339462B";
name = "24 Jan 24 at 00:06";
shapes = (
{
closed = 1;
nodes = (
(496,0,l),
(496,345,ls),
(496,467,o),
(405,516,o),
(320,516,cs),
(219,516,o),
(104,448,o),
(104,134,c),
(130,134,l),
(130,417,o),
(228,478,o),
(319,478,cs),
(389,478,o),
(454,441,o),
(455,345,cs),
(457,0,l)
);
},
{
closed = 1;
nodes = (
(130,0,l),
(130,800,l),
(90,800,l),
(90,0,l)
);
}
);
width = 572;
},
{
layerId = m002;
shapes = (
{
closed = 1;
nodes = (
(607,0,l),
(607,241,ls),
(607,373,o),
(582,516,o),
(446,516,cs),
(296,516,o),
(222,341,o),
(222,120,c),
(284,120,l),
(284,225,o),
(290,328,o),
(339,328,cs),
(370,328,o),
(372,289,o),
(373,229,cs),
(375,0,l)
);
},
{
closed = 1;
nodes = (
(284,0,l),
(284,730,l),
(50,730,l),
(50,0,l)
);
}
);
width = 643;
},
{
associatedMasterId = m002;
layerId = "37993FD3-1CF4-4B3B-89A8-C5D77988D845";
name = "24 Jan 24 at 00:06";
shapes = (
{
closed = 1;
nodes = (
(496,0,l),
(496,345,ls),
(496,467,o),
(405,516,o),
(320,516,cs),
(219,516,o),
(104,448,o),
(104,134,c),
(130,134,l),
(130,417,o),
(228,478,o),
(319,478,cs),
(389,478,o),
(454,441,o),
(455,345,cs),
(457,0,l)
);
},
{
closed = 1;
nodes = (
(130,0,l),
(130,800,l),
(90,800,l),
(90,0,l)
);
}
);
width = 572;
},
{
layerId = m003;
shapes = (
{
closed = 1;
nodes = (
(526,0,l),
(526,302,ls),
(526,447,o),
(442,516,o),
(344,516,cs),
(229,516,o),
(125,464,o),
(125,245,c),
(180,245,l),
(180,331,o),
(232,391,o),
(308,391,cs),
(378,391,o),
(396,342,o),
(396,266,cs),
(396,0,l)
);
},
{
closed = 1;
nodes = (
(180,0,l),
(180,730,l),
(50,730,l),
(50,0,l)
);
}
);
width = 566;
},
{
associatedMasterId = m003;
layerId = "02F0EF39-064A-4B59-8B30-27FFADA0AE14";
name = "24 Jan 24 at 00:06";
shapes = (
{
closed = 1;
nodes = (
(496,0,l),
(496,345,ls),
(496,467,o),
(405,516,o),
(320,516,cs),
(219,516,o),
(104,448,o),
(104,134,c),
(130,134,l),
(130,417,o),
(228,478,o),
(319,478,cs),
(389,478,o),
(454,441,o),
(455,345,cs),
(457,0,l)
);
},
{
closed = 1;
nodes = (
(130,0,l),
(130,800,l),
(90,800,l),
(90,0,l)
);
}
);
width = 572;
}
);
metricLeft = "=n";
metricRight = "=n";
unicode = 104;
},
{
glyphname = idotless;
lastChange = "2026-01-15 10:57:48 +0000";
layers = (
{
anchors = (
{
name = top;
pos = (106,500);
}
);
layerId = "257EBA85-25A6-4EFE-A653-BCCD9A912022";
shapes = (
{
closed = 1;
nodes = (
(132,0,l),
(132,500,l),
(80,500,l),
(80,0,l)
);
}
);
width = 212;
},
{
anchors = (
{
name = top;
pos = (167,500);
}
);
layerId = m002;
shapes = (
{
closed = 1;
nodes = (
(284,0,l),
(284,500,l),
(50,500,l),
(50,0,l)
);
}
);
width = 334;
},
{
anchors = (
{
name = top;
pos = (115,500);
}
);
layerId = m003;
shapes = (
{
closed = 1;
nodes = (
(180,0,l),
(180,500,l),
(50,500,l),
(50,0,l)
);
}
);
width = 230;
}
);
metricLeft = "=n";
metricRight = "=|";
unicode = 305;
},
{
glyphname = j;
lastChange = "2026-01-15 10:57:48 +0000";
layers = (
{
layerId = "257EBA85-25A6-4EFE-A653-BCCD9A912022";
shapes = (
{
closed = 1;
nodes = (
(175,-216,o),
(208,-153,o),
(208,-20,cs),
(208,500,l),
(156,500,l),
(156,2,ls),
(156,-104,o),
(143,-169,o),
(66,-169,cs),
(47,-169,o),
(32,-164,o),
(19,-159,c),
(5,-206,l),
(26,-213,o),
(47,-216,o),
(73,-216,cs)
);
},
{
ref = dotaccentcomb;
}
);
width = 288;
},
{
layerId = m002;
shapes = (
{
closed = 1;
nodes = (
(288,-216,o),
(396,-130,o),
(396,47,cs),
(396,500,l),
(162,500,l),
(162,51,ls),
(162,-23,o),
(156,-60,o),
(112,-60,cs),
(78,-60,o),
(56,-53,o),
(42,-44,c),
(10,-193,l),
(55,-209,o),
(99,-216,o),
(161,-216,cs)
);
},
{
pos = (98,0);
ref = dotaccentcomb;
}
);
width = 444;
},
{
layerId = m003;
shapes = (
{
closed = 1;
nodes = (
(199,-216,o),
(278,-130,o),
(278,3,cs),
(278,500,l),
(148,500,l),
(148,-9,ls),
(148,-71,o),
(123,-93,o),
(86,-93,cs),
(65,-93,o),
(42,-88,o),
(29,-83,c),
(-5,-196,l),
(16,-207,o),
(47,-216,o),
(87,-216,cs)
);
},
{
pos = (32,0);
ref = dotaccentcomb;
}
);
width = 328;
}
);
metricRight = "=|n@10";
unicode = 106;
},
{
glyphname = k;
kernLeft = h;
lastChange = "2026-01-15 10:57:48 +0000";
layers = (
{
background = {
shapes = (
{
pos = (2,0);
ref = n;
}
);
};
layerId = "257EBA85-25A6-4EFE-A653-BCCD9A912022";
shapes = (
{
closed = 1;
nodes = (
(509,0,l),
(201,292,l),
(201,278,l),
(466,500,l),
(389,500,l),
(132,286,l),
(433,0,l)
);
},
{
closed = 1;
nodes = (
(132,0,l),
(132,730,l),
(80,730,l),
(80,0,l)
);
}
);
width = 519;
},
{
associatedMasterId = "257EBA85-25A6-4EFE-A653-BCCD9A912022";
background = {
shapes = (
{
pos = (2,0);
ref = n;
}
);
};
layerId = "F91874F7-4EB3-46FE-A377-84BC81FD4AA8";
name = "14 Jan 26 at 11:22";
shapes = (
{
closed = 1;
nodes = (
(509,0,l),
(201,292,l),
(202,282,l),
(486,500,l),
(411,500,l),
(132,286,l),
(433,0,l)
);
},
{
closed = 1;
nodes = (
(132,0,l),
(132,730,l),
(80,730,l),
(80,0,l)
);
}
);
width = 519;
},
{
background = {
shapes = (
{
pos = (154,0);
ref = n;
}
);
};
layerId = m002;
shapes = (
{
closed = 1;
nodes = (
(661,0,l),
(480,347,l),
(441,221,l),
(618,500,l),
(424,500,l),
(284,286,l),
(429,0,l)
);
},
{
closed = 1;
nodes = (
(284,0,l),
(284,730,l),
(50,730,l),
(50,0,l)
);
}
);
width = 671;
},
{
associatedMasterId = m002;
background = {
shapes = (
{
pos = (2,0);
ref = n;
}
);
};
layerId = "A25C6B35-19B3-483A-A088-CBC7F33AAB1C";
name = "14 Jan 26 at 11:22";
shapes = (
{
closed = 1;
nodes = (
(509,0,l),
(201,292,l),
(202,282,l),
(486,500,l),
(411,500,l),
(132,286,l),
(433,0,l)
);
},
{
closed = 1;
nodes = (
(132,0,l),
(132,730,l),
(80,730,l),
(80,0,l)
);
}
);
width = 519;
},
{
background = {
shapes = (
{
pos = (50,0);
ref = n;
}
);
};
layerId = m003;
shapes = (
{
closed = 1;
nodes = (
(537,0,l),
(330,303,l),
(321,275,l),
(504,500,l),
(354,500,l),
(180,286,l),
(373,0,l)
);
},
{
closed = 1;
nodes = (
(180,0,l),
(180,730,l),
(50,730,l),
(50,0,l)
);
}
);
width = 542;
},
{
associatedMasterId = m003;
background = {
shapes = (
{
pos = (2,0);
ref = n;
}
);
};
layerId = "BC38C687-80A1-46C5-AE83-994BA8336862";
name = "14 Jan 26 at 11:22";
shapes = (
{
closed = 1;
nodes = (
(509,0,l),
(201,292,l),
(202,282,l),
(486,500,l),
(411,500,l),
(132,286,l),
(433,0,l)
);
},
{
closed = 1;
nodes = (
(132,0,l),
(132,730,l),
(80,730,l),
(80,0,l)
);
}
);
width = 519;
}
);
metricLeft = "=n";
metricRight = "=x";
unicode = 107;
},
{
glyphname = l;
kernLeft = h;
lastChange = "2026-01-15 10:57:48 +0000";
layers = (
{
layerId = "257EBA85-25A6-4EFE-A653-BCCD9A912022";
shapes = (
{
closed = 1;
nodes = (
(132,0,l),
(132,730,l),
(80,730,l),
(80,0,l)
);
}
);
width = 212;
},
{
layerId = m002;
shapes = (
{
closed = 1;
nodes = (
(284,0,l),
(284,730,l),
(50,730,l),
(50,0,l)
);
}
);
width = 334;
},
{
layerId = m003;
shapes = (
{
closed = 1;
nodes = (
(180,0,l),
(180,730,l),
(50,730,l),
(50,0,l)
);
}
);
width = 230;
}
);
metricLeft = "=n";
metricRight = "=|n";
unicode = 108;
},
{
glyphname = l.001;
kernLeft = h;
lastChange = "2026-01-19 05:18:17 +0000";
layers = (
{
background = {
shapes = (
{
pos = (-28,0);
ref = t;
}
);
};
layerId = "257EBA85-25A6-4EFE-A653-BCCD9A912022";
shapes = (
{
closed = 1;
nodes = (
(187,-5,o),
(222,-4,o),
(251,13,c),
(236,54,l),
(220,46,o),
(202,41,o),
(180,41,cs),
(136,41,o),
(132,82,o),
(132,121,cs),
(132,730,l),
(80,730,l),
(80,101,ls),
(80,60,o),
(97,-5,o),
(173,-5,cs)
);
}
);
width = 272;
},
{
layerId = m002;
shapes = (
{
closed = 1;
nodes = (
(328,-5,o),
(385,18,o),
(423,40,c),
(391,167,l),
(377,160,o),
(353,155,o),
(333,155,cs),
(294,155,o),
(284,184,o),
(284,229,cs),
(284,730,l),
(50,730,l),
(50,184,ls),
(50,63,o),
(117,-5,o),
(239,-5,cs)
);
}
);
width = 439;
},
{
layerId = m003;
shapes = (
{
closed = 1;
nodes = (
(258,-5,o),
(299,7,o),
(322,20,c),
(294,131,l),
(281,124,o),
(250,118,o),
(231,118,cs),
(185,118,o),
(180,153,o),
(180,200,cs),
(180,730,l),
(50,730,l),
(50,182,ls),
(50,40,o),
(126,-5,o),
(219,-5,cs)
);
}
);
width = 332;
}
);
metricLeft = "=n";
},
{
glyphname = m;
kernLeft = n;
kernRight = n;
lastChange = "2026-01-19 08:46:04 +0000";
layers = (
{
layerId = "257EBA85-25A6-4EFE-A653-BCCD9A912022";
shapes = (
{
closed = 1;
nodes = (
(459,0,l),
(459,345,ls),
(459,467,o),
(379,516,o),
(293,516,cs),
(182,516,o),
(99,455,o),
(99,174,c),
(133,167,l),
(133,408,o),
(196,470,o),
(286,470,cs),
(338,470,o),
(405,449,o),
(406,332,cs),
(408,0,l)
);
},
{
closed = 1;
nodes = (
(132,0,l),
(132,381,l),
(130,500,l),
(80,500,l),
(80,0,l)
);
},
{
closed = 1;
nodes = (
(784,0,l),
(784,345,ls),
(784,467,o),
(704,516,o),
(618,516,cs),
(507,516,o),
(432,408,o),
(427,327,c),
(459,262,l),
(459,384,o),
(521,470,o),
(611,470,cs),
(663,470,o),
(730,449,o),
(731,332,cs),
(733,0,l)
);
}
);
width = 843;
},
{
associatedMasterId = "257EBA85-25A6-4EFE-A653-BCCD9A912022";
layerId = "96BE3A82-7481-4226-9090-C45B3E2CB845";
name = "24 Jan 24 at 00:06";
shapes = (
{
closed = 1;
nodes = (
(130,500,l),
(90,500,l),
(90,0,l),
(130,0,l)
);
},
{
closed = 1;
nodes = (
(448,345,l),
(448,466,o),
(380.565,516,o),
(293,516,c),
(213,516,o),
(106,449,o),
(106,134,c),
(130,134,l),
(130,418.569,o),
(225.808,478,o),
(293,478,c),
(361.435,478,o),
(408,442.233,o),
(408,345,c),
(408,0,l),
(448,0,l)
);
},
{
closed = 1;
nodes = (
(756,345,l),
(756,464.99,o),
(698.733,516,o),
(610,516,c),
(527.152,516,o),
(424,473,o),
(426,134,c),
(448,134.119,l),
(446.104,437.442,o),
(541.048,478,o),
(610,478,c),
(677.267,478,o),
(716,443.01,o),
(716,345,c),
(716,0,l),
(756,0,l)
);
}
);
width = 832;
},
{
associatedMasterId = "257EBA85-25A6-4EFE-A653-BCCD9A912022";
layerId = "219993DF-FB77-4CB3-A0E4-875C0BF8C2A3";
name = "22 Oct 25 at 17:41";
shapes = (
{
closed = 1;
nodes = (
(438,0,l),
(438,345,ls),
(438,466,o),
(371,516,o),
(293,516,cs),
(203,516,o),
(85,449,o),
(85,134,c),
(120,134,l),
(120,419,o),
(216,478,o),
(292,478,cs),
(351,478,o),
(398,442,o),
(398,345,cs),
(398,0,l)
);
},
{
closed = 1;
nodes = (
(746,0,l),
(746,345,ls),
(746,465,o),
(689,516,o),
(599,516,cs),
(517,516,o),
(403,485,o),
(403,146,c),
(437,134,l),
(437,437,o),
(531,478,o),
(602,478,cs),
(667,478,o),
(706,443,o),
(706,345,cs),
(706,0,l)
);
},
{
closed = 1;
nodes = (
(120,0,l),
(120,500,l),
(80,500,l),
(80,0,l)
);
}
);
width = 816;
},
{
layerId = m002;
shapes = (
{
closed = 1;
nodes = (
(607,0,l),
(607,241,ls),
(607,373,o),
(582,516,o),
(446,516,cs),
(296,516,o),
(222,341,o),
(222,120,c),
(284,120,l),
(284,225,o),
(290,328,o),
(339,328,cs),
(370,328,o),
(372,289,o),
(373,229,cs),
(375,0,l)
);
},
{
closed = 1;
nodes = (
(284,0,l),
(284,395,l),
(274,500,l),
(50,500,l),
(50,0,l)
);
},
{
closed = 1;
nodes = (
(929,0,l),
(929,241,ls),
(929,373,o),
(904,516,o),
(768,516,cs),
(618,516,o),
(544,341,o),
(544,120,c),
(606,120,l),
(606,225,o),
(612,328,o),
(661,328,cs),
(692,328,o),
(694,289,o),
(695,229,cs),
(697,0,l)
);
}
);
width = 965;
},
{
associatedMasterId = m002;
layerId = "4E5F9434-B79A-4BC9-B41D-32B7353E2A64";
name = "24 Jan 24 at 00:06";
shapes = (
{
closed = 1;
nodes = (
(130,500,l),
(90,500,l),
(90,0,l),
(130,0,l)
);
},
{
closed = 1;
nodes = (
(448,345,l),
(448,466,o),
(380.565,516,o),
(293,516,c),
(213,516,o),
(106,449,o),
(106,134,c),
(130,134,l),
(130,418.569,o),
(225.808,478,o),
(293,478,c),
(361.435,478,o),
(408,442.233,o),
(408,345,c),
(408,0,l),
(448,0,l)
);
},
{
closed = 1;
nodes = (
(756,345,l),
(756,464.99,o),
(698.733,516,o),
(610,516,c),
(527.152,516,o),
(424,473,o),
(426,134,c),
(448,134.119,l),
(446.104,437.442,o),
(541.048,478,o),
(610,478,c),
(677.267,478,o),
(716,443.01,o),
(716,345,c),
(716,0,l),
(756,0,l)
);
}
);
width = 832;
},
{
associatedMasterId = m002;
layerId = "B47BB7FA-525F-40C4-B58F-E5572624634D";
name = "22 Oct 25 at 17:41";
shapes = (
{
closed = 1;
nodes = (
(438,0,l),
(438,345,ls),
(438,466,o),
(371,516,o),
(293,516,cs),
(203,516,o),
(85,449,o),
(85,134,c),
(120,134,l),
(120,419,o),
(216,478,o),
(292,478,cs),
(351,478,o),
(398,442,o),
(398,345,cs),
(398,0,l)
);
},
{
closed = 1;
nodes = (
(746,0,l),
(746,345,ls),
(746,465,o),
(689,516,o),
(599,516,cs),
(517,516,o),
(403,485,o),
(403,146,c),
(437,134,l),
(437,437,o),
(531,478,o),
(602,478,cs),
(667,478,o),
(706,443,o),
(706,345,cs),
(706,0,l)
);
},
{
closed = 1;
nodes = (
(120,0,l),
(120,500,l),
(80,500,l),
(80,0,l)
);
}
);
width = 816;
},
{
layerId = m003;
shapes = (
{
closed = 1;
nodes = (
(506,0,l),
(506,302,ls),
(506,447,o),
(422,516,o),
(324,516,cs),
(229,516,o),
(125,464,o),
(125,245,c),
(180,245,l),
(180,331,o),
(232,391,o),
(291,391,cs),
(358,391,o),
(376,342,o),
(376,266,cs),
(376,0,l)
);
},
{
closed = 1;
nodes = (
(180,0,l),
(180,430,l),
(170,500,l),
(50,500,l),
(50,0,l)
);
},
{
closed = 1;
nodes = (
(825,0,l),
(825,302,ls),
(825,447,o),
(741,516,o),
(645,516,cs),
(550,516,o),
(448,464,o),
(448,245,c),
(503,245,l),
(503,331,o),
(553,391,o),
(611,391,cs),
(677,391,o),
(695,342,o),
(695,266,cs),
(695,0,l)
);
}
);
width = 865;
},
{
associatedMasterId = m003;
layerId = "86DC330A-C9E3-42B6-B70D-9787495AB857";
name = "24 Jan 24 at 00:06";
shapes = (
{
closed = 1;
nodes = (
(130,500,l),
(90,500,l),
(90,0,l),
(130,0,l)
);
},
{
closed = 1;
nodes = (
(448,345,l),
(448,466,o),
(380.565,516,o),
(293,516,c),
(213,516,o),
(106,449,o),
(106,134,c),
(130,134,l),
(130,418.569,o),
(225.808,478,o),
(293,478,c),
(361.435,478,o),
(408,442.233,o),
(408,345,c),
(408,0,l),
(448,0,l)
);
},
{
closed = 1;
nodes = (
(756,345,l),
(756,464.99,o),
(698.733,516,o),
(610,516,c),
(527.152,516,o),
(424,473,o),
(426,134,c),
(448,134.119,l),
(446.104,437.442,o),
(541.048,478,o),
(610,478,c),
(677.267,478,o),
(716,443.01,o),
(716,345,c),
(716,0,l),
(756,0,l)
);
}
);
width = 832;
},
{
associatedMasterId = m003;
layerId = "4B482F28-258E-4637-86B0-47543B8821F8";
name = "22 Oct 25 at 17:41";
shapes = (
{
closed = 1;
nodes = (
(438,0,l),
(438,345,ls),
(438,466,o),
(371,516,o),
(293,516,cs),
(203,516,o),
(85,449,o),
(85,134,c),
(120,134,l),
(120,419,o),
(216,478,o),
(292,478,cs),
(351,478,o),
(398,442,o),
(398,345,cs),
(398,0,l)
);
},
{
closed = 1;
nodes = (
(746,0,l),
(746,345,ls),
(746,465,o),
(689,516,o),
(599,516,cs),
(517,516,o),
(403,485,o),
(403,146,c),
(437,134,l),
(437,437,o),
(531,478,o),
(602,478,cs),
(667,478,o),
(706,443,o),
(706,345,cs),
(706,0,l)
);
},
{
closed = 1;
nodes = (
(120,0,l),
(120,500,l),
(80,500,l),
(80,0,l)
);
}
);
width = 816;
}
);
metricLeft = "=n";
metricRight = "=n";
unicode = 109;
},
{
glyphname = n;
kernLeft = n;
kernRight = n;
lastChange = "2026-01-15 10:57:48 +0000";
layers = (
{
hints = (
{
horizontal = 1;
origin = (0,15);
target = up;
type = BottomGhost;
},
{
horizontal = 1;
place = (500,0);
type = Stem;
},
{
horizontal = 1;
place = (500,-20);
target = down;
type = TopGhost;
},
{
origin = (0,7);
target = (0,8);
type = Stem;
},
{
place = (448,51);
type = Stem;
}
);
layerId = "257EBA85-25A6-4EFE-A653-BCCD9A912022";
shapes = (
{
closed = 1;
nodes = (
(510,0,l),
(510,335,ls),
(510,467,o),
(408,516,o),
(322,516,cs),
(221,516,o),
(97,455,o),
(97,234,c),
(132,234,l),
(132,424,o),
(239,470,o),
(321,470,cs),
(376,470,o),
(456,451,o),
(457,335,cs),
(459,0,l)
);
},
{
closed = 1;
nodes = (
(132,0,l),
(132,378,l),
(128,500,l),
(80,500,l),
(80,0,l)
);
}
);
width = 569;
},
{
associatedMasterId = "257EBA85-25A6-4EFE-A653-BCCD9A912022";
layerId = "946EFE94-9F9C-41CD-A7E4-602AB02AAAC5";
name = "7 Dec 23, 23:01";
shapes = (
{
attr = {
strokeHeight = 38;
strokeWidth = 40;
};
closed = 0;
nodes = (
(120,500,l),
(120,0,l)
);
},
{
attr = {
strokeHeight = 38;
strokeWidth = 40;
};
closed = 0;
nodes = (
(124,374,l),
(192,447,o),
(301,497,o),
(370,497,cs),
(433,497,o),
(468,454,o),
(468,345,cs),
(468,0,l)
);
}
);
width = 574;
},
{
associatedMasterId = "257EBA85-25A6-4EFE-A653-BCCD9A912022";
layerId = "EDCFACEC-6503-4C7B-8F03-9857850348DD";
name = "7 Dec 23, 23:14";
shapes = (
{
attr = {
strokeHeight = 38;
strokeWidth = 40;
};
closed = 0;
nodes = (
(110,500,l),
(110,0,l)
);
},
{
attr = {
strokeHeight = 38;
strokeWidth = 40;
};
closed = 0;
nodes = (
(110,134,l),
(110,433,o),
(255,497,o),
(354,497,cs),
(432,497,o),
(475,454,o),
(475,345,cs),
(475,0,l)
);
}
);
width = 572;
},
{
associatedMasterId = "257EBA85-25A6-4EFE-A653-BCCD9A912022";
layerId = "65FC3015-6300-4F5D-BE7D-FBE9A266AF6B";
name = "24 Jan 24 at 00:02";
shapes = (
{
closed = 1;
nodes = (
(496,0,l),
(496,345,ls),
(496,467,o),
(405,516,o),
(320,516,cs),
(219,516,o),
(104,448,o),
(104,134,c),
(130,134,l),
(130,417,o),
(228,478,o),
(319,478,cs),
(389,478,o),
(454,441,o),
(455,345,cs),
(457,0,l)
);
},
{
closed = 1;
nodes = (
(130,0,l),
(130,500,l),
(90,500,l),
(90,0,l)
);
}
);
width = 572;
},
{
hints = (
{
horizontal = 1;
origin = (1,4);
target = up;
type = BottomGhost;
},
{
horizontal = 1;
origin = (0,4);
target = (0,11);
type = Stem;
},
{
horizontal = 1;
origin = (1,3);
target = down;
type = TopGhost;
},
{
origin = (1,4);
target = (1,2);
type = Stem;
},
{
place = (448,51);
type = Stem;
}
);
layerId = m002;
shapes = (
{
closed = 1;
nodes = (
(607,0,l),
(607,241,ls),
(607,373,o),
(582,516,o),
(446,516,cs),
(296,516,o),
(222,341,o),
(222,120,c),
(284,120,l),
(284,225,o),
(290,328,o),
(339,328,cs),
(370,328,o),
(372,289,o),
(373,229,cs),
(375,0,l)
);
},
{
closed = 1;
nodes = (
(284,0,l),
(284,365,l),
(254,500,l),
(50,500,l),
(50,0,l)
);
}
);
width = 643;
},
{
associatedMasterId = m002;
layerId = "52D0B4CA-5685-4593-8EB1-B49C10A63D9A";
name = "7 Dec 23, 23:01";
shapes = (
{
attr = {
strokeHeight = 38;
strokeWidth = 40;
};
closed = 0;
nodes = (
(120,500,l),
(120,0,l)
);
},
{
attr = {
strokeHeight = 38;
strokeWidth = 40;
};
closed = 0;
nodes = (
(124,374,l),
(192,447,o),
(301,497,o),
(370,497,cs),
(433,497,o),
(468,454,o),
(468,345,cs),
(468,0,l)
);
}
);
width = 574;
},
{
associatedMasterId = m002;
layerId = "7E03B825-8008-4AA2-957A-69283AB3ADE8";
name = "7 Dec 23, 23:14";
shapes = (
{
attr = {
strokeHeight = 38;
strokeWidth = 40;
};
closed = 0;
nodes = (
(110,500,l),
(110,0,l)
);
},
{
attr = {
strokeHeight = 38;
strokeWidth = 40;
};
closed = 0;
nodes = (
(110,134,l),
(110,433,o),
(255,497,o),
(354,497,cs),
(432,497,o),
(475,454,o),
(475,345,cs),
(475,0,l)
);
}
);
width = 572;
},
{
associatedMasterId = m002;
layerId = "A05C86A0-0D38-47B0-BC53-1F8C1C12DC99";
name = "24 Jan 24 at 00:02";
shapes = (
{
closed = 1;
nodes = (
(496,0,l),
(496,345,ls),
(496,467,o),
(405,516,o),
(320,516,cs),
(219,516,o),
(104,448,o),
(104,134,c),
(130,134,l),
(130,417,o),
(228,478,o),
(319,478,cs),
(389,478,o),
(454,441,o),
(455,345,cs),
(457,0,l)
);
},
{
closed = 1;
nodes = (
(130,0,l),
(130,500,l),
(90,500,l),
(90,0,l)
);
}
);
width = 572;
},
{
hints = (
{
horizontal = 1;
origin = (0,15);
target = up;
type = BottomGhost;
},
{
horizontal = 1;
place = (500,0);
type = Stem;
},
{
horizontal = 1;
place = (500,-20);
target = down;
type = TopGhost;
},
{
origin = (0,7);
target = (0,8);
type = Stem;
},
{
place = (448,51);
type = Stem;
}
);
layerId = m003;
shapes = (
{
closed = 1;
nodes = (
(526,0,l),
(526,302,ls),
(526,447,o),
(442,516,o),
(344,516,cs),
(229,516,o),
(125,464,o),
(125,245,c),
(180,245,l),
(180,331,o),
(232,391,o),
(308,391,cs),
(378,391,o),
(396,342,o),
(396,266,cs),
(396,0,l)
);
},
{
closed = 1;
nodes = (
(180,0,l),
(180,436,l),
(170,500,l),
(50,500,l),
(50,0,l)
);
}
);
width = 566;
},
{
associatedMasterId = m003;
layerId = "A4CFD8B7-451C-4E16-A282-15EE5F190D80";
name = "7 Dec 23, 23:01";
shapes = (
{
attr = {
strokeHeight = 38;
strokeWidth = 40;
};
closed = 0;
nodes = (
(120,500,l),
(120,0,l)
);
},
{
attr = {
strokeHeight = 38;
strokeWidth = 40;
};
closed = 0;
nodes = (
(124,374,l),
(192,447,o),
(301,497,o),
(370,497,cs),
(433,497,o),
(468,454,o),
(468,345,cs),
(468,0,l)
);
}
);
width = 574;
},
{
associatedMasterId = m003;
layerId = "83F6B63F-D05B-491A-9154-9533B3004F98";
name = "7 Dec 23, 23:14";
shapes = (
{
attr = {
strokeHeight = 38;
strokeWidth = 40;
};
closed = 0;
nodes = (
(110,500,l),
(110,0,l)
);
},
{
attr = {
strokeHeight = 38;
strokeWidth = 40;
};
closed = 0;
nodes = (
(110,134,l),
(110,433,o),
(255,497,o),
(354,497,cs),
(432,497,o),
(475,454,o),
(475,345,cs),
(475,0,l)
);
}
);
width = 572;
},
{
associatedMasterId = m003;
layerId = "DBDC0853-87FB-4B0F-89A7-18C3B01DD9F7";
name = "24 Jan 24 at 00:02";
shapes = (
{
closed = 1;
nodes = (
(496,0,l),
(496,345,ls),
(496,467,o),
(405,516,o),
(320,516,cs),
(219,516,o),
(104,448,o),
(104,134,c),
(130,134,l),
(130,417,o),
(228,478,o),
(319,478,cs),
(389,478,o),
(454,441,o),
(455,345,cs),
(457,0,l)
);
},
{
closed = 1;
nodes = (
(130,0,l),
(130,500,l),
(90,500,l),
(90,0,l)
);
}
);
width = 572;
}
);
unicode = 110;
},
{
glyphname = o;
kernLeft = o;
kernRight = o;
lastChange = "2026-01-15 10:57:48 +0000";
layers = (
{
anchors = (
{
name = top;
pos = (283,500);
}
);
layerId = "257EBA85-25A6-4EFE-A653-BCCD9A912022";
shapes = (
{
closed = 1;
nodes = (
(422,-16,o),
(526,88,o),
(526,260,cs),
(526,420,o),
(421,516,o),
(283,516,cs),
(145,516,o),
(40,420,o),
(40,260,cs),
(40,88,o),
(144,-16,o),
(283,-16,cs)
);
},
{
closed = 1;
nodes = (
(173,30,o),
(94,106,o),
(94,260,cs),
(94,401,o),
(172,470,o),
(283,470,cs),
(394,470,o),
(472,401,o),
(472,260,cs),
(472,106,o),
(393,30,o),
(283,30,cs)
);
}
);
width = 566;
},
{
anchors = (
{
name = top;
pos = (283,500);
}
);
layerId = m002;
shapes = (
{
closed = 1;
nodes = (
(438,-16,o),
(559,84,o),
(559,254,cs),
(559,411,o),
(438,516,o),
(283,516,cs),
(128,516,o),
(7,411,o),
(7,254,cs),
(7,84,o),
(128,-16,o),
(283,-16,cs)
);
},
{
closed = 1;
nodes = (
(256,184,o),
(243,207,o),
(243,254,cs),
(243,288,o),
(256,316,o),
(283,316,cs),
(310,316,o),
(323,288,o),
(323,254,cs),
(323,207,o),
(310,184,o),
(283,184,cs)
);
}
);
width = 566;
},
{
anchors = (
{
name = top;
pos = (277,500);
}
);
layerId = m003;
shapes = (
{
closed = 1;
nodes = (
(429,-16,o),
(524,90,o),
(524,260,cs),
(524,417,o),
(429,516,o),
(277,516,cs),
(125,516,o),
(30,417,o),
(30,260,cs),
(30,90,o),
(125,-16,o),
(277,-16,cs)
);
},
{
closed = 1;
nodes = (
(206,108,o),
(162,167,o),
(162,260,cs),
(162,341,o),
(206,392,o),
(277,392,cs),
(348,392,o),
(392,341,o),
(392,260,cs),
(392,167,o),
(348,108,o),
(277,108,cs)
);
}
);
width = 554;
}
);
unicode = 111;
},
{
glyphname = p;
kernLeft = p;
kernRight = o;
lastChange = "2026-01-15 10:57:48 +0000";
layers = (
{
layerId = "257EBA85-25A6-4EFE-A653-BCCD9A912022";
shapes = (
{
closed = 1;
nodes = (
(440,-16,o),
(544,88,o),
(544,260,cs),
(544,420,o),
(453,516,o),
(321,516,cs),
(179,516,o),
(101,420,o),
(101,260,cs),
(101,88,o),
(164,-16,o),
(307,-16,cs)
);
},
{
closed = 1;
nodes = (
(132,-200,l),
(132,426,l),
(132,500,l),
(80,500,l),
(80,-200,l)
);
},
{
closed = 1;
nodes = (
(198,30,o),
(132,116,o),
(132,259,cs),
(132,391,o),
(210,470,o),
(320,470,cs),
(421,470,o),
(490,391,o),
(490,259,cs),
(490,116,o),
(407,30,o),
(307,30,cs)
);
}
);
width = 584;
},
{
associatedMasterId = "257EBA85-25A6-4EFE-A653-BCCD9A912022";
background = {
shapes = (
{
closed = 1;
nodes = (
(192,22,o),
(127,106,o),
(127,260,cs),
(127,401,o),
(191,478,o),
(309,478,cs),
(427,478,o),
(491,401,o),
(491,260,cs),
(491,106,o),
(426,22,o),
(309,22,cs)
);
},
{
closed = 1;
nodes = (
(452,-16,o),
(533,88,o),
(533,260,cs),
(533,420,o),
(451,516,o),
(309,516,cs),
(167,516,o),
(85,420,o),
(85,260,cs),
(85,88,o),
(166,-16,o),
(309,-16,cs)
);
}
);
};
layerId = "0D61A47E-6694-4D9C-B3DC-BE1953088B8B";
name = old;
shapes = (
{
closed = 1;
nodes = (
(90,-200,l),
(130,-200,l),
(130,500,l),
(90,500,l)
);
},
{
closed = 1;
nodes = (
(190,22,o),
(130,82,o),
(130,230,cs),
(130,378,o),
(198,478,o),
(314,478,cs),
(439,478,o),
(491,385,o),
(491,250,cs),
(491,89,o),
(426,22,o),
(309,22,cs)
);
},
{
closed = 1;
nodes = (
(452,-16,o),
(532,71,o),
(532,250,cs),
(532,404,o),
(462,516,o),
(314,516,cs),
(175,516,o),
(108,396,o),
(108,230,cs),
(108,64,o),
(172,-16,o),
(309,-16,cs)
);
}
);
width = 586;
},
{
layerId = m002;
shapes = (
{
closed = 1;
nodes = (
(507,-16,o),
(607,39,o),
(607,258,cs),
(607,437,o),
(521,516,o),
(408,516,cs),
(291,516,o),
(219,382,o),
(219,258,cs),
(219,124,o),
(279,-16,o),
(414,-16,cs)
);
},
{
closed = 1;
nodes = (
(284,-200,l),
(284,426,l),
(254,500,l),
(50,500,l),
(50,-200,l)
);
},
{
closed = 1;
nodes = (
(293,184,o),
(284,218,o),
(284,252,cs),
(284,284,o),
(291,316,o),
(325,316,cs),
(359,316,o),
(371,284,o),
(371,252,cs),
(371,218,o),
(361,184,o),
(330,184,cs)
);
}
);
width = 614;
},
{
associatedMasterId = m002;
background = {
shapes = (
{
closed = 1;
nodes = (
(192,22,o),
(127,106,o),
(127,260,cs),
(127,401,o),
(191,478,o),
(309,478,cs),
(427,478,o),
(491,401,o),
(491,260,cs),
(491,106,o),
(426,22,o),
(309,22,cs)
);
},
{
closed = 1;
nodes = (
(452,-16,o),
(533,88,o),
(533,260,cs),
(533,420,o),
(451,516,o),
(309,516,cs),
(167,516,o),
(85,420,o),
(85,260,cs),
(85,88,o),
(166,-16,o),
(309,-16,cs)
);
}
);
};
layerId = "2EE54AF4-DAA6-4F89-88AB-137B8C22F8EA";
name = old;
shapes = (
{
closed = 1;
nodes = (
(90,-200,l),
(130,-200,l),
(130,500,l),
(90,500,l)
);
},
{
closed = 1;
nodes = (
(190,22,o),
(130,82,o),
(130,230,cs),
(130,378,o),
(198,478,o),
(314,478,cs),
(439,478,o),
(491,385,o),
(491,250,cs),
(491,89,o),
(426,22,o),
(309,22,cs)
);
},
{
closed = 1;
nodes = (
(452,-16,o),
(532,71,o),
(532,250,cs),
(532,404,o),
(462,516,o),
(314,516,cs),
(175,516,o),
(108,396,o),
(108,230,cs),
(108,64,o),
(172,-16,o),
(309,-16,cs)
);
}
);
width = 586;
},
{
layerId = m003;
shapes = (
{
closed = 1;
nodes = (
(446,4,o),
(542,108,o),
(542,260,cs),
(542,420,o),
(447,516,o),
(325,516,cs),
(193,516,o),
(114,379,o),
(114,260,cs),
(114,149,o),
(189,4,o),
(324,4,cs)
);
},
{
closed = 1;
nodes = (
(180,-200,l),
(180,426,l),
(169,500,l),
(50,500,l),
(50,-200,l)
);
},
{
closed = 1;
nodes = (
(230,128,o),
(180,183,o),
(180,257,cs),
(180,341,o),
(228,392,o),
(301,392,cs),
(365,392,o),
(410,341,o),
(410,257,cs),
(410,183,o),
(366,128,o),
(302,128,cs)
);
}
);
width = 572;
},
{
associatedMasterId = m003;
background = {
shapes = (
{
closed = 1;
nodes = (
(192,22,o),
(127,106,o),
(127,260,cs),
(127,401,o),
(191,478,o),
(309,478,cs),
(427,478,o),
(491,401,o),
(491,260,cs),
(491,106,o),
(426,22,o),
(309,22,cs)
);
},
{
closed = 1;
nodes = (
(452,-16,o),
(533,88,o),
(533,260,cs),
(533,420,o),
(451,516,o),
(309,516,cs),
(167,516,o),
(85,420,o),
(85,260,cs),
(85,88,o),
(166,-16,o),
(309,-16,cs)
);
}
);
};
layerId = "5D4FC808-A9C7-445E-AF78-6C51FF9C3E95";
name = old;
shapes = (
{
closed = 1;
nodes = (
(90,-200,l),
(130,-200,l),
(130,500,l),
(90,500,l)
);
},
{
closed = 1;
nodes = (
(190,22,o),
(130,82,o),
(130,230,cs),
(130,378,o),
(198,478,o),
(314,478,cs),
(439,478,o),
(491,385,o),
(491,250,cs),
(491,89,o),
(426,22,o),
(309,22,cs)
);
},
{
closed = 1;
nodes = (
(452,-16,o),
(532,71,o),
(532,250,cs),
(532,404,o),
(462,516,o),
(314,516,cs),
(175,516,o),
(108,396,o),
(108,230,cs),
(108,64,o),
(172,-16,o),
(309,-16,cs)
);
}
);
width = 586;
}
);
metricLeft = "=n";
metricRight = "=o";
unicode = 112;
},
{
glyphname = q;
kernLeft = o;
lastChange = "2026-01-15 10:57:48 +0000";
layers = (
{
layerId = "257EBA85-25A6-4EFE-A653-BCCD9A912022";
shapes = (
{
closed = 1;
nodes = (
(406,-16,o),
(499,88,o),
(499,260,cs),
(499,420,o),
(425,516,o),
(283,516,cs),
(151,516,o),
(40,420,o),
(40,260,cs),
(40,88,o),
(130,-16,o),
(263,-16,cs)
);
},
{
closed = 1;
nodes = (
(167,30,o),
(94,111,o),
(94,260,cs),
(94,396,o),
(185,470,o),
(289,470,cs),
(403,470,o),
(465,396,o),
(465,260,cs),
(465,111,o),
(383,30,o),
(270,30,cs)
);
},
{
closed = 1;
nodes = (
(517,-200,l),
(517,500,l),
(465,500,l),
(465,423,l),
(465,-200,l)
);
}
);
width = 597;
},
{
associatedMasterId = "257EBA85-25A6-4EFE-A653-BCCD9A912022";
layerId = "A701DEA5-52BF-4061-BAA2-06EE4E640CA5";
name = old;
shapes = (
{
closed = 1;
nodes = (
(493,500,l),
(453,500,l),
(453,-200,l),
(493,-200,l)
);
},
{
closed = 1;
nodes = (
(157,22,o),
(95,126,o),
(95,270,c),
(95,408,o),
(182,478,o),
(290,478,c),
(408,478,o),
(453,401,o),
(453,260,c),
(453,107,o),
(381,22,o),
(264,22,c)
);
},
{
closed = 1;
nodes = (
(407,-16,o),
(493,105,o),
(493,260,c),
(493,406,o),
(432,516,o),
(290,516,c),
(158,516,o),
(54,427,o),
(54,270,c),
(54,108,o),
(131,-16,o),
(264,-16,c)
);
}
);
width = 569;
},
{
layerId = m002;
shapes = (
{
closed = 1;
nodes = (
(335,-16,o),
(395,124,o),
(395,258,cs),
(395,382,o),
(323,516,o),
(206,516,cs),
(93,516,o),
(7,437,o),
(7,258,cs),
(7,39,o),
(107,-16,o),
(200,-16,cs)
);
},
{
closed = 1;
nodes = (
(253,184,o),
(243,218,o),
(243,252,cs),
(243,284,o),
(255,316,o),
(289,316,cs),
(323,316,o),
(330,284,o),
(330,252,cs),
(330,218,o),
(321,184,o),
(284,184,cs)
);
},
{
closed = 1;
nodes = (
(564,-230,l),
(564,500,l),
(350,500,l),
(330,424,l),
(330,-230,l)
);
}
);
width = 614;
},
{
associatedMasterId = m002;
layerId = "723E0525-914F-4A62-9C06-D81DCC4B7DA0";
name = old;
shapes = (
{
closed = 1;
nodes = (
(493,500,l),
(453,500,l),
(453,-200,l),
(493,-200,l)
);
},
{
closed = 1;
nodes = (
(157,22,o),
(95,126,o),
(95,270,c),
(95,408,o),
(182,478,o),
(290,478,c),
(408,478,o),
(453,401,o),
(453,260,c),
(453,107,o),
(381,22,o),
(264,22,c)
);
},
{
closed = 1;
nodes = (
(407,-16,o),
(493,105,o),
(493,260,c),
(493,406,o),
(432,516,o),
(290,516,c),
(158,516,o),
(54,427,o),
(54,270,c),
(54,108,o),
(131,-16,o),
(264,-16,c)
);
}
);
width = 569;
},
{
layerId = m003;
shapes = (
{
closed = 1;
nodes = (
(383,4,o),
(458,149,o),
(458,260,cs),
(458,379,o),
(392,516,o),
(270,516,cs),
(138,516,o),
(30,420,o),
(30,260,cs),
(30,108,o),
(126,4,o),
(238,4,cs)
);
},
{
closed = 1;
nodes = (
(206,128,o),
(162,183,o),
(162,257,cs),
(162,341,o),
(217,392,o),
(281,392,cs),
(354,392,o),
(392,341,o),
(392,257,cs),
(392,183,o),
(342,128,o),
(270,128,cs)
);
},
{
closed = 1;
nodes = (
(522,-200,l),
(522,500,l),
(402,500,l),
(392,423,l),
(392,-200,l)
);
}
);
width = 572;
},
{
associatedMasterId = m003;
layerId = "A440BE8D-468F-4BFC-BC83-59574A6FB047";
name = old;
shapes = (
{
closed = 1;
nodes = (
(493,500,l),
(453,500,l),
(453,-200,l),
(493,-200,l)
);
},
{
closed = 1;
nodes = (
(157,22,o),
(95,126,o),
(95,270,c),
(95,408,o),
(182,478,o),
(290,478,c),
(408,478,o),
(453,401,o),
(453,260,c),
(453,107,o),
(381,22,o),
(264,22,c)
);
},
{
closed = 1;
nodes = (
(407,-16,o),
(493,105,o),
(493,260,c),
(493,406,o),
(432,516,o),
(290,516,c),
(158,516,o),
(54,427,o),
(54,270,c),
(54,108,o),
(131,-16,o),
(264,-16,c)
);
}
);
width = 569;
}
);
metricLeft = "=o";
metricRight = "=|n";
unicode = 113;
},
{
glyphname = r;
kernLeft = n;
lastChange = "2026-01-19 08:43:35 +0000";
layers = (
{
layerId = "257EBA85-25A6-4EFE-A653-BCCD9A912022";
shapes = (
{
closed = 1;
nodes = (
(132,0,l),
(132,416,l),
(130,500,l),
(80,500,l),
(80,0,l)
);
},
{
closed = 1;
nodes = (
(132,384,o),
(189,470,o),
(278,470,cs),
(321,470,o),
(348,455,o),
(365,442,c),
(379,490,l),
(367,497,o),
(332,516,o),
(273,516,cs),
(200,516,o),
(151,466,o),
(130,424,c),
(132,342,l)
);
}
);
width = 389;
},
{
associatedMasterId = "257EBA85-25A6-4EFE-A653-BCCD9A912022";
background = {
shapes = (
{
ref = n;
}
);
};
layerId = "BFA85F9C-9B24-4C1A-8925-3F0470AD4918";
name = "24 Oct 25 at 10:19";
shapes = (
{
closed = 1;
nodes = (
(120,0,l),
(120,194,ls),
(120,417,o),
(210,478,o),
(301,478,cs),
(327,478,o),
(353,472,o),
(372,464,c),
(372,503,l),
(355,511,o),
(329,516,o),
(302,516,cs),
(224,516,o),
(137,492,o),
(104,324,c),
(120,310,l),
(120,500,l),
(80,500,l),
(80,0,l)
);
}
);
width = 382;
},
{
layerId = m002;
shapes = (
{
closed = 1;
nodes = (
(284,0,l),
(284,393,l),
(274,500,l),
(50,500,l),
(50,0,l)
);
},
{
closed = 1;
nodes = (
(284,304,o),
(343,350,o),
(406,350,cs),
(439,350,o),
(469,341,o),
(486,328,c),
(509,492,l),
(497,499,o),
(463,516,o),
(424,516,cs),
(342,516,o),
(292,444,o),
(282,411,c),
(284,262,l)
);
}
);
width = 519;
},
{
associatedMasterId = m002;
background = {
shapes = (
{
ref = n;
}
);
};
layerId = "D8F3D038-02F9-4FF4-8163-438BCD427E56";
name = "24 Oct 25 at 10:19";
shapes = (
{
closed = 1;
nodes = (
(120,0,l),
(120,194,ls),
(120,417,o),
(210,478,o),
(301,478,cs),
(327,478,o),
(353,472,o),
(372,464,c),
(372,503,l),
(355,511,o),
(329,516,o),
(302,516,cs),
(224,516,o),
(137,492,o),
(104,324,c),
(120,310,l),
(120,500,l),
(80,500,l),
(80,0,l)
);
}
);
width = 382;
},
{
layerId = m003;
shapes = (
{
closed = 1;
nodes = (
(180,0,l),
(180,393,l),
(170,500,l),
(50,500,l),
(50,0,l)
);
},
{
closed = 1;
nodes = (
(180,355,o),
(247,392,o),
(308,392,cs),
(351,392,o),
(378,379,o),
(395,366,c),
(422,483,l),
(410,490,o),
(380,516,o),
(321,516,cs),
(248,516,o),
(188,461,o),
(175,423,c),
(180,273,l)
);
}
);
width = 437;
},
{
associatedMasterId = m003;
background = {
shapes = (
{
ref = n;
}
);
};
layerId = "79C25578-FB8F-443A-979A-E108E7588658";
name = "24 Oct 25 at 10:19";
shapes = (
{
closed = 1;
nodes = (
(120,0,l),
(120,194,ls),
(120,417,o),
(210,478,o),
(301,478,cs),
(327,478,o),
(353,472,o),
(372,464,c),
(372,503,l),
(355,511,o),
(329,516,o),
(302,516,cs),
(224,516,o),
(137,492,o),
(104,324,c),
(120,310,l),
(120,500,l),
(80,500,l),
(80,0,l)
);
}
);
width = 382;
}
);
metricLeft = "=n";
unicode = 114;
},
{
glyphname = s;
kernLeft = s;
lastChange = "2026-01-15 10:57:48 +0000";
layers = (
{
background = {
shapes = (
{
pos = (-85,0);
ref = "es-cy";
}
);
};
layerId = "257EBA85-25A6-4EFE-A653-BCCD9A912022";
shapes = (
{
closed = 1;
nodes = (
(312,-16,o),
(365,63,o),
(365,137,cs),
(365,321,o),
(101,274,o),
(101,391,cs),
(101,442,o),
(139,472,o),
(208,472,cs),
(255,472,o),
(282,462,o),
(309,447,c),
(324,492,l),
(286,511,o),
(253,516,o),
(203,516,cs),
(118,516,o),
(48,468,o),
(48,389,cs),
(48,219,o),
(312,272,o),
(312,131,cs),
(312,79,o),
(282,30,o),
(188,30,cs),
(137,30,o),
(96,50,o),
(65,71,c),
(47,23,l),
(89,-1,o),
(130,-16,o),
(189,-16,cs)
);
}
);
width = 402;
},
{
associatedMasterId = "257EBA85-25A6-4EFE-A653-BCCD9A912022";
layerId = "1BD2E971-4A66-49BC-9D4C-FBC6BC2B4886";
name = "5 Jan 25 at 09:56";
shapes = (
{
closed = 1;
nodes = (
(363,-16,o),
(416,63,o),
(416,137,cs),
(416,312,o),
(117,274,o),
(117,391,cs),
(117,442,o),
(173,478,o),
(252,478,cs),
(319,478,o),
(376,452,o),
(415,422,c),
(415,473,l),
(377,496,o),
(314,516,o),
(252,516,cs),
(157,516,o),
(77,468,o),
(77,389,cs),
(77,236,o),
(376,272,o),
(376,131,cs),
(376,79,o),
(336,22,o),
(222,22,cs),
(147,22,o),
(94,47,o),
(54,79,c),
(54,29,l),
(96,3,o),
(154,-16,o),
(223,-16,cs)
);
}
);
width = 470;
},
{
background = {
shapes = (
{
pos = (-90,0);
ref = "es-cy";
}
);
};
layerId = m002;
shapes = (
{
closed = 1;
nodes = (
(325,-16,o),
(422,44,o),
(422,155,cs),
(422,310,o),
(218,340,o),
(218,383,cs),
(218,402,o),
(237,409,o),
(265,409,cs),
(307,409,o),
(333,394,o),
(347,387,c),
(381,486,l),
(343,505,o),
(271,516,o),
(207,516,cs),
(92,516,o),
(15,447,o),
(15,368,cs),
(15,220,o),
(212,207,o),
(212,144,cs),
(212,127,o),
(191,120,o),
(166,120,cs),
(130,120,o),
(89,138,o),
(58,159,c),
(10,34,l),
(38,12,o),
(112,-16,o),
(207,-16,cs)
);
}
);
width = 432;
},
{
associatedMasterId = m002;
layerId = "695210C8-5991-4408-B6EB-5FE5D61408F2";
name = "5 Jan 25 at 09:56";
shapes = (
{
closed = 1;
nodes = (
(363,-16,o),
(416,63,o),
(416,137,cs),
(416,312,o),
(117,274,o),
(117,391,cs),
(117,442,o),
(173,478,o),
(252,478,cs),
(319,478,o),
(376,452,o),
(415,422,c),
(415,473,l),
(377,496,o),
(314,516,o),
(252,516,cs),
(157,516,o),
(77,468,o),
(77,389,cs),
(77,236,o),
(376,272,o),
(376,131,cs),
(376,79,o),
(336,22,o),
(222,22,cs),
(147,22,o),
(94,47,o),
(54,79,c),
(54,29,l),
(96,3,o),
(154,-16,o),
(223,-16,cs)
);
}
);
width = 470;
},
{
background = {
shapes = (
{
pos = (-83,0);
ref = "es-cy";
}
);
};
layerId = m003;
shapes = (
{
closed = 1;
nodes = (
(286,-16,o),
(364,48,o),
(364,148,cs),
(364,305,o),
(173,306,o),
(173,370,cs),
(173,392,o),
(197,409,o),
(228,409,cs),
(262,409,o),
(291,397,o),
(318,382,c),
(353,478,l),
(324,494,o),
(271,516,o),
(208,516,cs),
(112,516,o),
(41,451,o),
(41,365,cs),
(41,208,o),
(233,191,o),
(233,143,cs),
(233,117,o),
(206,102,o),
(165,102,cs),
(121,102,o),
(93,114,o),
(62,132,c),
(30,22,l),
(65,-4,o),
(125,-16,o),
(184,-16,cs)
);
}
);
width = 394;
},
{
associatedMasterId = m003;
layerId = "051EC5EC-FFA1-464E-ACEF-C8A753482F0C";
name = "5 Jan 25 at 09:56";
shapes = (
{
closed = 1;
nodes = (
(363,-16,o),
(416,63,o),
(416,137,cs),
(416,312,o),
(117,274,o),
(117,391,cs),
(117,442,o),
(173,478,o),
(252,478,cs),
(319,478,o),
(376,452,o),
(415,422,c),
(415,473,l),
(377,496,o),
(314,516,o),
(252,516,cs),
(157,516,o),
(77,468,o),
(77,389,cs),
(77,236,o),
(376,272,o),
(376,131,cs),
(376,79,o),
(336,22,o),
(222,22,cs),
(147,22,o),
(94,47,o),
(54,79,c),
(54,29,l),
(96,3,o),
(154,-16,o),
(223,-16,cs)
);
}
);
width = 470;
}
);
unicode = 115;
},
{
glyphname = t;
lastChange = "2026-01-15 10:57:48 +0000";
layers = (
{
layerId = "257EBA85-25A6-4EFE-A653-BCCD9A912022";
shapes = (
{
closed = 1;
nodes = (
(248,-5,o),
(277,0,o),
(300,13,c),
(289,57,l),
(267,46,o),
(244,41,o),
(216,41,cs),
(162,41,o),
(162,70,o),
(162,133,cs),
(162,632,l),
(110,632,l),
(110,483,l),
(110,101,ls),
(110,55,o),
(115,-5,o),
(216,-5,cs)
);
},
{
closed = 1;
nodes = (
(291,454,l),
(291,500,l),
(109,500,l),
(30,500,l),
(30,454,l)
);
}
);
width = 320;
},
{
layerId = m002;
shapes = (
{
closed = 1;
nodes = (
(349,-5,o),
(398,10,o),
(450,32,c),
(422,167,l),
(406,159,o),
(374,155,o),
(354,155,cs),
(315,155,o),
(305,184,o),
(305,229,cs),
(305,632,l),
(121,632,l),
(71,500,l),
(71,184,ls),
(71,63,o),
(138,-5,o),
(260,-5,cs)
);
},
{
closed = 1;
nodes = (
(418,350,l),
(418,480,l),
(305,500,l),
(10,500,l),
(10,350,l)
);
}
);
width = 430;
},
{
layerId = m003;
shapes = (
{
closed = 1;
nodes = (
(308,-5,o),
(337,6,o),
(360,17,c),
(344,131,l),
(331,124,o),
(300,118,o),
(281,118,cs),
(235,118,o),
(230,153,o),
(230,200,cs),
(230,632,l),
(120,632,l),
(100,500,l),
(100,182,ls),
(100,40,o),
(176,-5,o),
(269,-5,cs)
);
},
{
closed = 1;
nodes = (
(331,376,l),
(331,500,l),
(139,500,l),
(30,500,l),
(30,376,l)
);
}
);
width = 384;
}
);
metricLeft = "=f";
metricRight = "=f";
unicode = 116;
},
{
glyphname = u;
kernLeft = u;
lastChange = "2026-01-19 05:23:01 +0000";
layers = (
{
anchors = (
{
name = top;
pos = (256,500);
}
);
layerId = "257EBA85-25A6-4EFE-A653-BCCD9A912022";
shapes = (
{
closed = 1;
nodes = (
(312,-16,o),
(402,44,o),
(431,120,c),
(426,212,l),
(426,134,o),
(323,30,o),
(245,30,cs),
(188,30,o),
(114,68,o),
(113,183,cs),
(111,500,l),
(59,500,l),
(61,165,ls),
(62,35,o),
(151,-16,o),
(237,-16,cs)
);
},
{
closed = 1;
nodes = (
(478,0,l),
(478,500,l),
(426,500,l),
(426,149,l),
(429,0,l)
);
}
);
width = 558;
},
{
associatedMasterId = "257EBA85-25A6-4EFE-A653-BCCD9A912022";
layerId = "6E67B60B-5C6A-49E0-95F1-10157C947678";
name = "24 Jan 24 at 00:15";
shapes = (
{
closed = 1;
nodes = (
(443,0,l),
(483,0,l),
(483,500,l),
(443,500,l)
);
},
{
closed = 1;
nodes = (
(78,155,ls),
(79,33,o),
(168,-16,o),
(254,-16,cs),
(371,-16,o),
(469,62,o),
(469,366,c),
(443,366,l),
(443,83,o),
(355,22,o),
(254,22,cs),
(184,22,o),
(119,59,o),
(118,155,cs),
(116,500,l),
(76,500,l)
);
}
);
width = 573;
},
{
anchors = (
{
name = top;
pos = (313,500);
}
);
layerId = m002;
shapes = (
{
closed = 1;
nodes = (
(347,-16,o),
(412,85,o),
(412,203,c),
(359,275,l),
(359,230,o),
(359,183,o),
(312,183,cs),
(273,183,o),
(270,231,o),
(270,271,cs),
(268,500,l),
(36,500,l),
(36,259,ls),
(36,127,o),
(61,-16,o),
(214,-16,cs)
);
},
{
closed = 1;
nodes = (
(593,0,l),
(593,500,l),
(359,500,l),
(359,113,l),
(389,0,l)
);
}
);
width = 643;
},
{
associatedMasterId = m002;
layerId = "112DE88F-7785-4A89-933C-BD4C11521D65";
name = "24 Jan 24 at 00:15";
shapes = (
{
closed = 1;
nodes = (
(443,0,l),
(483,0,l),
(483,500,l),
(443,500,l)
);
},
{
closed = 1;
nodes = (
(78,155,ls),
(79,33,o),
(168,-16,o),
(254,-16,cs),
(371,-16,o),
(469,62,o),
(469,366,c),
(443,366,l),
(443,83,o),
(355,22,o),
(254,22,cs),
(184,22,o),
(119,59,o),
(118,155,cs),
(116,500,l),
(76,500,l)
);
}
);
width = 573;
},
{
anchors = (
{
name = top;
pos = (274,500);
}
);
layerId = m003;
shapes = (
{
closed = 1;
nodes = (
(335,-16,o),
(431,66,o),
(431,146,c),
(386,255,l),
(386,169,o),
(342,109,o),
(266,109,cs),
(196,109,o),
(170,158,o),
(170,234,cs),
(170,500,l),
(40,500,l),
(40,217,ls),
(40,57,o),
(139,-16,o),
(239,-16,cs)
);
},
{
closed = 1;
nodes = (
(516,0,l),
(516,500,l),
(386,500,l),
(386,146,l),
(410,0,l)
);
}
);
width = 566;
},
{
associatedMasterId = m003;
layerId = "D82DBBB8-5993-4968-B1CE-A287A7F55C3D";
name = "24 Jan 24 at 00:15";
shapes = (
{
closed = 1;
nodes = (
(443,0,l),
(483,0,l),
(483,500,l),
(443,500,l)
);
},
{
closed = 1;
nodes = (
(78,155,ls),
(79,33,o),
(168,-16,o),
(254,-16,cs),
(371,-16,o),
(469,62,o),
(469,366,c),
(443,366,l),
(443,83,o),
(355,22,o),
(254,22,cs),
(184,22,o),
(119,59,o),
(118,155,cs),
(116,500,l),
(76,500,l)
);
}
);
width = 573;
}
);
metricLeft = "=|n";
metricRight = "=|n";
unicode = 117;
},
{
glyphname = u.001;
kernLeft = u;
lastChange = "2026-01-19 05:24:02 +0000";
layers = (
{
anchors = (
{
name = top;
pos = (258,500);
}
);
background = {
shapes = (
{
pos = (-19,0);
ref = n;
}
);
};
layerId = "257EBA85-25A6-4EFE-A653-BCCD9A912022";
shapes = (
{
closed = 1;
nodes = (
(402,-16,o),
(478,59,o),
(479,206,cs),
(481,500,l),
(429,500,l),
(427,188,ls),
(426,105,o),
(382,30,o),
(273,30,cs),
(174,30,o),
(114,105,o),
(113,181,cs),
(111,500,l),
(59,500,l),
(61,199,ls),
(62,59,o),
(147,-16,o),
(273,-16,cs)
);
}
);
width = 540;
},
{
associatedMasterId = "257EBA85-25A6-4EFE-A653-BCCD9A912022";
layerId = "6E67B60B-5C6A-49E0-95F1-10157C947678";
name = "24 Jan 24 at 00:15";
shapes = (
{
closed = 1;
nodes = (
(443,0,l),
(483,0,l),
(483,500,l),
(443,500,l)
);
},
{
closed = 1;
nodes = (
(78,155,ls),
(79,33,o),
(168,-16,o),
(254,-16,cs),
(371,-16,o),
(469,62,o),
(469,366,c),
(443,366,l),
(443,83,o),
(355,22,o),
(254,22,cs),
(184,22,o),
(119,59,o),
(118,155,cs),
(116,500,l),
(76,500,l)
);
}
);
width = 573;
},
{
anchors = (
{
name = top;
pos = (315,500);
}
);
background = {
shapes = (
{
pos = (5,0);
ref = n;
}
);
};
layerId = m002;
shapes = (
{
closed = 1;
nodes = (
(448,-16,o),
(592,59,o),
(594,276,cs),
(596,500,l),
(361,500,l),
(361,261,ls),
(361,231,o),
(358,184,o),
(315,184,cs),
(278,184,o),
(271,231,o),
(271,261,cs),
(271,500,l),
(36,500,l),
(38,269,ls),
(40,59,o),
(193,-16,o),
(315,-16,cs)
);
}
);
width = 632;
},
{
associatedMasterId = m002;
layerId = "E7384D02-4ABF-44FB-A822-8AFE430C5A63";
name = "24 Jan 24 at 00:15";
shapes = (
{
closed = 1;
nodes = (
(443,0,l),
(483,0,l),
(483,500,l),
(443,500,l)
);
},
{
closed = 1;
nodes = (
(78,155,ls),
(79,33,o),
(168,-16,o),
(254,-16,cs),
(371,-16,o),
(469,62,o),
(469,366,c),
(443,366,l),
(443,83,o),
(355,22,o),
(254,22,cs),
(184,22,o),
(119,59,o),
(118,155,cs),
(116,500,l),
(76,500,l)
);
}
);
width = 573;
},
{
anchors = (
{
name = top;
pos = (267,500);
}
);
background = {
shapes = (
{
pos = (-10,0);
ref = n;
}
);
};
layerId = m003;
shapes = (
{
closed = 1;
nodes = (
(411,-16,o),
(514,59,o),
(515,206,cs),
(518,500,l),
(387,500,l),
(386,268,ls),
(386,185,o),
(381,108,o),
(278,108,cs),
(187,108,o),
(172,185,o),
(172,261,cs),
(171,500,l),
(40,500,l),
(43,199,ls),
(44,59,o),
(156,-16,o),
(278,-16,cs)
);
}
);
width = 558;
},
{
associatedMasterId = m003;
layerId = "B648817D-278A-468E-BC74-4626A3000002";
name = "24 Jan 24 at 00:15";
shapes = (
{
closed = 1;
nodes = (
(443,0,l),
(483,0,l),
(483,500,l),
(443,500,l)
);
},
{
closed = 1;
nodes = (
(78,155,ls),
(79,33,o),
(168,-16,o),
(254,-16,cs),
(371,-16,o),
(469,62,o),
(469,366,c),
(443,366,l),
(443,83,o),
(355,22,o),
(254,22,cs),
(184,22,o),
(119,59,o),
(118,155,cs),
(116,500,l),
(76,500,l)
);
}
);
width = 573;
}
);
metricLeft = "=|n";
metricRight = "=n";
},
{
glyphname = v;
kernLeft = v;
lastChange = "2026-01-15 10:57:48 +0000";
layers = (
{
layerId = "257EBA85-25A6-4EFE-A653-BCCD9A912022";
shapes = (
{
attr = {
identifier = ID0x146059de0;
};
closed = 1;
nodes = (
(271,-10,l),
(500,500,l),
(452,500,l),
(253,57,l),
(280,60,l),
(71,500,l),
(14,500,l),
(255,-10,l)
);
}
);
width = 514;
},
{
layerId = m002;
shapes = (
{
attr = {
identifier = ID0x146059de0;
};
closed = 1;
nodes = (
(447,0,l),
(676,500,l),
(468,500,l),
(269,57,l),
(466,60,l),
(257,500,l),
(10,500,l),
(251,0,l)
);
}
);
width = 686;
},
{
layerId = m003;
shapes = (
{
attr = {
identifier = ID0x146059de0;
};
closed = 1;
nodes = (
(345,-10,l),
(500,500,l),
(370,500,l),
(236,57,l),
(301,72,l),
(158,500,l),
(14,500,l),
(181,-10,l)
);
}
);
width = 514;
}
);
unicode = 118;
},
{
glyphname = w;
kernLeft = v;
lastChange = "2026-01-15 10:57:48 +0000";
layers = (
{
anchors = (
{
name = top;
pos = (388,500);
}
);
layerId = "257EBA85-25A6-4EFE-A653-BCCD9A912022";
shapes = (
{
attr = {
identifier = ID0x146059de0;
};
closed = 1;
nodes = (
(225,-10,l),
(403,446,l),
(371,442,l),
(557,-10,l),
(573,-10,l),
(764,500,l),
(713,500,l),
(550,65,l),
(582,65,l),
(402,500,l),
(373,500,l),
(205,70,l),
(231,70,l),
(70,500,l),
(14,500,l),
(205,-10,l)
);
}
);
width = 778;
},
{
anchors = (
{
name = top;
pos = (434,500);
}
);
layerId = m002;
shapes = (
{
attr = {
identifier = ID0x146059de0;
};
closed = 1;
nodes = (
(351,0,l),
(473,316,l),
(411,274,l),
(533,0,l),
(659,0,l),
(830,500,l),
(659,500,l),
(541,159,l),
(643,172,l),
(473,500,l),
(397,500,l),
(243,163,l),
(352,163,l),
(206,500,l),
(10,500,l),
(225,0,l)
);
}
);
width = 840;
},
{
anchors = (
{
name = top;
pos = (393,500);
}
);
layerId = m003;
shapes = (
{
attr = {
identifier = ID0x146059de0;
};
closed = 1;
nodes = (
(285,-10,l),
(414,296,l),
(367,296,l),
(487,-10,l),
(568,-10,l),
(759,500,l),
(635,500,l),
(505,152,l),
(555,152,l),
(417,500,l),
(373,500,l),
(214,94,l),
(306,94,l),
(154,500,l),
(14,500,l),
(205,-10,l)
);
}
);
width = 773;
}
);
metricLeft = "=v";
metricRight = "=v";
unicode = 119;
},
{
glyphname = x;
lastChange = "2026-01-15 10:57:48 +0000";
layers = (
{
layerId = "257EBA85-25A6-4EFE-A653-BCCD9A912022";
shapes = (
{
closed = 1;
nodes = (
(74,0,l),
(249,215,l),
(422,0,l),
(492,0,l),
(282,257,l),
(480,500,l),
(419,500,l),
(251,295,l),
(84,500,l),
(14,500,l),
(218,253,l),
(12,0,l)
);
}
);
width = 502;
},
{
associatedMasterId = "257EBA85-25A6-4EFE-A653-BCCD9A912022";
background = {
shapes = (
{
closed = 1;
nodes = (
(55,462,l),
(426,462,l),
(426,500,l),
(55,500,l)
);
},
{
closed = 1;
nodes = (
(41,0,l),
(429,0,l),
(429,38,l),
(41,38,l)
);
},
{
closed = 1;
nodes = (
(41,38,l),
(80,22,l),
(426,462,l),
(389,481,l)
);
}
);
};
layerId = "EEDCBE6E-F376-41BB-AF97-F22747104DC7";
name = old;
shapes = (
{
closed = 1;
nodes = (
(74,419,o),
(128,339,o),
(184,258,c),
(124,172,o),
(67,86,o),
(13,0,c),
(62,0,l),
(107,75,o),
(157,150,o),
(208,225,c),
(260,150,o),
(309,75,o),
(355,0,c),
(404,0,l),
(351,85,o),
(305,157,o),
(246,242,c),
(305,324,o),
(363,418,o),
(416,500,c),
(370,500,l),
(324,430,o),
(274,346,o),
(222,276,c),
(173,346,o),
(116,430,o),
(73,500,c),
(24,500,l)
);
}
);
width = 427;
},
{
layerId = m002;
shapes = (
{
closed = 1;
nodes = (
(203,0,l),
(265,154,l),
(324,0,l),
(569,0,l),
(443,266,l),
(538,500,l),
(350,500,l),
(288,350,l),
(230,500,l),
(12,500,l),
(112,267,l),
(10,0,l)
);
}
);
width = 579;
},
{
associatedMasterId = m002;
background = {
shapes = (
{
closed = 1;
nodes = (
(55,462,l),
(426,462,l),
(426,500,l),
(55,500,l)
);
},
{
closed = 1;
nodes = (
(41,0,l),
(429,0,l),
(429,38,l),
(41,38,l)
);
},
{
closed = 1;
nodes = (
(41,38,l),
(80,22,l),
(426,462,l),
(389,481,l)
);
}
);
};
layerId = "E8E7E136-B545-40D1-A753-4C5711033F69";
name = old;
shapes = (
{
closed = 1;
nodes = (
(74,419,o),
(128,339,o),
(184,258,c),
(124,172,o),
(67,86,o),
(13,0,c),
(62,0,l),
(107,75,o),
(157,150,o),
(208,225,c),
(260,150,o),
(309,75,o),
(355,0,c),
(404,0,l),
(351,85,o),
(305,157,o),
(246,242,c),
(305,324,o),
(363,418,o),
(416,500,c),
(370,500,l),
(324,430,o),
(274,346,o),
(222,276,c),
(173,346,o),
(116,430,o),
(73,500,c),
(24,500,l)
);
}
);
width = 427;
},
{
layerId = m003;
shapes = (
{
closed = 1;
nodes = (
(147,0,l),
(253,162,l),
(356,0,l),
(514,0,l),
(341,267,l),
(493,500,l),
(349,500,l),
(264,372,l),
(178,500,l),
(17,500,l),
(179,267,l),
(5,0,l)
);
}
);
width = 519;
},
{
associatedMasterId = m003;
background = {
shapes = (
{
closed = 1;
nodes = (
(55,462,l),
(426,462,l),
(426,500,l),
(55,500,l)
);
},
{
closed = 1;
nodes = (
(41,0,l),
(429,0,l),
(429,38,l),
(41,38,l)
);
},
{
closed = 1;
nodes = (
(41,38,l),
(80,22,l),
(426,462,l),
(389,481,l)
);
}
);
};
layerId = "468C0BBD-832B-4772-8602-E65CE1E1411B";
name = old;
shapes = (
{
closed = 1;
nodes = (
(74,419,o),
(128,339,o),
(184,258,c),
(124,172,o),
(67,86,o),
(13,0,c),
(62,0,l),
(107,75,o),
(157,150,o),
(208,225,c),
(260,150,o),
(309,75,o),
(355,0,c),
(404,0,l),
(351,85,o),
(305,157,o),
(246,242,c),
(305,324,o),
(363,418,o),
(416,500,c),
(370,500,l),
(324,430,o),
(274,346,o),
(222,276,c),
(173,346,o),
(116,430,o),
(73,500,c),
(24,500,l)
);
}
);
width = 427;
}
);
unicode = 120;
},
{
glyphname = y;
kernLeft = v;
lastChange = "2026-01-15 10:57:48 +0000";
layers = (
{
anchors = (
{
name = top;
pos = (262,500);
}
);
layerId = "257EBA85-25A6-4EFE-A653-BCCD9A912022";
shapes = (
{
closed = 1;
nodes = (
(210,-200,o),
(253,-136,o),
(281,-70,cs),
(517,500,l),
(461,500,l),
(225,-70,ls),
(209,-109,o),
(181,-153,o),
(152,-153,cs),
(138,-153,o),
(123,-147,o),
(113,-141,c),
(104,-188,l),
(116,-195,o),
(138,-200,o),
(157,-200,cs)
);
},
{
closed = 1;
nodes = (
(292,28,l),
(74,500,l),
(14,500,l),
(261,-14,l)
);
}
);
width = 531;
},
{
anchors = (
{
name = top;
pos = (267,500);
}
);
associatedMasterId = "257EBA85-25A6-4EFE-A653-BCCD9A912022";
layerId = "9008B787-BF3F-4FEB-B881-D8FE5C7FFA1A";
name = "14 Jan 26 at 01:49";
shapes = (
{
closed = 1;
nodes = (
(190,-216,o),
(234,-147,o),
(266,-70,cs),
(502,500,l),
(449,500,l),
(214,-70,ls),
(192,-124,o),
(166,-170,o),
(102,-170,cs),
(77,-170,o),
(62,-165,o),
(43,-156,c),
(43,-206,l),
(64,-213,o),
(87,-216,o),
(109,-216,cs)
);
},
{
closed = 1;
nodes = (
(292,28,l),
(74,500,l),
(14,500,l),
(254,0,l),
(270,0,l)
);
}
);
width = 516;
},
{
anchors = (
{
name = top;
pos = (307,500);
}
);
layerId = m002;
shapes = (
{
closed = 1;
nodes = (
(265,-200,o),
(335,-137,o),
(375,-31,cs),
(578,500,l),
(394,500,l),
(224,44,ls),
(204,-8,o),
(178,-63,o),
(131,-63,cs),
(119,-63,o),
(102,-61,o),
(91,-56,c),
(55,-171,l),
(78,-184,o),
(117,-200,o),
(165,-200,cs)
);
},
{
closed = 1;
nodes = (
(350,179,l),
(231,500,l),
(10,500,l),
(210,-7,l)
);
}
);
width = 588;
},
{
anchors = (
{
name = top;
pos = (267,500);
}
);
associatedMasterId = m002;
layerId = "5A3C2611-02A5-43ED-BE46-2F74E3E1EE6C";
name = "14 Jan 26 at 01:49";
shapes = (
{
closed = 1;
nodes = (
(190,-216,o),
(234,-147,o),
(266,-70,cs),
(502,500,l),
(449,500,l),
(214,-70,ls),
(192,-124,o),
(166,-170,o),
(102,-170,cs),
(77,-170,o),
(62,-165,o),
(43,-156,c),
(43,-206,l),
(64,-213,o),
(87,-216,o),
(109,-216,cs)
);
},
{
closed = 1;
nodes = (
(292,28,l),
(74,500,l),
(14,500,l),
(254,0,l),
(270,0,l)
);
}
);
width = 516;
},
{
anchors = (
{
name = top;
pos = (311,500);
}
);
layerId = m003;
shapes = (
{
closed = 1;
nodes = (
(288,-200,o),
(347,-99,o),
(382,-14,cs),
(594,500,l),
(459,500,l),
(246,-16,ls),
(227,-61,o),
(210,-83,o),
(180,-83,cs),
(164,-83,o),
(149,-78,o),
(139,-74,c),
(130,-188,l),
(148,-195,o),
(164,-200,o),
(186,-200,cs)
);
},
{
closed = 1;
nodes = (
(348,118,l),
(165,500,l),
(14,500,l),
(263,-19,l)
);
}
);
width = 608;
},
{
anchors = (
{
name = top;
pos = (267,500);
}
);
associatedMasterId = m003;
layerId = "178F44F1-D110-4880-B734-3995F1F33BFD";
name = "14 Jan 26 at 01:49";
shapes = (
{
closed = 1;
nodes = (
(190,-216,o),
(234,-147,o),
(266,-70,cs),
(502,500,l),
(449,500,l),
(214,-70,ls),
(192,-124,o),
(166,-170,o),
(102,-170,cs),
(77,-170,o),
(62,-165,o),
(43,-156,c),
(43,-206,l),
(64,-213,o),
(87,-216,o),
(109,-216,cs)
);
},
{
closed = 1;
nodes = (
(292,28,l),
(74,500,l),
(14,500,l),
(254,0,l),
(270,0,l)
);
}
);
width = 516;
}
);
metricLeft = "=v";
metricRight = "=v";
unicode = 121;
},
{
glyphname = z;
lastChange = "2026-01-15 11:03:06 +0000";
layers = (
{
layerId = "257EBA85-25A6-4EFE-A653-BCCD9A912022";
shapes = (
{
closed = 1;
nodes = (
(490,0,l),
(490,46,l),
(171,46,l),
(510,490,l),
(510,500,l),
(96,500,l),
(96,454,l),
(417,454,l),
(80,12,l),
(80,0,l)
);
}
);
width = 590;
},
{
background = {
shapes = (
{
pos = (-19,0);
ref = n;
}
);
};
layerId = m002;
shapes = (
{
closed = 1;
nodes = (
(561,0,l),
(561,200,l),
(352,200,l),
(568,415,l),
(568,500,l),
(71,500,l),
(71,300,l),
(280,300,l),
(50,85,l),
(50,0,l)
);
}
);
width = 618;
},
{
layerId = m003;
shapes = (
{
closed = 1;
nodes = (
(460,0,l),
(460,124,l),
(239,124,l),
(480,442,l),
(480,500,l),
(66,500,l),
(66,376,l),
(289,376,l),
(50,60,l),
(50,0,l)
);
}
);
width = 530;
}
);
metricLeft = "=n";
metricRight = "=|n";
unicode = 122;
},
{
export = 0;
glyphname = f_f;
lastChange = "2026-01-14 12:47:55 +0000";
layers = (
{
layerId = "257EBA85-25A6-4EFE-A653-BCCD9A912022";
shapes = (
{
closed = 1;
nodes = (
(140,0,l),
(140,521,ls),
(140,644,o),
(159,708,o),
(251,708,cs),
(283,708,o),
(314,700,o),
(331,692,c),
(331,731,l),
(308,739,o),
(276,746,o),
(245,746,cs),
(147,746,o),
(100,675,o),
(100,521,cs),
(100,0,l)
);
},
{
closed = 1;
nodes = (
(315,462,l),
(315,500,l),
(30,500,l),
(30,462,l)
);
},
{
closed = 1;
nodes = (
(395,0,l),
(395,521,ls),
(395,644,o),
(414,708,o),
(506,708,cs),
(538,708,o),
(569,700,o),
(586,692,c),
(586,731,l),
(563,739,o),
(531,746,o),
(500,746,cs),
(402,746,o),
(355,675,o),
(355,521,cs),
(355,0,l)
);
},
{
closed = 1;
nodes = (
(570,462,l),
(570,500,l),
(285,500,l),
(285,462,l)
);
}
);
width = 606;
},
{
layerId = m002;
shapes = (
{
closed = 1;
nodes = (
(140,0,l),
(140,521,ls),
(140,644,o),
(159,708,o),
(251,708,cs),
(283,708,o),
(314,700,o),
(331,692,c),
(331,731,l),
(308,739,o),
(276,746,o),
(245,746,cs),
(147,746,o),
(100,675,o),
(100,521,cs),
(100,0,l)
);
},
{
closed = 1;
nodes = (
(315,462,l),
(315,500,l),
(30,500,l),
(30,462,l)
);
},
{
closed = 1;
nodes = (
(395,0,l),
(395,521,ls),
(395,644,o),
(414,708,o),
(506,708,cs),
(538,708,o),
(569,700,o),
(586,692,c),
(586,731,l),
(563,739,o),
(531,746,o),
(500,746,cs),
(402,746,o),
(355,675,o),
(355,521,cs),
(355,0,l)
);
},
{
closed = 1;
nodes = (
(570,462,l),
(570,500,l),
(285,500,l),
(285,462,l)
);
}
);
width = 606;
},
{
layerId = m003;
shapes = (
{
closed = 1;
nodes = (
(140,0,l),
(140,521,ls),
(140,644,o),
(159,708,o),
(251,708,cs),
(283,708,o),
(314,700,o),
(331,692,c),
(331,731,l),
(308,739,o),
(276,746,o),
(245,746,cs),
(147,746,o),
(100,675,o),
(100,521,cs),
(100,0,l)
);
},
{
closed = 1;
nodes = (
(315,462,l),
(315,500,l),
(30,500,l),
(30,462,l)
);
},
{
closed = 1;
nodes = (
(395,0,l),
(395,521,ls),
(395,644,o),
(414,708,o),
(506,708,cs),
(538,708,o),
(569,700,o),
(586,692,c),
(586,731,l),
(563,739,o),
(531,746,o),
(500,746,cs),
(402,746,o),
(355,675,o),
(355,521,cs),
(355,0,l)
);
},
{
closed = 1;
nodes = (
(570,462,l),
(570,500,l),
(285,500,l),
(285,462,l)
);
}
);
width = 606;
}
);
metricLeft = f;
metricRight = f;
},
{
export = 0;
glyphname = f_h;
lastChange = "2026-01-15 05:23:24 +0000";
layers = (
{
layerId = "257EBA85-25A6-4EFE-A653-BCCD9A912022";
shapes = (
{
closed = 1;
nodes = (
(140,0,l),
(140,521,ls),
(140,644,o),
(159,708,o),
(255,708,cs),
(295,708,o),
(354,700,o),
(375,692,c),
(375,730,l),
(351,736,o),
(300,746,o),
(255,746,cs),
(147,746,o),
(100,675,o),
(100,521,cs),
(100,0,l)
);
},
{
closed = 1;
nodes = (
(265,462,l),
(265,500,l),
(30,500,l),
(30,462,l)
);
},
{
closed = 1;
nodes = (
(375,0,l),
(375,730,l),
(335,730,l),
(335,0,l)
);
},
{
closed = 1;
nodes = (
(741,0,l),
(741,345,ls),
(741,467,o),
(651,516,o),
(565,516,cs),
(464,516,o),
(349,448,o),
(349,134,c),
(375,134,l),
(375,417,o),
(473,478,o),
(564,478,cs),
(619,478,o),
(701,456,o),
(701,345,cs),
(701,0,l)
);
}
);
width = 800;
},
{
layerId = m002;
shapes = (
{
closed = 1;
nodes = (
(140,0,l),
(140,521,ls),
(140,644,o),
(159,708,o),
(255,708,cs),
(295,708,o),
(354,700,o),
(375,692,c),
(375,730,l),
(351,736,o),
(300,746,o),
(255,746,cs),
(147,746,o),
(100,675,o),
(100,521,cs),
(100,0,l)
);
},
{
closed = 1;
nodes = (
(265,462,l),
(265,500,l),
(30,500,l),
(30,462,l)
);
},
{
closed = 1;
nodes = (
(375,0,l),
(375,730,l),
(335,730,l),
(335,0,l)
);
},
{
closed = 1;
nodes = (
(741,0,l),
(741,345,ls),
(741,467,o),
(651,516,o),
(565,516,cs),
(464,516,o),
(349,448,o),
(349,134,c),
(375,134,l),
(375,417,o),
(473,478,o),
(564,478,cs),
(619,478,o),
(701,456,o),
(701,345,cs),
(701,0,l)
);
}
);
width = 787;
},
{
layerId = m003;
shapes = (
{
closed = 1;
nodes = (
(140,0,l),
(140,521,ls),
(140,644,o),
(159,708,o),
(255,708,cs),
(295,708,o),
(354,700,o),
(375,692,c),
(375,730,l),
(351,736,o),
(300,746,o),
(255,746,cs),
(147,746,o),
(100,675,o),
(100,521,cs),
(100,0,l)
);
},
{
closed = 1;
nodes = (
(265,462,l),
(265,500,l),
(30,500,l),
(30,462,l)
);
},
{
closed = 1;
nodes = (
(375,0,l),
(375,730,l),
(335,730,l),
(335,0,l)
);
},
{
closed = 1;
nodes = (
(741,0,l),
(741,345,ls),
(741,467,o),
(651,516,o),
(565,516,cs),
(464,516,o),
(349,448,o),
(349,134,c),
(375,134,l),
(375,417,o),
(473,478,o),
(564,478,cs),
(619,478,o),
(701,456,o),
(701,345,cs),
(701,0,l)
);
}
);
width = 781;
}
);
metricLeft = f;
metricRight = h;
},
{
export = 0;
glyphname = f_i;
lastChange = "2026-01-15 05:23:24 +0000";
layers = (
{
layerId = "257EBA85-25A6-4EFE-A653-BCCD9A912022";
shapes = (
{
closed = 1;
nodes = (
(388,0,l),
(388,500,l),
(348,500,l),
(348,0,l)
);
},
{
closed = 1;
nodes = (
(140,0,l),
(140,521,ls),
(140,644,o),
(159,708,o),
(251,708,cs),
(295,708,o),
(353,696,o),
(388,677,c),
(388,716,l),
(350,734,o),
(295,746,o),
(245,746,cs),
(147,746,o),
(100,675,o),
(100,521,cs),
(100,0,l)
);
},
{
closed = 1;
nodes = (
(357,462,l),
(357,500,l),
(30,500,l),
(30,462,l)
);
}
);
width = 468;
},
{
layerId = m002;
shapes = (
{
closed = 1;
nodes = (
(388,0,l),
(388,500,l),
(348,500,l),
(348,0,l)
);
},
{
closed = 1;
nodes = (
(140,0,l),
(140,521,ls),
(140,644,o),
(159,708,o),
(251,708,cs),
(295,708,o),
(353,696,o),
(388,677,c),
(388,716,l),
(350,734,o),
(295,746,o),
(245,746,cs),
(147,746,o),
(100,675,o),
(100,521,cs),
(100,0,l)
);
},
{
closed = 1;
nodes = (
(357,462,l),
(357,500,l),
(30,500,l),
(30,462,l)
);
}
);
width = 438;
},
{
layerId = m003;
shapes = (
{
closed = 1;
nodes = (
(388,0,l),
(388,500,l),
(348,500,l),
(348,0,l)
);
},
{
closed = 1;
nodes = (
(140,0,l),
(140,521,ls),
(140,644,o),
(159,708,o),
(251,708,cs),
(295,708,o),
(353,696,o),
(388,677,c),
(388,716,l),
(350,734,o),
(295,746,o),
(245,746,cs),
(147,746,o),
(100,675,o),
(100,521,cs),
(100,0,l)
);
},
{
closed = 1;
nodes = (
(357,462,l),
(357,500,l),
(30,500,l),
(30,462,l)
);
}
);
width = 438;
}
);
metricLeft = f;
metricRight = "=|n";
},
{
export = 0;
glyphname = f_k;
lastChange = "2026-01-14 12:47:55 +0000";
layers = (
{
layerId = "257EBA85-25A6-4EFE-A653-BCCD9A912022";
shapes = (
{
closed = 1;
nodes = (
(140,0,l),
(140,521,ls),
(140,644,o),
(159,708,o),
(251,708,cs),
(291,708,o),
(324,703,o),
(334,700,c),
(361,735,l),
(340,740,o),
(292,746,o),
(253,746,cs),
(147,746,o),
(100,675,o),
(100,521,cs),
(100,0,l)
);
},
{
closed = 1;
nodes = (
(270,462,l),
(270,500,l),
(30,500,l),
(30,462,l)
);
},
{
closed = 1;
nodes = (
(361,0,l),
(361,735,l),
(321,735,l),
(321,0,l)
);
},
{
closed = 1;
nodes = (
(720,0,l),
(414,292,l),
(415,282,l),
(698,500,l),
(639,500,l),
(361,286,l),
(659,0,l)
);
}
);
width = 730;
},
{
layerId = m002;
shapes = (
{
closed = 1;
nodes = (
(140,0,l),
(140,521,ls),
(140,644,o),
(159,708,o),
(251,708,cs),
(291,708,o),
(324,703,o),
(334,700,c),
(361,735,l),
(340,740,o),
(292,746,o),
(253,746,cs),
(147,746,o),
(100,675,o),
(100,521,cs),
(100,0,l)
);
},
{
closed = 1;
nodes = (
(270,462,l),
(270,500,l),
(30,500,l),
(30,462,l)
);
},
{
closed = 1;
nodes = (
(361,0,l),
(361,735,l),
(321,735,l),
(321,0,l)
);
},
{
closed = 1;
nodes = (
(720,0,l),
(414,292,l),
(415,282,l),
(698,500,l),
(639,500,l),
(361,286,l),
(659,0,l)
);
}
);
width = 730;
},
{
layerId = m003;
shapes = (
{
closed = 1;
nodes = (
(140,0,l),
(140,521,ls),
(140,644,o),
(159,708,o),
(251,708,cs),
(291,708,o),
(324,703,o),
(334,700,c),
(361,735,l),
(340,740,o),
(292,746,o),
(253,746,cs),
(147,746,o),
(100,675,o),
(100,521,cs),
(100,0,l)
);
},
{
closed = 1;
nodes = (
(270,462,l),
(270,500,l),
(30,500,l),
(30,462,l)
);
},
{
closed = 1;
nodes = (
(361,0,l),
(361,735,l),
(321,735,l),
(321,0,l)
);
},
{
closed = 1;
nodes = (
(720,0,l),
(414,292,l),
(415,282,l),
(698,500,l),
(639,500,l),
(361,286,l),
(659,0,l)
);
}
);
width = 730;
}
);
metricLeft = f;
metricRight = k;
},
{
export = 0;
glyphname = f_l;
lastChange = "2026-01-15 05:23:24 +0000";
layers = (
{
layerId = "257EBA85-25A6-4EFE-A653-BCCD9A912022";
shapes = (
{
closed = 1;
nodes = (
(140,0,l),
(140,521,ls),
(140,644,o),
(159,708,o),
(251,708,cs),
(277,708,o),
(326,704,o),
(338,699,c),
(361,735,l),
(338,740,o),
(288,746,o),
(252,746,cs),
(147,746,o),
(100,675,o),
(100,521,cs),
(100,0,l)
);
},
{
closed = 1;
nodes = (
(270,462,l),
(270,500,l),
(30,500,l),
(30,462,l)
);
},
{
closed = 1;
nodes = (
(416,-5,o),
(452,-5,o),
(481,15,c),
(481,55,l),
(450,33,o),
(415,33,o),
(402,33,cs),
(364,33,o),
(361,62,o),
(361,101,cs),
(361,735,l),
(321,735,l),
(321,101,ls),
(321,60,o),
(326,-5,o),
(402,-5,cs)
);
}
);
width = 561;
},
{
layerId = m002;
shapes = (
{
closed = 1;
nodes = (
(140,0,l),
(140,521,ls),
(140,644,o),
(159,708,o),
(251,708,cs),
(277,708,o),
(326,704,o),
(338,699,c),
(361,735,l),
(338,740,o),
(288,746,o),
(252,746,cs),
(147,746,o),
(100,675,o),
(100,521,cs),
(100,0,l)
);
},
{
closed = 1;
nodes = (
(270,462,l),
(270,500,l),
(30,500,l),
(30,462,l)
);
},
{
closed = 1;
nodes = (
(416,-5,o),
(452,-5,o),
(481,15,c),
(481,55,l),
(450,33,o),
(415,33,o),
(402,33,cs),
(364,33,o),
(361,62,o),
(361,101,cs),
(361,735,l),
(321,735,l),
(321,101,ls),
(321,60,o),
(326,-5,o),
(402,-5,cs)
);
}
);
width = 531;
},
{
layerId = m003;
shapes = (
{
closed = 1;
nodes = (
(140,0,l),
(140,521,ls),
(140,644,o),
(159,708,o),
(251,708,cs),
(277,708,o),
(326,704,o),
(338,699,c),
(361,735,l),
(338,740,o),
(288,746,o),
(252,746,cs),
(147,746,o),
(100,675,o),
(100,521,cs),
(100,0,l)
);
},
{
closed = 1;
nodes = (
(270,462,l),
(270,500,l),
(30,500,l),
(30,462,l)
);
},
{
closed = 1;
nodes = (
(416,-5,o),
(452,-5,o),
(481,15,c),
(481,55,l),
(450,33,o),
(415,33,o),
(402,33,cs),
(364,33,o),
(361,62,o),
(361,101,cs),
(361,735,l),
(321,735,l),
(321,101,ls),
(321,60,o),
(326,-5,o),
(402,-5,cs)
);
}
);
width = 531;
}
);
metricLeft = f;
metricRight = l;
},
{
export = 0;
glyphname = f_t;
lastChange = "2026-01-14 12:47:55 +0000";
layers = (
{
layerId = "257EBA85-25A6-4EFE-A653-BCCD9A912022";
shapes = (
{
closed = 1;
nodes = (
(140,0,l),
(140,521,ls),
(140,644,o),
(159,708,o),
(251,708,cs),
(277,708,o),
(306,703,o),
(321,693,c),
(321,735,l),
(298,742,o),
(272,746,o),
(248,746,cs),
(147,746,o),
(100,675,o),
(100,521,cs),
(100,0,l)
);
},
{
closed = 1;
nodes = (
(301,462,l),
(301,500,l),
(30,500,l),
(30,462,l)
);
},
{
closed = 1;
nodes = (
(456,-5,o),
(496,-3,o),
(526,17,c),
(526,55,l),
(495,34,o),
(466,33,o),
(438,33,cs),
(400,33,o),
(391,62,o),
(391,101,cs),
(391,632,l),
(351,632,l),
(351,483,l),
(351,101,ls),
(351,55,o),
(356,-5,o),
(432,-5,cs)
);
},
{
closed = 1;
nodes = (
(524,462,l),
(524,500,l),
(281,500,l),
(281,462,l)
);
}
);
width = 546;
},
{
layerId = m002;
shapes = (
{
closed = 1;
nodes = (
(140,0,l),
(140,521,ls),
(140,644,o),
(159,708,o),
(251,708,cs),
(277,708,o),
(306,703,o),
(321,693,c),
(321,735,l),
(298,742,o),
(272,746,o),
(248,746,cs),
(147,746,o),
(100,675,o),
(100,521,cs),
(100,0,l)
);
},
{
closed = 1;
nodes = (
(301,462,l),
(301,500,l),
(30,500,l),
(30,462,l)
);
},
{
closed = 1;
nodes = (
(456,-5,o),
(496,-3,o),
(526,17,c),
(526,55,l),
(495,34,o),
(466,33,o),
(438,33,cs),
(400,33,o),
(391,62,o),
(391,101,cs),
(391,632,l),
(351,632,l),
(351,483,l),
(351,101,ls),
(351,55,o),
(356,-5,o),
(432,-5,cs)
);
},
{
closed = 1;
nodes = (
(524,462,l),
(524,500,l),
(281,500,l),
(281,462,l)
);
}
);
width = 546;
},
{
layerId = m003;
shapes = (
{
closed = 1;
nodes = (
(140,0,l),
(140,521,ls),
(140,644,o),
(159,708,o),
(251,708,cs),
(277,708,o),
(306,703,o),
(321,693,c),
(321,735,l),
(298,742,o),
(272,746,o),
(248,746,cs),
(147,746,o),
(100,675,o),
(100,521,cs),
(100,0,l)
);
},
{
closed = 1;
nodes = (
(301,462,l),
(301,500,l),
(30,500,l),
(30,462,l)
);
},
{
closed = 1;
nodes = (
(456,-5,o),
(496,-3,o),
(526,17,c),
(526,55,l),
(495,34,o),
(466,33,o),
(438,33,cs),
(400,33,o),
(391,62,o),
(391,101,cs),
(391,632,l),
(351,632,l),
(351,483,l),
(351,101,ls),
(351,55,o),
(356,-5,o),
(432,-5,cs)
);
},
{
closed = 1;
nodes = (
(524,462,l),
(524,500,l),
(281,500,l),
(281,462,l)
);
}
);
width = 546;
}
);
metricLeft = f;
metricRight = t;
},
{
color = 1;
glyphname = "Be-cy";
lastChange = "2026-01-14 12:47:55 +0000";
layers = (
{
background = {
shapes = (
{
pos = (31,0);
ref = P;
}
);
};
layerId = "257EBA85-25A6-4EFE-A653-BCCD9A912022";
shapes = (
{
closed = 1;
nodes = (
(280,0,ls),
(380,0,o),
(496,45,o),
(496,201,cs),
(496,371,o),
(380,409,o),
(280,409,cs),
(137,409,l),
(137,648,l),
(449,648,l),
(449,700,l),
(80,700,l),
(80,0,l)
);
},
{
closed = 1;
nodes = (
(137,357,l),
(270,357,ls),
(359,357,o),
(438,336,o),
(438,198,cs),
(438,81,o),
(359,52,o),
(270,52,cs),
(137,52,l)
);
}
);
width = 516;
},
{
background = {
shapes = (
{
pos = (31,0);
ref = P;
}
);
};
layerId = m002;
shapes = (
{
closed = 1;
nodes = (
(280,0,ls),
(380,0,o),
(496,45,o),
(496,201,cs),
(496,371,o),
(380,409,o),
(280,409,cs),
(137,409,l),
(137,648,l),
(449,648,l),
(449,700,l),
(80,700,l),
(80,0,l)
);
},
{
closed = 1;
nodes = (
(137,357,l),
(270,357,ls),
(359,357,o),
(438,336,o),
(438,198,cs),
(438,81,o),
(359,52,o),
(270,52,cs),
(137,52,l)
);
}
);
width = 516;
},
{
background = {
shapes = (
{
pos = (31,0);
ref = P;
}
);
};
layerId = m003;
shapes = (
{
closed = 1;
nodes = (
(280,0,ls),
(380,0,o),
(496,45,o),
(496,201,cs),
(496,371,o),
(380,409,o),
(280,409,cs),
(137,409,l),
(137,648,l),
(449,648,l),
(449,700,l),
(80,700,l),
(80,0,l)
);
},
{
closed = 1;
nodes = (
(137,357,l),
(270,357,ls),
(359,357,o),
(438,336,o),
(438,198,cs),
(438,81,o),
(359,52,o),
(270,52,cs),
(137,52,l)
);
}
);
width = 516;
}
);
metricLeft = "=H";
metricRight = "=B";
unicode = 1041;
},
{
glyphname = "Ge-cy";
kernLeft = H;
kernRight = T;
lastChange = "2026-01-14 12:47:55 +0000";
layers = (
{
layerId = "257EBA85-25A6-4EFE-A653-BCCD9A912022";
shapes = (
{
closed = 1;
nodes = (
(137,0,l),
(137,648,l),
(488,648,l),
(488,700,l),
(80,700,l),
(80,0,l)
);
}
);
width = 523;
},
{
layerId = m002;
shapes = (
{
closed = 1;
nodes = (
(137,0,l),
(137,648,l),
(488,648,l),
(488,700,l),
(80,700,l),
(80,0,l)
);
}
);
width = 523;
},
{
layerId = m003;
shapes = (
{
closed = 1;
nodes = (
(137,0,l),
(137,648,l),
(488,648,l),
(488,700,l),
(80,700,l),
(80,0,l)
);
}
);
width = 523;
}
);
metricLeft = "=H";
metricRight = "=T";
unicode = 1043;
},
{
color = 1;
glyphname = "Gestroke-cy";
kernLeft = H;
kernRight = F;
lastChange = "2026-01-14 12:47:55 +0000";
layers = (
{
layerId = "257EBA85-25A6-4EFE-A653-BCCD9A912022";
shapes = (
{
closed = 1;
nodes = (
(226,0,l),
(226,648,l),
(577,648,l),
(577,700,l),
(169,700,l),
(169,0,l)
);
},
{
closed = 1;
nodes = (
(517,345,l),
(517,397,l),
(80,397,l),
(80,345,l)
);
}
);
width = 617;
},
{
layerId = m002;
shapes = (
{
closed = 1;
nodes = (
(226,0,l),
(226,648,l),
(577,648,l),
(577,700,l),
(169,700,l),
(169,0,l)
);
},
{
closed = 1;
nodes = (
(517,345,l),
(517,397,l),
(80,397,l),
(80,345,l)
);
}
);
width = 617;
},
{
layerId = m003;
shapes = (
{
closed = 1;
nodes = (
(226,0,l),
(226,648,l),
(577,648,l),
(577,700,l),
(169,700,l),
(169,0,l)
);
},
{
closed = 1;
nodes = (
(517,345,l),
(517,397,l),
(80,397,l),
(80,345,l)
);
}
);
width = 617;
}
);
metricLeft = "=H";
metricRight = "=F";
unicode = 1170;
},
{
glyphname = "Shha-cy";
kernLeft = H;
kernRight = H;
lastChange = "2026-01-14 12:47:55 +0000";
layers = (
{
layerId = "257EBA85-25A6-4EFE-A653-BCCD9A912022";
shapes = (
{
closed = 1;
nodes = (
(120,333,l),
(148,360,o),
(240,405,o),
(326,405,cs),
(441,405,o),
(520,349,o),
(520,236,cs),
(520,0,l),
(577,0,l),
(577,236,ls),
(577,384,o),
(458,456,o),
(335,456,cs),
(227,456,o),
(147,413,o),
(115,390,c)
);
},
{
closed = 1;
nodes = (
(137,700,l),
(80,700,l),
(80,0,l),
(137,0,l)
);
}
);
width = 612;
},
{
layerId = m002;
shapes = (
{
closed = 1;
nodes = (
(120,333,l),
(148,360,o),
(240,405,o),
(326,405,cs),
(441,405,o),
(520,349,o),
(520,236,cs),
(520,0,l),
(577,0,l),
(577,236,ls),
(577,384,o),
(458,456,o),
(335,456,cs),
(227,456,o),
(147,413,o),
(115,390,c)
);
},
{
closed = 1;
nodes = (
(137,700,l),
(80,700,l),
(80,0,l),
(137,0,l)
);
}
);
width = 612;
},
{
layerId = m003;
shapes = (
{
closed = 1;
nodes = (
(120,333,l),
(148,360,o),
(240,405,o),
(326,405,cs),
(441,405,o),
(520,349,o),
(520,236,cs),
(520,0,l),
(577,0,l),
(577,236,ls),
(577,384,o),
(458,456,o),
(335,456,cs),
(227,456,o),
(147,413,o),
(115,390,c)
);
},
{
closed = 1;
nodes = (
(137,700,l),
(80,700,l),
(80,0,l),
(137,0,l)
);
}
);
width = 612;
}
);
metricLeft = "=H";
unicode = 1210;
},
{
color = 1;
glyphname = "De-cy";
lastChange = "2026-01-14 12:47:55 +0000";
layers = (
{
hints = (
{
name = "_corner.de-legLarge";
origin = (0,6);
scale = (-1,1);
type = Corner;
},
{
name = "_corner.de-legLarge";
origin = (0,0);
type = Corner;
}
);
layerId = "257EBA85-25A6-4EFE-A653-BCCD9A912022";
shapes = (
{
closed = 1;
nodes = (
(619,0,l),
(619,700,l),
(195,700,l),
(195,437,o),
(184,252,o),
(112,52,c),
(112,0,l)
);
},
{
closed = 1;
nodes = (
(246,260,o),
(247,502,o),
(247,648,c),
(562,648,l),
(562,52,l),
(167,52,l)
);
}
);
width = 721;
},
{
hints = (
{
name = "_corner.de-legLarge";
origin = (0,6);
scale = (-1,1);
type = Corner;
},
{
name = "_corner.de-legLarge";
origin = (0,0);
type = Corner;
}
);
layerId = m002;
shapes = (
{
closed = 1;
nodes = (
(619,0,l),
(619,700,l),
(195,700,l),
(195,437,o),
(184,252,o),
(112,52,c),
(112,0,l)
);
},
{
closed = 1;
nodes = (
(246,260,o),
(247,502,o),
(247,648,c),
(562,648,l),
(562,52,l),
(167,52,l)
);
}
);
width = 721;
},
{
hints = (
{
name = "_corner.de-legLarge";
origin = (0,6);
scale = (-1,1);
type = Corner;
},
{
name = "_corner.de-legLarge";
origin = (0,0);
type = Corner;
}
);
layerId = m003;
shapes = (
{
closed = 1;
nodes = (
(619,0,l),
(619,700,l),
(195,700,l),
(195,437,o),
(184,252,o),
(112,52,c),
(112,0,l)
);
},
{
closed = 1;
nodes = (
(246,260,o),
(247,502,o),
(247,648,c),
(562,648,l),
(562,52,l),
(167,52,l)
);
}
);
width = 721;
}
);
metricRight = "=Tse-cy";
unicode = 1044;
},
{
color = 1;
glyphname = "Schwa-cy";
kernLeft = O;
kernRight = O;
lastChange = "2026-01-14 12:47:55 +0000";
layers = (
{
background = {
shapes = (
{
pos = (30,0);
ref = "Ereversed-cy";
}
);
};
layerId = "257EBA85-25A6-4EFE-A653-BCCD9A912022";
shapes = (
{
closed = 1;
nodes = (
(111,609,l),
(168,636,o),
(249,662,o),
(336,662,cs),
(533,662,o),
(616,550,o),
(616,366,cs),
(616,164,o),
(521,38,o),
(349,38,cs),
(149,38,o),
(96,202,o),
(96,365,c),
(78,357,l),
(658,357,l),
(658,409,l),
(42,409,l),
(42,362,ls),
(42,119,o),
(159,-16,o),
(349,-16,cs),
(564,-16,o),
(674,146,o),
(674,367,cs),
(674,584,o),
(568,716,o),
(331,716,cs),
(232,716,o),
(151,689,o),
(88,659,c)
);
}
);
width = 716;
},
{
background = {
shapes = (
{
pos = (30,0);
ref = "Ereversed-cy";
}
);
};
layerId = m002;
shapes = (
{
closed = 1;
nodes = (
(111,609,l),
(168,636,o),
(249,662,o),
(336,662,cs),
(533,662,o),
(616,550,o),
(616,366,cs),
(616,164,o),
(521,38,o),
(349,38,cs),
(149,38,o),
(96,202,o),
(96,365,c),
(78,357,l),
(658,357,l),
(658,409,l),
(42,409,l),
(42,362,ls),
(42,119,o),
(159,-16,o),
(349,-16,cs),
(564,-16,o),
(674,146,o),
(674,367,cs),
(674,584,o),
(568,716,o),
(331,716,cs),
(232,716,o),
(151,689,o),
(88,659,c)
);
}
);
width = 716;
},
{
background = {
shapes = (
{
pos = (30,0);
ref = "Ereversed-cy";
}
);
};
layerId = m003;
shapes = (
{
closed = 1;
nodes = (
(111,609,l),
(168,636,o),
(249,662,o),
(336,662,cs),
(533,662,o),
(616,550,o),
(616,366,cs),
(616,164,o),
(521,38,o),
(349,38,cs),
(149,38,o),
(96,202,o),
(96,365,c),
(78,357,l),
(658,357,l),
(658,409,l),
(42,409,l),
(42,362,ls),
(42,119,o),
(159,-16,o),
(349,-16,cs),
(564,-16,o),
(674,146,o),
(674,367,cs),
(674,584,o),
(568,716,o),
(331,716,cs),
(232,716,o),
(151,689,o),
(88,659,c)
);
}
);
width = 716;
}
);
metricLeft = "=O";
metricRight = "=O";
unicode = 1240;
},
{
glyphname = "Zhe-cy";
kernRight = X;
lastChange = "2026-01-14 12:47:55 +0000";
layers = (
{
layerId = "257EBA85-25A6-4EFE-A653-BCCD9A912022";
shapes = (
{
closed = 1;
nodes = (
(113,0,l),
(429,371,l),
(106,700,l),
(30,700,l),
(373,351,l),
(376,390,l),
(45,0,l)
);
},
{
closed = 1;
nodes = (
(481,0,l),
(481,700,l),
(424,700,l),
(424,0,l)
);
},
{
closed = 1;
nodes = (
(875,0,l),
(527,394,l),
(529,351,l),
(871,700,l),
(798,700,l),
(476,371,l),
(803,0,l)
);
}
);
width = 919;
},
{
associatedMasterId = "257EBA85-25A6-4EFE-A653-BCCD9A912022";
layerId = "5168D038-1614-4662-9AD0-DF11AEEAD32B";
name = "24 Oct 25 at 11:33";
shapes = (
{
closed = 1;
nodes = (
(102,0,l),
(435,371,l),
(103,700,l),
(42,700,l),
(395,351,l),
(399,390,l),
(57,0,l)
);
},
{
closed = 1;
nodes = (
(477,0,l),
(477,700,l),
(435,700,l),
(435,0,l)
);
},
{
closed = 1;
nodes = (
(869,0,l),
(514,394,l),
(514,352,l),
(865,700,l),
(809,700,l),
(477,371,l),
(810,0,l)
);
}
);
width = 914;
},
{
layerId = m002;
shapes = (
{
closed = 1;
nodes = (
(113,0,l),
(429,371,l),
(106,700,l),
(30,700,l),
(373,351,l),
(376,390,l),
(45,0,l)
);
},
{
closed = 1;
nodes = (
(481,0,l),
(481,700,l),
(424,700,l),
(424,0,l)
);
},
{
closed = 1;
nodes = (
(875,0,l),
(527,394,l),
(529,351,l),
(871,700,l),
(798,700,l),
(476,371,l),
(803,0,l)
);
}
);
width = 919;
},
{
associatedMasterId = m002;
layerId = "04FE03A6-C77D-4500-9836-A7B34695C547";
name = "24 Oct 25 at 11:33";
shapes = (
{
closed = 1;
nodes = (
(102,0,l),
(435,371,l),
(103,700,l),
(42,700,l),
(395,351,l),
(399,390,l),
(57,0,l)
);
},
{
closed = 1;
nodes = (
(477,0,l),
(477,700,l),
(435,700,l),
(435,0,l)
);
},
{
closed = 1;
nodes = (
(869,0,l),
(514,394,l),
(514,352,l),
(865,700,l),
(809,700,l),
(477,371,l),
(810,0,l)
);
}
);
width = 914;
},
{
layerId = m003;
shapes = (
{
closed = 1;
nodes = (
(113,0,l),
(429,371,l),
(106,700,l),
(30,700,l),
(373,351,l),
(376,390,l),
(45,0,l)
);
},
{
closed = 1;
nodes = (
(481,0,l),
(481,700,l),
(424,700,l),
(424,0,l)
);
},
{
closed = 1;
nodes = (
(875,0,l),
(527,394,l),
(529,351,l),
(871,700,l),
(798,700,l),
(476,371,l),
(803,0,l)
);
}
);
width = 919;
},
{
associatedMasterId = m003;
layerId = "1444BC35-1C95-4C78-9FBE-9215BA3B8F46";
name = "24 Oct 25 at 11:33";
shapes = (
{
closed = 1;
nodes = (
(102,0,l),
(435,371,l),
(103,700,l),
(42,700,l),
(395,351,l),
(399,390,l),
(57,0,l)
);
},
{
closed = 1;
nodes = (
(477,0,l),
(477,700,l),
(435,700,l),
(435,0,l)
);
},
{
closed = 1;
nodes = (
(869,0,l),
(514,394,l),
(514,352,l),
(865,700,l),
(809,700,l),
(477,371,l),
(810,0,l)
);
}
);
width = 914;
}
);
metricLeft = "=X";
metricRight = X;
unicode = 1046;
},
{
color = 1;
glyphname = "Ze-cy";
lastChange = "2026-01-14 12:47:55 +0000";
layers = (
{
background = {
shapes = (
{
pos = (-38,0);
ref = "Ereversed-cy";
}
);
};
layerId = "257EBA85-25A6-4EFE-A653-BCCD9A912022";
shapes = (
{
closed = 1;
nodes = (
(23,35,l),
(70,4,o),
(134,-16,o),
(227,-16,cs),
(400,-16,o),
(459,99,o),
(459,206,cs),
(459,319,o),
(377,377,o),
(288,382,c),
(381,394,o),
(419,478,o),
(419,543,cs),
(419,651,o),
(354,716,o),
(243,716,cs),
(163,716,o),
(83,690,o),
(42,669,c),
(64,619,l),
(103,639,o),
(161,664,o),
(237,664,cs),
(303,664,o),
(361,632,o),
(361,550,cs),
(361,453,o),
(297,407,o),
(180,407,cs),
(136,407,l),
(136,355,l),
(180,355,ls),
(269,355,o),
(401,331,o),
(401,195,cs),
(401,110,o),
(333,36,o),
(229,36,cs),
(142,36,o),
(94,61,o),
(53,85,c)
);
}
);
width = 479;
},
{
background = {
shapes = (
{
pos = (-38,0);
ref = "Ereversed-cy";
}
);
};
layerId = m002;
shapes = (
{
closed = 1;
nodes = (
(23,35,l),
(70,4,o),
(134,-16,o),
(227,-16,cs),
(400,-16,o),
(459,99,o),
(459,206,cs),
(459,319,o),
(377,377,o),
(288,382,c),
(381,394,o),
(419,478,o),
(419,543,cs),
(419,651,o),
(354,716,o),
(243,716,cs),
(163,716,o),
(83,690,o),
(42,669,c),
(64,619,l),
(103,639,o),
(161,664,o),
(237,664,cs),
(303,664,o),
(361,632,o),
(361,550,cs),
(361,453,o),
(297,407,o),
(180,407,cs),
(136,407,l),
(136,355,l),
(180,355,ls),
(269,355,o),
(401,331,o),
(401,195,cs),
(401,110,o),
(333,36,o),
(229,36,cs),
(142,36,o),
(94,61,o),
(53,85,c)
);
}
);
width = 479;
},
{
background = {
shapes = (
{
pos = (-38,0);
ref = "Ereversed-cy";
}
);
};
layerId = m003;
shapes = (
{
closed = 1;
nodes = (
(23,35,l),
(70,4,o),
(134,-16,o),
(227,-16,cs),
(400,-16,o),
(459,99,o),
(459,206,cs),
(459,319,o),
(377,377,o),
(288,382,c),
(381,394,o),
(419,478,o),
(419,543,cs),
(419,651,o),
(354,716,o),
(243,716,cs),
(163,716,o),
(83,690,o),
(42,669,c),
(64,619,l),
(103,639,o),
(161,664,o),
(237,664,cs),
(303,664,o),
(361,632,o),
(361,550,cs),
(361,453,o),
(297,407,o),
(180,407,cs),
(136,407,l),
(136,355,l),
(180,355,ls),
(269,355,o),
(401,331,o),
(401,195,cs),
(401,110,o),
(333,36,o),
(229,36,cs),
(142,36,o),
(94,61,o),
(53,85,c)
);
}
);
width = 479;
}
);
metricLeft = "=|C";
metricRight = "=B";
unicode = 1047;
},
{
glyphname = "Ii-cy";
lastChange = "2026-01-14 12:47:55 +0000";
layers = (
{
anchors = (
{
name = top;
pos = (362,700);
}
);
background = {
shapes = (
{
pos = (31,0);
ref = H;
}
);
};
layerId = "257EBA85-25A6-4EFE-A653-BCCD9A912022";
shapes = (
{
closed = 1;
nodes = (
(137,0,l),
(609,649,l),
(584,687,l),
(584,0,l),
(641,0,l),
(641,700,l),
(584,700,l),
(113,52,l),
(137,16,l),
(137,700,l),
(80,700,l),
(80,0,l)
);
}
);
width = 721;
},
{
anchors = (
{
name = top;
pos = (362,700);
}
);
background = {
shapes = (
{
pos = (31,0);
ref = H;
}
);
};
layerId = m002;
shapes = (
{
closed = 1;
nodes = (
(137,0,l),
(609,649,l),
(584,687,l),
(584,0,l),
(641,0,l),
(641,700,l),
(584,700,l),
(113,52,l),
(137,16,l),
(137,700,l),
(80,700,l),
(80,0,l)
);
}
);
width = 721;
},
{
anchors = (
{
name = top;
pos = (362,700);
}
);
background = {
shapes = (
{
pos = (31,0);
ref = H;
}
);
};
layerId = m003;
shapes = (
{
closed = 1;
nodes = (
(137,0,l),
(609,649,l),
(584,687,l),
(584,0,l),
(641,0,l),
(641,700,l),
(584,700,l),
(113,52,l),
(137,16,l),
(137,700,l),
(80,700,l),
(80,0,l)
);
}
);
width = 721;
}
);
metricLeft = "=H";
metricRight = "=H";
unicode = 1048;
},
{
glyphname = "Kadescender-cy";
kernLeft = H;
kernRight = Tse;
lastChange = "2026-01-14 12:47:55 +0000";
layers = (
{
background = {
shapes = (
{
pos = (31,0);
ref = "Ka-cy";
}
);
};
hints = (
{
name = "_corner.de-legLarge";
origin = (0,0);
type = Corner;
}
);
layerId = "257EBA85-25A6-4EFE-A653-BCCD9A912022";
shapes = (
{
closed = 1;
nodes = (
(578,0,l),
(578,52,l),
(195,392,l),
(189,354,l),
(612,700,l),
(534,700,l),
(132,371,l),
(549,0,l)
);
},
{
closed = 1;
nodes = (
(137,0,l),
(137,700,l),
(80,700,l),
(80,0,l)
);
}
);
width = 680;
},
{
background = {
shapes = (
{
pos = (31,0);
ref = "Ka-cy";
}
);
};
hints = (
{
name = "_corner.de-legLarge";
origin = (0,0);
type = Corner;
}
);
layerId = m002;
shapes = (
{
closed = 1;
nodes = (
(578,0,l),
(578,52,l),
(195,392,l),
(189,354,l),
(612,700,l),
(534,700,l),
(132,371,l),
(549,0,l)
);
},
{
closed = 1;
nodes = (
(137,0,l),
(137,700,l),
(80,700,l),
(80,0,l)
);
}
);
width = 680;
},
{
background = {
shapes = (
{
pos = (31,0);
ref = "Ka-cy";
}
);
};
hints = (
{
name = "_corner.de-legLarge";
origin = (0,0);
type = Corner;
}
);
layerId = m003;
shapes = (
{
closed = 1;
nodes = (
(578,0,l),
(578,52,l),
(195,392,l),
(189,354,l),
(612,700,l),
(534,700,l),
(132,371,l),
(549,0,l)
);
},
{
closed = 1;
nodes = (
(137,0,l),
(137,700,l),
(80,700,l),
(80,0,l)
);
}
);
width = 680;
}
);
metricLeft = "=H";
metricRight = "=Tse-cy";
unicode = 1178;
},
{
glyphname = "Kadescender-cy.001";
kernLeft = H;
kernRight = Tse;
lastChange = "2026-01-14 12:47:55 +0000";
layers = (
{
background = {
shapes = (
{
pos = (31,0);
ref = "Ka-cy";
}
);
};
hints = (
{
name = "_corner.de-legLarge";
origin = (0,0);
type = Corner;
}
);
layerId = "257EBA85-25A6-4EFE-A653-BCCD9A912022";
shapes = (
{
closed = 1;
nodes = (
(578,0,l),
(578,52,l),
(195,392,l),
(189,354,l),
(612,700,l),
(534,700,l),
(132,371,l),
(549,0,l)
);
},
{
closed = 1;
nodes = (
(137,0,l),
(137,700,l),
(80,700,l),
(80,0,l)
);
}
);
width = 680;
},
{
background = {
shapes = (
{
pos = (31,0);
ref = "Ka-cy";
}
);
};
hints = (
{
name = "_corner.de-legLarge";
origin = (0,0);
type = Corner;
}
);
layerId = m002;
shapes = (
{
closed = 1;
nodes = (
(578,0,l),
(578,52,l),
(195,392,l),
(189,354,l),
(612,700,l),
(534,700,l),
(132,371,l),
(549,0,l)
);
},
{
closed = 1;
nodes = (
(137,0,l),
(137,700,l),
(80,700,l),
(80,0,l)
);
}
);
width = 680;
},
{
background = {
shapes = (
{
pos = (31,0);
ref = "Ka-cy";
}
);
};
hints = (
{
name = "_corner.de-legLarge";
origin = (0,0);
type = Corner;
}
);
layerId = m003;
shapes = (
{
closed = 1;
nodes = (
(578,0,l),
(578,52,l),
(195,392,l),
(189,354,l),
(612,700,l),
(534,700,l),
(132,371,l),
(549,0,l)
);
},
{
closed = 1;
nodes = (
(137,0,l),
(137,700,l),
(80,700,l),
(80,0,l)
);
}
);
width = 680;
}
);
metricLeft = "=H";
metricRight = "=Tse-cy";
},
{
glyphname = "El-cy";
lastChange = "2026-01-14 12:47:55 +0000";
layers = (
{
layerId = "257EBA85-25A6-4EFE-A653-BCCD9A912022";
shapes = (
{
closed = 1;
nodes = (
(180,-11,o),
(203,126,o),
(203,666,c),
(188,648,l),
(552,648,l),
(535,664,l),
(535,0,l),
(592,0,l),
(592,700,l),
(147,700,l),
(147,157,o),
(128,48,o),
(27,56,c),
(20,0,l)
);
}
);
width = 672;
},
{
layerId = m002;
shapes = (
{
closed = 1;
nodes = (
(180,-11,o),
(203,126,o),
(203,666,c),
(188,648,l),
(552,648,l),
(535,664,l),
(535,0,l),
(592,0,l),
(592,700,l),
(147,700,l),
(147,157,o),
(128,48,o),
(27,56,c),
(20,0,l)
);
}
);
width = 672;
},
{
layerId = m003;
shapes = (
{
closed = 1;
nodes = (
(180,-11,o),
(203,126,o),
(203,666,c),
(188,648,l),
(552,648,l),
(535,664,l),
(535,0,l),
(592,0,l),
(592,700,l),
(147,700,l),
(147,157,o),
(128,48,o),
(27,56,c),
(20,0,l)
);
}
);
width = 672;
}
);
metricRight = "=H";
unicode = 1051;
},
{
glyphname = "Endescender-cy";
kernLeft = H;
kernRight = Tse;
lastChange = "2026-01-14 12:47:55 +0000";
layers = (
{
background = {
shapes = (
{
pos = (50,0);
ref = H;
}
);
};
hints = (
{
name = "_corner.de-legLarge";
origin = (0,4);
type = Corner;
}
);
layerId = "257EBA85-25A6-4EFE-A653-BCCD9A912022";
shapes = (
{
closed = 1;
nodes = (
(156,0,l),
(156,369,l),
(602,369,l),
(602,0,l),
(659,0,l),
(659,700,l),
(602,700,l),
(602,421,l),
(156,421,l),
(156,700,l),
(99,700,l),
(99,0,l)
);
}
);
width = 761;
},
{
background = {
shapes = (
{
pos = (50,0);
ref = H;
}
);
};
hints = (
{
name = "_corner.de-legLarge";
origin = (0,4);
type = Corner;
}
);
layerId = m002;
shapes = (
{
closed = 1;
nodes = (
(156,0,l),
(156,369,l),
(602,369,l),
(602,0,l),
(659,0,l),
(659,700,l),
(602,700,l),
(602,421,l),
(156,421,l),
(156,700,l),
(99,700,l),
(99,0,l)
);
}
);
width = 761;
},
{
background = {
shapes = (
{
pos = (50,0);
ref = H;
}
);
};
hints = (
{
name = "_corner.de-legLarge";
origin = (0,4);
type = Corner;
}
);
layerId = m003;
shapes = (
{
closed = 1;
nodes = (
(156,0,l),
(156,369,l),
(602,369,l),
(602,0,l),
(659,0,l),
(659,700,l),
(602,700,l),
(602,421,l),
(156,421,l),
(156,700,l),
(99,700,l),
(99,0,l)
);
}
);
width = 761;
}
);
metricRight = "=Tse-cy";
unicode = 1186;
},
{
glyphname = "Obarred-cy";
lastChange = "2026-01-14 12:47:55 +0000";
layers = (
{
anchors = (
{
name = top;
pos = (382,700);
}
);
layerId = "257EBA85-25A6-4EFE-A653-BCCD9A912022";
shapes = (
{
closed = 1;
nodes = (
(700,331,l),
(700,383,l),
(77,383,l),
(77,331,l)
);
},
{
closed = 1;
nodes = (
(591,-16,o),
(722,127,o),
(722,355,cs),
(722,576,o),
(591,715,o),
(382,715,cs),
(173,715,o),
(42,576,o),
(42,355,cs),
(42,127,o),
(173,-16,o),
(382,-16,cs)
);
},
{
closed = 1;
nodes = (
(209,36,o),
(100,159,o),
(100,355,cs),
(100,544,o),
(209,663,o),
(382,663,cs),
(555,663,o),
(664,544,o),
(664,355,cs),
(664,159,o),
(555,36,o),
(382,36,cs)
);
}
);
width = 764;
},
{
anchors = (
{
name = top;
pos = (382,700);
}
);
layerId = m002;
shapes = (
{
closed = 1;
nodes = (
(700,331,l),
(700,383,l),
(77,383,l),
(77,331,l)
);
},
{
closed = 1;
nodes = (
(591,-16,o),
(722,127,o),
(722,355,cs),
(722,576,o),
(591,715,o),
(382,715,cs),
(173,715,o),
(42,576,o),
(42,355,cs),
(42,127,o),
(173,-16,o),
(382,-16,cs)
);
},
{
closed = 1;
nodes = (
(209,36,o),
(100,159,o),
(100,355,cs),
(100,544,o),
(209,663,o),
(382,663,cs),
(555,663,o),
(664,544,o),
(664,355,cs),
(664,159,o),
(555,36,o),
(382,36,cs)
);
}
);
width = 764;
},
{
anchors = (
{
name = top;
pos = (382,700);
}
);
layerId = m003;
shapes = (
{
closed = 1;
nodes = (
(700,331,l),
(700,383,l),
(77,383,l),
(77,331,l)
);
},
{
closed = 1;
nodes = (
(591,-16,o),
(722,127,o),
(722,355,cs),
(722,576,o),
(591,715,o),
(382,715,cs),
(173,715,o),
(42,576,o),
(42,355,cs),
(42,127,o),
(173,-16,o),
(382,-16,cs)
);
},
{
closed = 1;
nodes = (
(209,36,o),
(100,159,o),
(100,355,cs),
(100,544,o),
(209,663,o),
(382,663,cs),
(555,663,o),
(664,544,o),
(664,355,cs),
(664,159,o),
(555,36,o),
(382,36,cs)
);
}
);
width = 764;
}
);
metricLeft = "=O";
metricRight = "=O";
unicode = 1256;
},
{
glyphname = "Pe-cy";
lastChange = "2026-01-14 12:47:55 +0000";
layers = (
{
layerId = "257EBA85-25A6-4EFE-A653-BCCD9A912022";
shapes = (
{
closed = 1;
nodes = (
(137,0,l),
(137,648,l),
(583,648,l),
(583,0,l),
(640,0,l),
(640,700,l),
(80,700,l),
(80,0,l)
);
}
);
width = 720;
},
{
layerId = m002;
shapes = (
{
closed = 1;
nodes = (
(137,0,l),
(137,648,l),
(583,648,l),
(583,0,l),
(640,0,l),
(640,700,l),
(80,700,l),
(80,0,l)
);
}
);
width = 720;
},
{
layerId = m003;
shapes = (
{
closed = 1;
nodes = (
(137,0,l),
(137,648,l),
(583,648,l),
(583,0,l),
(640,0,l),
(640,700,l),
(80,700,l),
(80,0,l)
);
}
);
width = 720;
}
);
metricLeft = "=H";
metricRight = "=H";
unicode = 1055;
},
{
color = 1;
glyphname = "Er-cy";
lastChange = "2026-01-14 12:47:55 +0000";
layers = (
{
layerId = "257EBA85-25A6-4EFE-A653-BCCD9A912022";
shapes = (
{
closed = 1;
nodes = (
(137,0,l),
(137,286,l),
(263,286,ls),
(417,286,o),
(506,359,o),
(506,499,cs),
(506,639,o),
(407,700,o),
(272,700,cs),
(80,700,l),
(80,0,l)
);
},
{
closed = 1;
nodes = (
(137,648,l),
(273,648,ls),
(385,648,o),
(448,608,o),
(448,497,cs),
(448,387,o),
(395,338,o),
(266,338,cs),
(137,338,l)
);
}
);
width = 548;
},
{
layerId = m002;
shapes = (
{
closed = 1;
nodes = (
(137,0,l),
(137,286,l),
(263,286,ls),
(417,286,o),
(506,359,o),
(506,499,cs),
(506,639,o),
(407,700,o),
(272,700,cs),
(80,700,l),
(80,0,l)
);
},
{
closed = 1;
nodes = (
(137,648,l),
(273,648,ls),
(385,648,o),
(448,608,o),
(448,497,cs),
(448,387,o),
(395,338,o),
(266,338,cs),
(137,338,l)
);
}
);
width = 548;
},
{
layerId = m003;
shapes = (
{
closed = 1;
nodes = (
(137,0,l),
(137,286,l),
(263,286,ls),
(417,286,o),
(506,359,o),
(506,499,cs),
(506,639,o),
(407,700,o),
(272,700,cs),
(80,700,l),
(80,0,l)
);
},
{
closed = 1;
nodes = (
(137,648,l),
(273,648,ls),
(385,648,o),
(448,608,o),
(448,497,cs),
(448,387,o),
(395,338,o),
(266,338,cs),
(137,338,l)
);
}
);
width = 548;
}
);
metricLeft = "=H";
metricRight = "=P";
unicode = 1056;
},
{
glyphname = "U-cy";
kernLeft = V;
kernRight = V;
lastChange = "2026-01-14 12:47:55 +0000";
layers = (
{
anchors = (
{
name = top;
pos = (321,700);
}
);
layerId = "257EBA85-25A6-4EFE-A653-BCCD9A912022";
shapes = (
{
closed = 1;
nodes = (
(259,-11,o),
(285,41,o),
(347,161,cs),
(626,700,l),
(565,700,l),
(305,196,l),
(359,210,l),
(73,700,l),
(10,700,l),
(300,188,l),
(255,103,o),
(234,42,o),
(146,55,c),
(132,0,l)
);
}
);
width = 636;
},
{
anchors = (
{
name = top;
pos = (321,700);
}
);
layerId = m002;
shapes = (
{
closed = 1;
nodes = (
(259,-11,o),
(285,41,o),
(347,161,cs),
(626,700,l),
(565,700,l),
(305,196,l),
(359,210,l),
(73,700,l),
(10,700,l),
(300,188,l),
(255,103,o),
(234,42,o),
(146,55,c),
(132,0,l)
);
}
);
width = 636;
},
{
anchors = (
{
name = top;
pos = (321,700);
}
);
layerId = m003;
shapes = (
{
closed = 1;
nodes = (
(259,-11,o),
(285,41,o),
(347,161,cs),
(626,700,l),
(565,700,l),
(305,196,l),
(359,210,l),
(73,700,l),
(10,700,l),
(300,188,l),
(255,103,o),
(234,42,o),
(146,55,c),
(132,0,l)
);
}
);
width = 636;
}
);
metricLeft = "=Y";
metricRight = "=Y";
unicode = 1059;
},
{
glyphname = "Ustraightstroke-cy";
kernLeft = V;
kernRight = V;
lastChange = "2026-01-14 12:47:55 +0000";
layers = (
{
anchors = (
{
name = top;
pos = (326,700);
}
);
layerId = "257EBA85-25A6-4EFE-A653-BCCD9A912022";
shapes = (
{
closed = 1;
nodes = (
(534,198,l),
(534,250,l),
(111,250,l),
(111,198,l)
);
},
{
closed = 1;
nodes = (
(352,0,l),
(352,289,l),
(627,700,l),
(569,700,l),
(304,319,l),
(343,321,l),
(76,700,l),
(10,700,l),
(295,289,l),
(295,0,l)
);
}
);
width = 637;
},
{
anchors = (
{
name = top;
pos = (326,700);
}
);
layerId = m002;
shapes = (
{
closed = 1;
nodes = (
(534,198,l),
(534,250,l),
(111,250,l),
(111,198,l)
);
},
{
closed = 1;
nodes = (
(352,0,l),
(352,289,l),
(627,700,l),
(569,700,l),
(304,319,l),
(343,321,l),
(76,700,l),
(10,700,l),
(295,289,l),
(295,0,l)
);
}
);
width = 637;
},
{
anchors = (
{
name = top;
pos = (326,700);
}
);
layerId = m003;
shapes = (
{
closed = 1;
nodes = (
(534,198,l),
(534,250,l),
(111,250,l),
(111,198,l)
);
},
{
closed = 1;
nodes = (
(352,0,l),
(352,289,l),
(627,700,l),
(569,700,l),
(304,319,l),
(343,321,l),
(76,700,l),
(10,700,l),
(295,289,l),
(295,0,l)
);
}
);
width = 637;
}
);
metricLeft = "=Y";
metricRight = "=Y";
unicode = 1200;
},
